<svg width="238" height="624" viewBox="0 0 238 624" fill="none" xmlns="http://www.w3.org/2000/svg">
<path d="M176.479 397.934C186.399 414.254 185.859 442.984 166.329 451.264C142.709 456.884 100.849 416.394 78.089 387.544C70.879 378.414 64.339 368.504 55.149 361.374C43.179 352.064 25.079 348.204 13.609 361.854C7.75903 368.814 5.98903 378.364 8.04903 387.224C12.319 405.624 28.899 416.744 45.909 422.644C50.079 424.084 54.839 425.704 55.709 430.604C56.289 433.804 54.599 437.014 51.979 438.934C41.409 446.714 26.839 435.074 16.469 442.894C11.159 446.894 9.73903 454.114 11.769 460.444C14.899 470.184 23.749 475.854 32.449 480.394C53.509 491.384 76.519 498.604 100.069 501.624C122.339 504.474 147.239 504.484 163.559 519.904C171.859 527.754 176.279 542.694 165.819 549.514C162.399 551.744 158.129 552.324 154.089 551.714C144.679 550.294 137.629 544.024 129.489 539.914C112.649 531.424 95.389 527.074 76.599 528.674C72.399 529.034 67.419 531.994 64.989 535.444C63.289 537.854 60.789 544.474 61.029 547.414C62.579 566.314 73.369 583.224 89.389 593.374C117.059 610.894 167.409 623.984 196.579 623.984C207.269 623.984 215.119 622.224 217.949 618.274C221.999 611.604 216.659 603.074 210.549 598.214C203.629 592.734 194.789 588.134 193.809 578.674C193.219 573.084 195.939 567.574 200.429 564.174C209.929 556.974 222.749 560.294 230.649 567.944C232.889 569.844 235.359 571.944 238.009 574.104V507.904C231.579 510.234 225.039 512.994 218.359 516.124C197.429 520.154 201.049 498.954 205.089 491.064C207.479 486.384 211.259 482.254 215.659 479.434C222.349 475.164 230.099 473.204 238.009 471.994V402.114C238.009 402.114 237.919 402.184 237.869 402.214C227.999 409.044 205.329 401.964 211.219 384.144C215.779 367.644 225.249 355.294 238.009 346.204V293.224C230.509 298.644 220.889 300.994 212.369 294.774C208.129 291.684 205.259 286.954 204.079 281.844C201.309 269.804 206.849 258.214 214.339 249.034C220.979 240.894 229.059 234.324 238.009 228.944V14.1239C234.929 22.5239 232.489 31.2039 230.079 39.8239C221.719 34.1839 218.569 23.6539 213.779 14.7839C208.259 4.55392 196.329 -5.22608 185.569 3.18392C179.679 7.78392 177.419 15.7039 179.209 22.9539C192.899 78.3039 213.109 136.154 198.389 192.274C197.119 197.104 192.999 200.934 188.019 201.364C180.869 201.994 177.929 195.754 175.869 190.264C158.979 145.274 148.349 97.9339 144.389 50.0439C143.579 40.2039 142.959 30.0239 138.469 21.2239C132.319 9.18392 116.619 0.373919 104.119 13.1839C101.669 15.6939 99.829 18.7739 98.629 22.0639C93.449 36.3439 98.069 51.1239 96.089 65.5339C95.819 67.4739 95.409 69.4539 94.319 71.0939C91.379 75.5239 84.769 75.6239 79.819 73.6739C71.329 70.3239 64.669 62.5239 52.519 68.8139C43.419 73.5339 37.879 83.3039 38.069 93.5539C38.389 109.764 49.269 123.194 59.639 135.414C97.549 180.084 135.449 224.754 173.349 269.424C188.019 286.714 203.059 304.614 204.449 329.134C204.969 338.374 202.089 347.574 196.609 355.034C195.219 356.914 193.529 358.724 191.309 359.414C185.819 361.124 180.979 355.614 177.859 350.784C150.879 309.004 123.889 267.224 96.899 225.444C86.579 209.474 74.549 192.164 53.959 191.084C43.489 190.544 33.399 196.654 30.589 206.754C24.209 229.664 60.859 237.764 55.759 256.664C31.689 252.204 0.689026 261.854 0.0090332 289.114C-0.140961 295.254 1.57903 301.334 4.54903 306.704C12.939 321.884 28.009 330.104 43.109 336.874C80.139 353.464 120.029 363.334 156.169 381.774C163.989 385.754 171.929 390.444 176.479 397.934Z" fill="#E3E1A4" fill-opacity="0.15"/>
</svg>
