<svg width="202" height="233" viewBox="0 0 202 233" fill="none" xmlns="http://www.w3.org/2000/svg">
<g clip-path="url(#clip0_28_22)">
<path d="M114.143 217.835C119.49 199.68 129.369 182.998 152.135 188.658C163.966 191.141 170.526 191.411 176.763 185.838C170.949 197.143 160.504 206.075 146.646 207.35C133.788 208.609 123.145 211.076 114.143 217.835Z" fill="#E3E1A4" fill-opacity="0.15"/>
<path d="M215.779 139.321C198.156 137.781 180.423 134.581 165.377 117.742C164.22 116.462 162.944 114.758 162.292 113.165C161.507 111.227 159.758 106.451 159.416 104.558C156.855 90.6866 154.598 82.2208 149.475 69.0237C148.854 67.4357 148.351 63.9879 148.1 62.3044C147.778 60.2064 147.476 56.8906 147.781 54.7904C148.717 48.1882 151.407 42.4893 154.353 36.5298C157.298 30.5704 162.634 25.3689 169.229 24.343C160.964 33.1279 158.209 46.6913 162.393 58.0035C165.225 65.6702 170.963 72.3534 171.852 80.4659C172.256 84.2017 172.636 87.7082 172.208 91.4261C171.331 98.971 168.775 106.011 171.241 113.196C172.381 116.499 173.298 117.865 174.763 120.229C176.526 123.094 181.576 127.294 183.723 128.523C192.563 133.566 202.502 135.652 213.295 138.273" fill="#E3E1A4" fill-opacity="0.15"/>
<path d="M21.0457 109.73C35.9092 108.953 43.3104 124.463 52.6479 134.174C56.4111 138.099 59.4229 140.172 64.208 142.766C68.9931 145.359 78.3533 146.347 83.2039 143.905C88.8468 141.072 91.5911 138.083 93.0877 131.949C94.3035 126.955 92.3005 118.872 90.6463 114.016C87.9297 105.968 79.0542 101.401 71.4661 97.5586C61.1024 92.3121 50.7148 91.2244 40.3667 85.9806C37.0158 84.2821 33.6452 80.4103 31.3731 77.4229C27.2484 71.9879 23.6684 63.5467 24.8161 56.8371C25.5133 52.7807 26.6617 48.6269 28.3663 44.8762C29.2318 42.9711 31.1254 40.7968 32.2356 39.7866C34.1725 38.0056 34.7996 37.4569 36.6296 36.284C51.1527 26.9283 72.1947 27.4952 90.5077 36.358C106.612 44.1573 120.641 57.0885 126.546 73.9753C134.165 95.7445 129.552 121.615 142.442 140.743C148.907 150.334 159.394 156.342 170.224 160.401C182.654 165.046 199.586 159.457 208.63 156.483C201.547 163.113 184.025 166.67 171.067 165.66C171.067 165.66 155.984 164.486 149.437 162.402C144.565 160.854 140.153 158.149 136.035 155.142C129.548 150.433 123.494 144.723 120.196 137.424C116.297 128.782 116.679 118.932 116.914 109.458C117.188 98.3035 117.163 87.0158 114.468 76.1907C111.774 65.3656 106.15 54.9253 97.0885 48.3971C89.1552 42.678 79.2833 40.3951 69.6401 38.731C64.6185 37.8478 59.3403 37.1444 54.4845 38.7012C48.3861 40.6503 43.6705 46.3466 42.906 52.7057C41.6698 62.9358 49.8575 71.9625 58.6739 77.3226C67.4746 82.68 77.6482 86.1732 84.9167 93.4791C90.5183 99.1096 94.3162 105.58 95.6238 113.413C96.773 120.317 97.4315 125.898 94.6935 132.874C93.58 135.732 91.9694 140.046 90.4245 142.523C81.5851 156.768 61.0399 158.314 51.2225 151.058C47.3379 148.188 47.2772 147.985 45.5557 145.432C43.5643 142.494 41.839 139.779 40.1463 136.331C34.5722 124.968 32.3934 114.683 21.0531 109.779" fill="#E3E1A4" fill-opacity="0.15"/>
</g>
<defs>
<clipPath id="clip0_28_22">
<rect width="200.141" height="202.363" fill="white" transform="matrix(0.173188 -0.984889 0.984881 0.173235 0.03479 197.764)"/>
</clipPath>
</defs>
</svg>
