<svg width="167" height="168" viewBox="0 0 167 168" fill="none" xmlns="http://www.w3.org/2000/svg">
<path d="M0.0297852 101.772C15.384 102.673 30.4046 107.434 30.1027 126.5C30.3087 136.323 31.2992 141.567 36.8565 145.482C26.8387 142.953 17.8502 136.322 14.2967 125.584C10.9402 115.633 7.03293 107.659 0.0297852 101.772Z" fill="#E3E1A4" fill-opacity="0.15"/>
<path d="M80.8448 167.838C78.8297 153.601 78.1076 138.973 88.6773 123.969C89.4785 122.818 90.5927 121.495 91.7345 120.686C93.125 119.709 96.5851 117.448 98.0205 116.829C108.533 112.256 114.82 108.914 124.328 102.436C125.471 101.652 128.109 100.621 129.395 100.114C130.997 99.4736 133.567 98.6266 135.286 98.4827C140.684 98.012 145.69 99.0962 150.949 100.334C156.207 101.572 161.305 104.843 163.328 109.877C154.856 104.945 143.612 105.253 135.424 110.642C129.874 114.292 125.637 120.062 119.377 122.254C116.494 123.26 113.787 124.204 110.765 124.547C104.631 125.238 98.5879 124.506 93.3526 127.778C90.9472 129.286 90.0335 130.263 88.4314 131.857C86.4862 133.779 84.0886 138.548 83.5093 140.474C81.1396 148.399 81.3127 156.651 81.2183 165.679" fill="#E3E1A4" fill-opacity="0.15"/>
<path d="M68.5268 8.21588C71.8704 19.8422 60.9493 28.5493 54.9751 37.725C52.5586 41.4251 51.4704 44.1903 50.2954 48.4552C49.1204 52.7201 50.0568 60.3128 52.8804 63.7054C56.1589 67.6535 59.0291 69.2778 64.16 69.3371C68.3368 69.3832 74.3688 66.3136 77.9094 64.1126C83.7826 60.4844 85.7689 52.6186 87.4178 45.9052C89.6691 36.7362 88.6235 28.3116 90.8755 19.1555C91.605 16.1906 94.0516 12.8111 95.9997 10.4637C99.5454 6.20023 105.571 1.81631 111.094 1.49362C114.433 1.3012 117.933 1.44817 121.215 2.10948C122.882 2.44517 124.951 3.54548 125.954 4.23907C127.72 5.44592 128.27 5.8417 129.534 7.07548C139.607 16.8578 143.02 33.623 139.365 49.75C136.147 63.9331 128.484 77.4143 116.199 85.1893C100.363 95.2175 79.0351 96.3126 66.2576 110.03C59.8506 116.909 57.0195 126.315 55.7942 135.635C54.398 146.331 61.9306 158.712 65.9452 165.327C59.3961 160.936 53.3643 147.714 51.785 137.269C51.785 137.269 49.946 125.11 50.394 119.544C50.7253 115.402 52.0568 111.412 53.6814 107.6C56.2189 101.599 59.6282 95.7578 64.8011 91.8064C70.9273 87.1335 78.7956 85.6278 86.3392 84.0752C95.2207 82.2443 104.153 80.1531 112.228 76.0327C120.304 71.9124 127.537 65.5431 131.042 57.1703C134.114 49.839 134.109 41.6034 133.656 33.6625C133.434 29.5242 133.022 25.2158 130.898 21.6567C128.235 17.1856 122.86 14.4973 117.685 15.0591C109.359 15.9578 103.716 24.0976 101.09 32.0622C98.4645 40.014 97.5664 48.7106 93.1165 55.8067C89.6871 61.2754 85.2617 65.4702 79.3007 67.9431C74.0452 70.1203 69.7479 71.666 63.7222 70.7784C61.2551 70.4213 57.5443 69.9377 55.2999 69.169C42.3996 64.7844 37.4045 48.8002 41.347 39.695C42.9055 36.0926 43.0555 36.0072 44.7607 34.1756C46.7213 32.0595 48.5536 30.1952 50.9727 28.2221C58.9461 21.7228 66.6882 18.1102 68.489 8.2308" fill="#E3E1A4" fill-opacity="0.15"/>
</svg>
