<svg width="167" height="168" viewBox="0 0 167 168" fill="none" xmlns="http://www.w3.org/2000/svg">
<path d="M0.0556641 101.767C15.4099 102.669 30.4305 107.429 30.1285 126.495C30.3346 136.318 31.3251 141.562 36.8823 145.478C26.8646 142.949 17.876 136.318 14.3226 125.579C10.9661 115.629 7.05881 107.655 0.0556641 101.767Z" fill="#E3E1A4" fill-opacity="0.15"/>
<path d="M80.8707 167.834C78.8556 153.597 78.1335 138.968 88.7031 123.965C89.5044 122.813 90.6186 121.49 91.7604 120.681C93.1508 119.704 96.6109 117.443 98.0464 116.825C108.558 112.251 114.846 108.91 124.354 102.431C125.497 101.648 128.134 100.617 129.421 100.11C131.023 99.4693 133.593 98.6222 135.312 98.4783C140.71 98.0076 145.716 99.0918 150.975 100.33C156.233 101.568 161.331 104.838 163.354 109.872C154.881 104.94 143.638 105.248 135.45 110.638C129.9 114.287 125.662 120.057 119.403 122.25C116.519 123.255 113.813 124.2 110.791 124.543C104.657 125.234 98.6138 124.502 93.3785 127.773C90.9731 129.282 90.0593 130.259 88.4573 131.853C86.5121 133.775 84.1145 138.544 83.5352 140.469C81.1655 148.395 81.3386 156.647 81.2442 165.674" fill="#E3E1A4" fill-opacity="0.15"/>
<path d="M68.5527 8.21148C71.8962 19.8378 60.9752 28.5449 55.0009 37.7206C52.5845 41.4207 51.4963 44.1859 50.3213 48.4508C49.1463 52.7157 50.0827 60.3084 52.9062 63.701C56.1848 67.6491 59.055 69.2734 64.1859 69.3327C68.3627 69.3788 74.3947 66.3092 77.9353 64.1082C83.8084 60.48 85.7948 52.6142 87.4437 45.9008C89.695 36.7318 88.6494 28.3072 90.9014 19.1512C91.6309 16.1862 94.0775 12.8067 96.0256 10.4593C99.5713 6.19584 105.597 1.81192 111.12 1.48923C114.459 1.29681 117.958 1.44378 121.241 2.10508C122.908 2.44078 124.977 3.54109 125.98 4.23468C127.746 5.44152 128.295 5.83731 129.56 7.07109C139.633 16.8534 143.046 33.6186 139.391 49.7456C136.173 63.9287 128.51 77.4099 116.225 85.1849C100.389 95.2131 79.0609 96.3082 66.2835 110.026C59.8765 116.905 57.0454 126.311 55.82 135.631C54.4239 146.326 61.9565 158.707 65.9711 165.322C59.422 160.931 53.3902 147.71 51.8108 137.264C51.8108 137.264 49.9719 125.106 50.4199 119.54C50.7512 115.398 52.0827 111.408 53.7072 107.596C56.2448 101.595 59.6541 95.7534 64.827 91.802C70.9532 87.1291 78.8215 85.6234 86.3651 84.0708C95.2466 82.24 104.178 80.1487 112.254 76.0283C120.33 71.908 127.563 65.5387 131.068 57.1659C134.139 49.8346 134.135 41.599 133.682 33.6581C133.459 29.5198 133.047 25.2114 130.924 21.6523C128.261 17.1812 122.886 14.4929 117.711 15.0547C109.385 15.9534 103.741 24.0932 101.116 32.0578C98.4904 40.0096 97.5922 48.7062 93.1424 55.8023C89.713 61.271 85.2876 65.4658 79.3265 67.9387C74.0711 70.1159 69.7738 71.6616 63.748 70.774C61.2809 70.4169 57.5702 69.9333 55.3258 69.1646C42.4254 64.78 37.4304 48.7958 41.3729 39.6906C42.9314 36.0882 43.0814 36.0028 44.7866 34.1712C46.7471 32.0551 48.5794 30.1909 50.9986 28.2177C58.972 21.7184 66.7141 18.1058 68.5149 8.22641" fill="#E3E1A4" fill-opacity="0.15"/>
</svg>
