<svg width="177" height="176" viewBox="0 0 177 176" fill="none" xmlns="http://www.w3.org/2000/svg">
<path d="M91.4948 175.998C110.173 175.634 129.942 174.723 145.951 163.974C159.535 154.926 169.783 141.019 174.028 125.23C176.636 115.635 177 105.493 177 95.5946C177 85.6959 177 75.6151 174.696 65.9594C172.634 57.0931 168.389 48.9555 163.537 41.3038C158.383 33.1663 152.986 24.3 145.951 17.6199C132.61 5.10998 111.749 2.37722 94.2843 0.494657C74.7576 -1.63082 56.1406 3.10595 40.1311 14.4621C26.0015 24.4215 12.2358 38.2067 5.50458 54.3603C-1.65117 71.5463 -1.10541 95.2302 3.01824 113.145C7.14189 131.06 19.9373 147.456 35.9468 157.476C51.9562 167.496 72.0895 175.816 91.3736 175.938C101.137 175.938 101.137 160.816 91.3736 160.756C77.3047 160.695 63.2962 155.047 51.0466 148.61C38.7969 142.173 28.7303 133.914 22.2416 121.708C14.8433 107.679 14.8434 89.7647 16.2381 74.2791C17.7542 57.4574 27.8815 44.7653 40.0099 33.8343C51.1073 23.8749 64.7518 16.2839 79.791 15.2515C87.8563 14.705 95.9217 15.7374 103.805 17.1948C111.689 18.6523 120.3 19.8669 127.637 23.2676C140.372 29.219 149.711 46.0406 155.775 58.1862C163.113 72.9431 162.446 90.6756 161.536 106.769C160.566 123.59 153.835 139.319 140.069 149.582C126.303 159.845 108.171 160.452 91.3736 160.816C81.6102 160.999 81.6102 176.181 91.3736 175.998H91.4948Z" fill="#E3E1A4" fill-opacity="0.15"/>
</svg>
