<svg width="167" height="168" viewBox="0 0 167 168" fill="none" xmlns="http://www.w3.org/2000/svg">
<path d="M166.167 101.772C150.813 102.673 135.792 107.434 136.094 126.5C135.888 136.323 134.898 141.567 129.341 145.482C139.358 142.953 148.347 136.322 151.9 125.584C155.257 115.633 159.164 107.659 166.167 101.772Z" fill="#E3E1A4" fill-opacity="0.15"/>
<path d="M85.3522 167.838C87.3673 153.601 88.0894 138.973 77.5198 123.969C76.7185 122.818 75.6043 121.495 74.4625 120.686C73.0721 119.709 69.612 117.448 68.1765 116.829C57.6645 112.256 51.3766 108.914 41.8689 102.436C40.7257 101.652 38.0884 100.621 36.8016 100.114C35.1998 99.4736 32.6299 98.6266 30.9113 98.4827C25.5126 98.012 20.507 99.0962 15.2483 100.334C9.9896 101.572 4.89221 104.843 2.8694 109.877C11.3414 104.945 22.5852 105.253 30.7729 110.642C36.3228 114.292 40.5605 120.062 46.82 122.254C49.7034 123.26 52.4098 124.204 55.4319 124.547C61.566 125.238 67.6091 124.506 72.8444 127.778C75.2498 129.286 76.1636 130.263 77.7656 131.857C79.7108 133.779 82.1084 138.548 82.6877 140.474C85.0574 148.399 84.8843 156.651 84.9787 165.679" fill="#E3E1A4" fill-opacity="0.15"/>
<path d="M97.6702 8.21588C94.3267 19.8422 105.248 28.5493 111.222 37.725C113.638 41.4251 114.727 44.1903 115.902 48.4552C117.077 52.7201 116.14 60.3128 113.317 63.7054C110.038 67.6535 107.168 69.2778 102.037 69.3371C97.8602 69.3832 91.8282 66.3136 88.2876 64.1126C82.4145 60.4844 80.4281 52.6186 78.7792 45.9052C76.5279 36.7362 77.5735 28.3116 75.3215 19.1555C74.592 16.1906 72.1454 12.8111 70.1973 10.4637C66.6516 6.20023 60.6259 1.81631 55.1033 1.49362C51.7639 1.3012 48.2645 1.44817 44.9823 2.10948C43.3151 2.44517 41.2461 3.54548 40.2425 4.23907C38.477 5.44592 37.9275 5.8417 36.663 7.07548C26.5903 16.8578 23.1766 33.623 26.8318 49.75C30.0503 63.9331 37.7127 77.4143 49.998 85.1893C65.834 95.2175 87.162 96.3126 99.9394 110.03C106.346 116.909 109.178 126.315 110.403 135.635C111.799 146.331 104.266 158.712 100.252 165.327C106.801 160.936 112.833 147.714 114.412 137.269C114.412 137.269 116.251 125.11 115.803 119.544C115.472 115.402 114.14 111.412 112.516 107.6C109.978 101.599 106.569 95.7578 101.396 91.8064C95.2697 87.1335 87.4014 85.6278 79.8578 84.0752C70.9763 82.2443 62.0444 80.1531 53.9689 76.0327C45.8933 71.9124 38.6602 65.5431 35.155 57.1703C32.0835 49.839 32.0882 41.6034 32.5409 33.6625C32.7634 29.5242 33.1754 25.2158 35.2993 21.6567C37.9618 17.1856 43.3371 14.4973 48.5119 15.0591C56.8379 15.9578 62.4814 24.0976 65.1066 32.0622C67.7325 40.014 68.6307 48.7106 73.0805 55.8067C76.5099 61.2754 80.9353 65.4702 86.8964 67.9431C92.1518 70.1203 96.4491 71.666 102.475 70.7784C104.942 70.4213 108.653 69.9377 110.897 69.169C123.797 64.7844 128.792 48.8002 124.85 39.695C123.292 36.0926 123.142 36.0072 121.436 34.1756C119.476 32.0595 117.643 30.1952 115.224 28.2221C107.251 21.7228 99.5088 18.1102 97.708 8.2308" fill="#E3E1A4" fill-opacity="0.15"/>
</svg>
