<svg width="280" height="811" viewBox="0 0 280 811" fill="none" xmlns="http://www.w3.org/2000/svg">
<path d="M187.498 742.206C197.219 732.811 212.958 728.755 224.633 737.585C230.137 741.744 233.48 748.521 232.76 755.349C231.525 766.951 220.673 772.599 212.186 779.324C204.677 785.279 198.094 795.752 203.083 803.915C216.044 821.987 314.591 802.734 361.087 773.369C380.786 760.893 394.056 740.152 395.959 716.999C396.267 713.405 393.181 705.293 391.072 702.316C388.089 698.106 381.969 694.461 376.825 693.999C353.732 692.048 332.541 697.387 311.813 707.809C301.784 712.84 293.143 720.541 281.57 722.286C276.581 723.057 271.386 722.286 267.169 719.566C254.31 711.197 259.762 692.869 269.946 683.218C290.005 664.274 320.608 664.274 347.971 660.783C376.928 657.086 405.217 648.205 431.088 634.754C441.786 629.158 452.638 622.227 456.496 610.265C459.016 602.513 457.267 593.631 450.735 588.754C437.98 579.154 420.081 593.426 407.068 583.877C403.828 581.515 401.771 577.562 402.491 573.66C403.571 567.654 409.434 565.652 414.526 563.906C435.46 556.667 455.827 543.011 461.073 520.473C463.594 509.59 461.434 497.884 454.233 489.362C440.14 472.626 417.921 477.349 403.159 488.746C391.844 497.525 383.82 509.641 374.974 520.884C346.994 556.257 295.56 605.953 266.5 599.073C242.481 588.908 241.812 553.69 254.002 533.667C259.608 524.478 269.381 518.728 278.947 513.851C323.386 491.21 372.402 479.094 417.921 458.764C436.488 450.447 455.004 440.385 465.342 421.749C468.994 415.177 471.103 407.682 470.897 400.186C470.074 366.765 431.962 354.906 402.388 360.399C396.113 337.194 441.169 327.285 433.351 299.152C429.905 286.779 417.509 279.283 404.599 279.951C379.294 281.286 364.481 302.489 351.829 322.1C318.654 373.388 285.479 424.624 252.305 475.911C248.498 481.815 242.532 488.592 235.794 486.487C233.068 485.614 230.96 483.407 229.262 481.097C222.525 471.958 218.976 460.664 219.644 449.318C221.342 419.233 239.806 397.26 257.859 376.057C304.458 321.227 351.057 266.449 397.604 211.619C410.36 196.628 423.733 180.148 424.093 160.28C424.35 147.702 417.509 135.74 406.348 129.939C391.432 122.238 383.254 131.787 372.813 135.894C366.744 138.307 358.618 138.153 354.966 132.711C353.629 130.709 353.114 128.296 352.806 125.883C350.388 108.222 356.046 90.0484 349.668 72.5418C348.177 68.4861 345.914 64.7383 342.931 61.658C327.552 45.9483 308.264 56.7295 300.704 71.5151C295.2 82.2962 294.429 94.7716 293.4 106.888C288.514 165.671 275.45 223.735 254.722 278.924C252.202 285.649 248.601 293.299 239.806 292.529C233.686 292.016 228.645 287.292 227.051 281.388C208.946 212.543 233.788 141.593 250.607 73.6713C252.819 64.7897 250.041 55.0353 242.789 49.4394C229.571 39.1202 214.912 51.1335 208.123 63.6602C202.26 74.5441 198.351 87.4814 188.115 94.3609C182.766 75.2115 177.314 55.8567 167.182 38.7609C156.021 19.6115 138.173 3.3884 115.851 0.308064C108.908 -0.667374 101.604 0.564759 96.0494 4.87722C82.9338 15.145 88.2315 33.6783 95.1236 47.4885C123.309 103.807 170.011 152.887 179.783 215.11C181.223 224.351 181.841 234.054 166.771 241.755C161.267 244.578 154.889 245.554 148.872 244.168C132.413 240.317 122.023 225.378 115.594 210.284C108.085 192.521 104.382 172.961 90.7003 158.175C84.9912 151.963 76.0931 149.088 68.0181 151.501C50.2735 156.84 52.3823 180.867 57.5771 197.86C62.6176 214.186 67.6066 230.512 72.6471 246.837C59.9944 243.192 47.2903 239.547 34.6377 235.902C25.4311 233.232 15.1444 230.614 7.01786 238.469C0.640097 244.63 -0.645742 254.384 2.90317 262.496C10.2582 279.232 27.9513 284.571 44.4101 288.216C70.4869 294.069 96.9752 297.971 122.898 304.542C154.632 312.602 186.778 325.642 207.506 350.953C216.713 362.196 223.502 376.417 220.107 391.202C218.667 397.466 215.118 403.267 209.923 407.066C196.808 416.615 181.583 409.684 171.965 399.519C164.507 391.562 159.416 381.756 152.781 373.08C137.145 352.801 112.508 339.658 86.8942 338.272C81.9052 338.015 76.8647 340.12 74.3444 344.432C66.115 358.397 93.7349 368.51 92.1919 383.758C91.0603 394.796 75.9389 397.825 65.1378 395.104C53.3595 392.126 40.6554 385.966 30.0601 393.358C19.4648 400.751 18.7961 415.793 27.3341 425.753C42.7128 443.671 65.755 441.36 86.7913 442.9C145.271 447.213 197.271 465.952 211.312 516.674C218.564 538.545 190.687 547.221 178.549 538.853C166.411 530.484 157.667 518.163 147.637 507.382C135.653 494.445 120.017 482.842 101.45 486.179C90.2374 488.181 81.0822 497.114 80.825 508.46C80.3107 531.357 113.64 537.826 118.989 558.926C119.555 561.237 119.76 563.752 118.68 565.857C116.931 569.399 112.457 570.477 108.496 570.837C99.2383 571.607 89.8259 570.323 80.7222 572.069C71.6184 573.815 62.309 579.872 60.9202 589.011C59.6858 597.225 65.395 605.234 72.6471 609.341C79.8992 613.448 88.4372 614.424 96.7695 615.296C119.812 617.812 142.802 620.328 165.845 622.843C179.732 624.383 194.133 626.078 205.86 633.573C211.261 637.013 215.941 642.095 218.873 647.845C223.81 657.548 228.285 683.526 202.568 678.597C168.005 662.425 136.322 654.211 105.77 660.423C103.713 660.064 98.4668 662.425 98.4668 662.425C98.4668 662.425 88.2315 666.686 85.1455 671.102C77.9962 681.369 87.6143 691.74 97.5924 694.153C105.925 696.104 114.617 694.461 123.155 694.872C126.704 695.026 130.407 695.642 133.133 697.849C140.128 703.599 135.962 715.356 129.224 721.362C120.686 729.012 108.548 733.684 107.828 747.288C107.365 756.375 112.817 764.898 121.046 768.851C143.728 779.786 170.731 756.221 187.447 742.155" fill="#5B6049" fill-opacity="0.15"/>
</svg>
