<svg width="328" height="325" viewBox="0 0 328 325" fill="none" xmlns="http://www.w3.org/2000/svg">
<path d="M139.58 0.261475C136.146 30.6922 125.078 60.0477 87.2083 57.4125C67.6587 56.7737 57.128 58.1834 48.7496 68.8142C54.8476 49.1671 68.991 32.004 90.7185 26.0852C110.857 20.4739 127.128 13.5566 139.58 0.261475Z" fill="#E3E1A4" fill-opacity="0.15"/>
<path d="M-0.393551 153.885C28.1238 151.398 57.2817 151.524 85.9785 174.139C88.182 175.855 90.6929 178.212 92.179 180.568C93.9725 183.437 98.0977 190.557 99.1738 193.477C107.142 214.865 113.112 227.723 124.975 247.318C126.41 249.674 128.178 255.028 129.049 257.64C130.151 260.893 131.56 266.093 131.663 269.525C132.021 280.309 129.331 290.145 126.308 300.468C123.284 310.792 116.238 320.577 106.015 324.061C116.725 307.744 117.314 285.356 107.475 268.503C100.814 257.079 89.7961 248.038 86.1066 235.359C84.4155 229.519 82.8269 224.037 82.4682 217.992C81.7508 205.723 83.8518 193.786 77.9075 183.028C75.1659 178.085 73.3212 176.164 70.3234 172.809C66.7107 168.736 57.4867 163.46 53.7203 162.103C38.2189 156.546 21.7952 156.009 3.85972 154.858" fill="#E3E1A4" fill-opacity="0.15"/>
<path d="M318.242 146.431C294.773 151.837 278.631 129.195 261.028 116.338C253.931 111.139 248.55 108.68 240.198 105.889C231.845 103.097 216.651 104.149 209.605 109.4C201.406 115.497 197.87 121.031 197.204 131.225C196.666 139.525 202.123 151.845 206.12 159.119C212.705 171.183 228.13 175.972 241.299 179.967C259.286 185.421 276.145 184.242 294.106 189.696C299.923 191.463 306.379 196.688 310.838 200.812C318.934 208.316 327.005 220.764 327.056 231.779C327.082 238.439 326.416 245.38 324.75 251.835C323.905 255.114 321.496 259.11 320.01 261.031C317.423 264.413 316.577 265.463 313.989 267.845C293.466 286.828 259.773 291.825 228.104 282.837C200.253 274.924 174.272 258.251 160.129 232.996C141.886 200.441 141.988 157.921 116.084 131.053C103.094 117.58 84.6973 110.948 66.3006 107.517C45.188 103.599 19.7709 117.254 6.19123 124.53C15.6202 111.978 42.549 101.397 63.4822 99.3714C63.4822 99.3714 87.8488 97.0128 98.8663 98.4976C107.065 99.5983 114.854 102.672 122.259 106.308C133.917 111.994 145.165 119.396 152.468 130.102C161.102 142.781 163.255 158.585 165.535 173.749C168.225 191.602 171.428 209.583 178.756 226.079C186.084 242.574 197.972 257.635 214.242 265.497C228.488 272.386 244.861 273.256 260.695 273.203C268.946 273.203 277.555 272.843 284.857 269.001C294.03 264.184 299.948 253.784 299.385 243.436C298.488 226.786 282.91 214.697 267.357 208.628C251.83 202.558 234.638 199.845 221.007 190.24C210.502 182.838 202.636 173.592 198.357 161.476C194.59 150.795 191.977 142.086 194.385 130.201C195.359 125.334 196.717 118.008 198.485 113.628C208.58 88.4476 240.889 80.2226 258.569 89.0327C265.563 92.5157 265.717 92.8231 269.176 96.4089C273.173 100.533 276.683 104.375 280.347 109.395C292.415 125.941 298.77 141.719 318.217 146.354" fill="#E3E1A4" fill-opacity="0.15"/>
</svg>
