<svg width="167" height="168" viewBox="0 0 167 168" fill="none" xmlns="http://www.w3.org/2000/svg">
<path d="M166.193 101.767C150.839 102.669 135.818 107.429 136.12 126.495C135.914 136.318 134.924 141.562 129.366 145.478C139.384 142.949 148.373 136.318 151.926 125.579C155.283 115.629 159.19 107.655 166.193 101.767Z" fill="#E3E1A4" fill-opacity="0.15"/>
<path d="M85.3781 167.834C87.3932 153.597 88.1153 138.968 77.5456 123.965C76.7444 122.813 75.6302 121.49 74.4884 120.681C73.0979 119.704 69.6378 117.443 68.2024 116.825C57.6904 112.251 51.4024 108.91 41.8948 102.431C40.7516 101.648 38.1143 100.617 36.8275 100.11C35.2257 99.4693 32.6558 98.6222 30.9371 98.4783C25.5384 98.0076 20.5328 99.0918 15.2742 100.33C10.0155 101.568 4.91809 104.838 2.89528 109.872C11.3673 104.94 22.6111 105.248 30.7988 110.638C36.3487 114.287 40.5864 120.057 46.8459 122.25C49.7293 123.255 52.4356 124.2 55.4577 124.543C61.5919 125.234 67.635 124.502 72.8703 127.773C75.2757 129.282 76.1894 130.259 77.7915 131.853C79.7367 133.775 82.1343 138.544 82.7136 140.469C85.0833 148.395 84.9102 156.647 85.0046 165.674" fill="#E3E1A4" fill-opacity="0.15"/>
<path d="M97.6961 8.21148C94.3525 19.8378 105.274 28.5449 111.248 37.7206C113.664 41.4207 114.752 44.1859 115.927 48.4508C117.103 52.7157 116.166 60.3084 113.343 63.701C110.064 67.6491 107.194 69.2734 102.063 69.3327C97.8861 69.3788 91.8541 66.3092 88.3135 64.1082C82.4403 60.48 80.454 52.6142 78.8051 45.9008C76.5538 36.7318 77.5994 28.3072 75.3474 19.1512C74.6179 16.1862 72.1713 12.8067 70.2232 10.4593C66.6775 6.19584 60.6518 1.81192 55.1292 1.48923C51.7897 1.29681 48.2904 1.44378 45.0081 2.10508C43.341 2.44078 41.272 3.54109 40.2684 4.23468C38.5029 5.44152 37.9534 5.83731 36.6889 7.07109C26.6162 16.8534 23.2025 33.6186 26.8576 49.7456C30.0762 63.9287 37.7386 77.4099 50.0239 85.1849C65.8599 95.2131 87.1878 96.3082 99.9653 110.026C106.372 116.905 109.203 126.311 110.429 135.631C111.825 146.326 104.292 158.707 100.278 165.322C106.827 160.931 112.859 147.71 114.438 137.264C114.438 137.264 116.277 125.106 115.829 119.54C115.498 115.398 114.166 111.408 112.542 107.596C110.004 101.595 106.595 95.7534 101.422 91.802C95.2956 87.1291 87.4273 85.6234 79.8837 84.0708C71.0022 82.24 62.0703 80.1487 53.9948 76.0283C45.9192 71.908 38.6861 65.5387 35.1809 57.1659C32.1094 49.8346 32.1141 41.599 32.5668 33.6581C32.7893 29.5198 33.2013 25.2114 35.3252 21.6523C37.9877 17.1812 43.363 14.4929 48.5378 15.0547C56.8638 15.9534 62.5073 24.0932 65.1325 32.0578C67.7584 40.0096 68.6565 48.7062 73.1064 55.8023C76.5358 61.271 80.9612 65.4658 86.9222 67.9387C92.1777 70.1159 96.475 71.6616 102.501 70.774C104.968 70.4169 108.679 69.9333 110.923 69.1646C123.823 64.78 128.818 48.7958 124.876 39.6906C123.317 36.0882 123.167 36.0028 121.462 34.1712C119.502 32.0551 117.669 30.1909 115.25 28.2177C107.277 21.7184 99.5347 18.1058 97.7339 8.22641" fill="#E3E1A4" fill-opacity="0.15"/>
</svg>
