<svg width="227" height="260" viewBox="0 0 227 260" fill="none" xmlns="http://www.w3.org/2000/svg">
<path d="M27.2562 69.0448C44.967 98.2801 34.5608 102.504 39.1947 115.277C42.9335 122.68 39.5856 143.582 48.4823 154.842C55.7446 165.678 52.764 179.521 47.8964 193.918C47.6852 179.693 39.6742 167.018 27.1567 155.218C15.9198 144.809 22.1659 128.869 25.4791 116.435C27.5719 107.29 25.8664 103.396 29.041 95.9006C30.8099 91.6397 31.8938 83.1632 27.2729 69.0535L27.2562 69.0448Z" fill="#E3E1A4" fill-opacity="0.15"/>
<path d="M57.8026 83.4443C53.6533 117.362 64.8864 116.959 65.904 130.494C65.5338 138.788 77.17 156.462 73.6806 170.382C71.5111 183.24 79.9151 194.628 90.2604 205.767C84.6157 192.723 86.7157 177.867 93.2826 161.966C99.2537 147.866 87.0183 135.893 78.9047 125.915C73.238 118.447 73.1966 114.182 67.2281 108.646C63.861 105.487 59.3758 98.2071 57.8194 83.453L57.8026 83.4443Z" fill="#E3E1A4" fill-opacity="0.15"/>
<path d="M81.1835 106.781C105.166 131.134 111.817 122.079 123.073 129.705C129.322 135.152 150.425 137.048 159.151 148.432C167.861 158.123 182.007 158.638 197.161 157.46C183.43 153.771 173.106 142.878 164.744 127.845C157.431 114.403 140.442 116.524 127.563 116.689C118.184 116.479 114.834 113.862 106.777 115.086C102.206 115.757 93.7205 114.732 81.1922 106.764L81.1835 106.781Z" fill="#E3E1A4" fill-opacity="0.15"/>
<path d="M146.062 256.335C149.628 224.068 138.121 223.578 136.803 210.464C137.02 202.525 124.73 184.603 128.021 171.515C129.989 159.344 121.146 147.714 110.307 136.184C116.351 149.174 114.512 163.294 108.107 178.037C102.27 191.107 115.052 203.594 123.595 213.838C129.572 221.471 129.685 225.567 135.904 231.37C139.418 234.678 144.163 242.038 146.062 256.335Z" fill="#E3E1A4" fill-opacity="0.15"/>
<path d="M46.138 77.0132C69.2467 92.0208 72.1086 83.9789 82.1016 88.0904C87.9295 91.3144 103.882 89.422 112.841 96.8332C121.431 102.944 131.968 101.092 142.85 97.7979C131.905 97.1144 121.87 90.3372 112.349 80.0743C103.943 70.8614 91.9114 75.1772 82.4776 77.3267C75.519 78.6531 72.4805 77.1576 66.8273 79.3763C63.6177 80.6276 57.1372 81.1579 46.138 77.0132Z" fill="#E3E1A4" fill-opacity="0.15"/>
<path d="M102.545 51.5414C76.7426 43.0641 75.3318 51.8822 64.6086 50.5677C58.2043 48.9842 42.6202 55.3326 32.3012 50.4544C22.6142 46.7793 12.4274 51.5647 2.15637 57.9054C13.2012 55.528 24.4576 59.4653 35.8414 67.0509C45.909 73.8878 57.1322 66.2087 66.1684 61.4218C72.8791 58.154 76.1937 58.7911 81.4323 54.9921C84.4192 52.8574 90.7854 50.4979 102.536 51.5582L102.545 51.5414Z" fill="#E3E1A4" fill-opacity="0.15"/>
<path d="M122.869 151.368C108.44 132.667 93.8536 113.82 76.2669 97.9119C67.828 90.2805 58.684 83.3485 48.8008 77.6736C38.9175 71.9987 27.7801 67.505 17.1999 62.5549C5.46924 57.0703 -5.92557 50.6943 -14.5917 40.8766C-16.6023 38.5939 -19.8056 42.0872 -17.803 44.3444C-2.43187 61.7656 20.5926 68.3285 40.6131 78.6164C60.6336 88.9043 78.3759 105.128 93.5618 122.496C102.409 132.621 110.647 143.261 118.86 153.909C120.708 156.299 124.716 153.8 122.86 151.384L122.869 151.368Z" fill="#E3E1A4" fill-opacity="0.15"/>
</svg>
