<svg width="199" height="274" viewBox="0 0 199 274" fill="none" xmlns="http://www.w3.org/2000/svg">
<g clip-path="url(#clip0_28_22)">
<path d="M142.315 273.522C144.437 254.716 151.278 236.575 174.681 238.207C186.762 238.603 193.27 237.733 198.448 231.164C194.68 243.305 185.939 253.911 172.512 257.567C160.066 261.033 150.011 265.307 142.315 273.522Z" fill="#E3E1A4" fill-opacity="0.15"/>
<path d="M5.60175 193.565C20.106 190.226 30.0816 204.22 40.9598 212.168C45.346 215.381 48.6712 216.901 53.8332 218.627C58.9952 220.353 68.3849 219.704 72.7394 216.459C77.8064 212.692 79.9915 209.272 80.4032 202.972C80.7357 197.843 77.363 190.229 74.8928 185.733C70.8234 178.277 61.2911 175.316 53.1523 172.846C42.0366 169.474 31.6176 170.201 20.5177 166.829C16.9233 165.736 12.933 162.507 10.1779 159.958C5.17422 155.32 0.186401 147.626 0.154732 140.819C0.138897 136.703 0.55059 132.413 1.57982 128.424C2.10236 126.398 3.59078 123.928 4.50918 122.741C6.10844 120.652 6.63098 120.003 8.23025 118.53C20.9136 106.801 41.7357 103.715 61.307 109.272C78.5189 114.165 94.5749 124.471 103.315 140.08C114.59 160.201 114.526 186.479 130.535 203.085C138.563 211.412 149.932 215.513 161.301 217.635C174.348 220.057 190.056 211.621 198.448 207.125C192.621 214.882 175.979 221.419 163.043 222.669C163.043 222.669 147.984 224.124 141.175 223.206C136.108 222.525 131.295 220.625 126.719 218.377C119.514 214.862 112.563 210.287 108.05 203.67C102.714 195.834 101.384 186.066 99.9744 176.695C98.3118 165.661 96.3325 154.548 91.8039 144.353C87.2753 134.159 79.9282 124.85 69.8733 119.99C61.0695 115.731 50.9513 115.192 41.1657 115.224C36.067 115.223 30.7467 115.445 26.2339 117.819C20.5652 120.795 16.9075 127.222 17.2558 133.617C17.81 143.907 27.4373 151.379 37.0488 155.131C46.6444 158.883 57.2692 160.562 65.6931 166.499C72.1852 171.074 77.0463 176.789 79.6906 184.277C82.0183 190.878 83.6334 196.26 82.145 203.605C81.5433 206.613 80.704 211.14 79.6115 213.847C73.3727 229.408 53.4056 234.489 42.4799 229.043C38.1572 226.889 38.0622 226.699 35.9245 224.483C33.4544 221.934 31.2851 219.56 29.0207 216.457C21.5628 206.23 17.6358 196.479 5.61758 193.613" fill="#E3E1A4" fill-opacity="0.15"/>
<path d="M198.448 105.943C180.825 107.477 162.805 107.397 145.071 93.4186C143.709 92.3579 142.157 90.9014 141.239 89.445C140.13 87.672 137.581 83.2711 136.916 81.4664C131.991 68.248 128.302 60.301 120.971 48.1906C120.084 46.7342 118.991 43.4256 118.453 41.8109C117.772 39.8005 116.901 36.5869 116.838 34.4656C116.616 27.8011 118.279 21.7224 120.147 15.343C122.016 8.9635 126.37 2.91658 132.688 0.763976C126.069 10.8475 125.705 24.683 131.786 35.0996C135.903 42.16 142.711 47.7484 144.991 55.5844C146.037 59.1938 147.018 62.5815 147.24 66.3174C147.683 73.9001 146.385 81.2769 150.058 87.9257C151.753 90.981 152.893 92.1683 154.745 94.2422C156.978 96.7593 162.678 100.021 165.006 100.86C174.586 104.295 184.736 104.628 195.82 105.341" fill="#E3E1A4" fill-opacity="0.15"/>
</g>
<defs>
<clipPath id="clip0_28_22">
<rect width="272.758" height="198.294" fill="white" transform="matrix(-4.37114e-08 -1 1 4.77966e-05 0.154297 273.516)"/>
</clipPath>
</defs>
</svg>
