<svg width="238" height="624" viewBox="0 0 238 624" fill="none" xmlns="http://www.w3.org/2000/svg">
<path d="M61.53 397.934C51.61 414.254 52.15 442.984 71.68 451.264C95.3 456.884 137.16 416.394 159.92 387.544C167.13 378.414 173.67 368.504 182.86 361.374C194.83 352.064 212.93 348.204 224.4 361.854C230.25 368.814 232.02 378.364 229.96 387.224C225.69 405.624 209.11 416.744 192.1 422.644C187.93 424.084 183.17 425.704 182.3 430.604C181.72 433.804 183.41 437.014 186.03 438.934C196.6 446.714 211.17 435.074 221.54 442.894C226.85 446.894 228.27 454.114 226.24 460.444C223.11 470.184 214.26 475.854 205.56 480.394C184.5 491.384 161.49 498.604 137.94 501.624C115.67 504.474 90.77 504.484 74.45 519.904C66.15 527.754 61.73 542.694 72.19 549.514C75.61 551.744 79.88 552.324 83.92 551.714C93.33 550.294 100.38 544.024 108.52 539.914C125.36 531.424 142.62 527.074 161.41 528.674C165.61 529.034 170.59 531.994 173.02 535.444C174.72 537.854 177.22 544.474 176.98 547.414C175.43 566.314 164.64 583.224 148.62 593.374C120.95 610.894 70.6 623.984 41.43 623.984C30.74 623.984 22.89 622.224 20.06 618.274C16.01 611.604 21.35 603.074 27.46 598.214C34.38 592.734 43.22 588.134 44.2 578.674C44.79 573.084 42.07 567.574 37.58 564.174C28.08 556.974 15.26 560.294 7.36 567.944C5.12 569.844 2.65 571.944 0 574.104V507.904C6.43 510.234 12.97 512.994 19.65 516.124C40.58 520.154 36.96 498.954 32.92 491.064C30.53 486.384 26.75 482.254 22.35 479.434C15.66 475.164 7.91 473.204 0 471.994V402.114C0 402.114 0.09 402.184 0.14 402.214C10.01 409.044 32.68 401.964 26.79 384.144C22.23 367.644 12.76 355.294 0 346.204V293.224C7.5 298.644 17.12 300.994 25.64 294.774C29.88 291.684 32.75 286.954 33.93 281.844C36.7 269.804 31.16 258.214 23.67 249.034C17.03 240.894 8.95 234.324 0 228.944V14.1239C3.08 22.5239 5.52 31.2039 7.93 39.8239C16.29 34.1839 19.44 23.6539 24.23 14.7839C29.75 4.55392 41.68 -5.22608 52.44 3.18392C58.33 7.78392 60.59 15.7039 58.8 22.9539C45.11 78.3039 24.9 136.154 39.62 192.274C40.89 197.104 45.01 200.934 49.99 201.364C57.14 201.994 60.08 195.754 62.14 190.264C79.03 145.274 89.66 97.9339 93.62 50.0439C94.43 40.2039 95.05 30.0239 99.54 21.2239C105.69 9.18392 121.39 0.373919 133.89 13.1839C136.34 15.6939 138.18 18.7739 139.38 22.0639C144.56 36.3439 139.94 51.1239 141.92 65.5339C142.19 67.4739 142.6 69.4539 143.69 71.0939C146.63 75.5239 153.24 75.6239 158.19 73.6739C166.68 70.3239 173.34 62.5239 185.49 68.8139C194.59 73.5339 200.13 83.3039 199.94 93.5539C199.62 109.764 188.74 123.194 178.37 135.414C140.46 180.084 102.56 224.754 64.66 269.424C49.99 286.714 34.95 304.614 33.56 329.134C33.04 338.374 35.92 347.574 41.4 355.034C42.79 356.914 44.48 358.724 46.7 359.414C52.19 361.124 57.03 355.614 60.15 350.784C87.13 309.004 114.12 267.224 141.11 225.444C151.43 209.474 163.46 192.164 184.05 191.084C194.52 190.544 204.61 196.654 207.42 206.754C213.8 229.664 177.15 237.764 182.25 256.664C206.32 252.204 237.32 261.854 238 289.114C238.15 295.254 236.43 301.334 233.46 306.704C225.07 321.884 210 330.104 194.9 336.874C157.87 353.464 117.98 363.334 81.84 381.774C74.02 385.754 66.08 390.444 61.53 397.934Z" fill="#E3E1A4" fill-opacity="0.15"/>
</svg>
