<svg width="338" height="409" viewBox="0 0 338 409" fill="none" xmlns="http://www.w3.org/2000/svg">
<g clip-path="url(#clip0_28_17)">
<path d="M60.29 57.2383C66.3089 87.2648 64.7287 118.598 27.8621 127.647C9.0504 133.006 -0.547451 137.563 -5.28116 150.244C-5.47103 129.673 2.75869 109.012 21.6427 96.7437C39.1079 85.2531 52.4901 73.6998 60.29 57.2383Z" fill="#E3E1A4" fill-opacity="0.15"/>
<path d="M-26.1125 246.255C0.284847 235.183 28.0897 226.402 62.3199 239.18C64.942 240.141 68.0524 241.619 70.1868 243.409C72.7704 245.593 78.8721 251.115 80.7882 253.567C94.9046 271.502 104.514 281.924 121.792 296.963C123.878 298.769 127.195 303.327 128.822 305.549C130.864 308.311 133.793 312.832 134.939 316.069C138.572 326.229 139.012 336.417 139.284 347.17C139.556 357.924 135.833 369.393 127.161 375.831C132.379 357.024 126.107 335.525 111.594 322.478C101.763 313.633 88.5116 308.386 81.128 297.438C77.7351 292.393 74.5492 287.658 72.3625 282.011C67.9343 270.546 66.2916 258.538 57.3473 250.108C53.2277 246.237 50.8846 244.971 47.0058 242.691C42.3224 239.915 31.9283 237.707 27.9273 237.564C11.4695 237.003 -4.3343 241.505 -21.7652 245.884" fill="#E3E1A4" fill-opacity="0.15"/>
<path d="M275.042 141.899C254.343 154.211 232.06 137.577 211.373 130.706C203.028 127.921 197.153 127.222 188.347 127.113C179.541 127.005 165.393 132.644 160.286 139.795C154.339 148.104 152.661 154.452 155.139 164.364C157.159 172.431 166.117 182.498 172.144 188.205C182.097 197.683 198.247 197.536 212.007 197.32C230.8 197.024 246.495 190.755 265.264 190.467C271.342 190.374 279.085 193.379 284.59 195.945C294.59 200.62 306.076 210.01 309.486 220.484C311.544 226.818 313.028 233.631 313.412 240.287C313.608 243.667 312.534 248.208 311.705 250.491C310.273 254.501 309.789 255.759 308.052 258.818C294.302 283.158 263.742 298.202 230.841 299.309C201.904 300.275 172.073 292.327 150.896 272.595C123.587 247.161 110.706 206.639 77.8376 188.96C61.3549 180.095 41.8117 179.394 23.2457 181.742C1.94497 184.456 -18.0913 205.217 -28.8022 216.291C-23.6545 201.46 -1.2405 183.164 18.0756 174.846C18.0756 174.846 40.5595 165.163 51.5044 163.214C59.6481 161.759 68.0036 162.308 76.165 163.511C89.0021 165.367 101.973 168.982 112.194 176.949C124.287 186.387 131.16 200.78 137.96 214.524C145.972 230.704 154.51 246.85 166.523 260.322C178.536 273.793 194.455 284.506 212.348 287.027C228.017 289.239 243.874 285.07 258.936 280.187C266.793 277.668 274.881 274.698 280.662 268.81C287.927 261.423 290.389 249.713 286.693 240.031C280.757 224.449 262.233 217.692 245.57 216.66C228.931 215.619 211.731 218.282 195.819 213.297C183.556 209.455 173.243 203.051 165.47 192.819C158.623 183.798 153.476 176.302 152.142 164.249C151.584 159.317 150.641 151.926 150.987 147.215C152.915 120.155 181.172 102.461 200.696 105.454C208.421 106.636 208.661 106.882 213.049 109.241C218.114 111.948 222.63 114.535 227.651 118.197C244.194 130.27 255.061 143.356 274.994 141.833" fill="#E3E1A4" fill-opacity="0.15"/>
</g>
<defs>
<clipPath id="clip0_28_17">
<rect width="323.849" height="327.45" fill="white" transform="matrix(0.305232 0.952278 -0.952253 0.305309 238.815 0)"/>
</clipPath>
</defs>
</svg>
