<svg width="244" height="661" viewBox="0 0 244 661" fill="none" xmlns="http://www.w3.org/2000/svg">
<path d="M13.0237 604.985C20.9461 597.327 33.7729 594.021 43.2881 601.219C47.7733 604.609 50.4979 610.133 49.9111 615.698C48.9051 625.156 40.0605 629.759 33.1441 635.241C27.0242 640.095 21.6587 648.632 25.7247 655.285C36.2879 670.015 116.602 654.323 154.495 630.386C170.549 620.218 181.364 603.311 182.915 584.439C183.167 581.509 180.652 574.897 178.933 572.47C176.502 569.039 171.514 566.068 167.322 565.691C148.501 564.101 131.231 568.453 114.338 576.948C106.164 581.049 99.1221 587.326 89.6907 588.749C85.6247 589.376 81.3911 588.749 77.9538 586.531C67.4745 579.71 71.9177 564.771 80.2174 556.903C96.5652 541.462 121.506 541.462 143.806 538.616C167.406 535.603 190.46 528.364 211.545 517.4C220.264 512.839 229.108 507.189 232.252 497.439C234.306 491.12 232.881 483.881 227.557 479.905C217.162 472.08 202.574 483.713 191.969 475.93C189.328 474.005 187.652 470.782 188.239 467.602C189.119 462.706 193.897 461.074 198.047 459.651C215.108 453.751 231.707 442.62 235.983 424.249C238.036 415.377 236.276 405.836 230.408 398.89C218.922 385.247 200.814 389.097 188.784 398.387C179.562 405.543 173.023 415.419 165.813 424.583C143.01 453.416 101.092 493.924 77.4089 488.316C57.8335 480.031 57.2885 451.324 67.223 435.003C71.792 427.513 79.7563 422.826 87.5529 418.85C123.77 400.396 163.717 390.52 200.814 373.949C215.946 367.17 231.036 358.968 239.462 343.777C242.438 338.421 244.156 332.311 243.989 326.202C243.318 298.959 212.257 289.293 188.155 293.77C183.041 274.855 219.76 266.779 213.389 243.847C210.581 233.762 200.478 227.652 189.957 228.196C169.334 229.284 157.262 246.567 146.95 262.552C119.913 304.357 92.8764 346.121 65.8397 387.926C62.7378 392.738 57.8754 398.262 52.3842 396.546C50.1626 395.835 48.444 394.035 47.0607 392.152C41.5695 384.703 38.6772 375.497 39.2221 366.249C40.6054 341.727 55.6538 323.816 70.3668 306.534C108.344 261.841 146.321 217.19 184.256 172.498C194.652 160.279 205.551 146.846 205.844 130.651C206.054 120.399 200.478 110.648 191.382 105.92C179.226 99.6426 172.561 107.426 164.052 110.774C159.106 112.741 152.483 112.615 149.507 108.179C148.417 106.547 147.998 104.581 147.746 102.614C145.776 88.2184 150.387 73.4046 145.189 59.1348C143.974 55.8289 142.129 52.7741 139.698 50.2633C127.165 37.4581 111.446 46.246 105.284 58.2979C100.799 67.0857 100.17 77.2545 99.3317 87.1304C95.3496 135.045 84.7026 182.374 67.8098 227.359C65.7559 232.841 62.8217 239.076 55.6538 238.449C50.6656 238.03 46.5577 234.18 45.2583 229.368C30.5033 173.251 50.7494 115.419 64.4564 60.0555C66.2589 52.8159 63.9953 44.865 58.085 40.3037C47.3122 31.8925 35.3657 41.6847 29.8326 51.8953C25.054 60.7668 21.8683 71.3123 13.5268 76.9197C9.16734 61.3109 4.72411 45.5346 -3.53363 31.5996C-12.6297 15.9907 -27.1751 2.76709 -45.3672 0.25628C-51.0261 -0.53881 -56.9784 0.465515 -61.5054 3.98065C-72.1944 12.35 -67.8769 27.4567 -62.26 38.7136C-39.2892 84.6196 -1.22818 124.625 6.73613 175.344C7.90982 182.876 8.41283 190.785 -3.86897 197.062C-8.35414 199.364 -13.5519 200.159 -18.4562 199.029C-31.8698 195.89 -40.3371 183.713 -45.5768 171.41C-51.6968 156.931 -54.7148 140.987 -65.8649 128.935C-70.5177 123.872 -77.7694 121.528 -84.3504 123.495C-98.812 127.847 -97.0933 147.432 -92.8597 161.283C-88.7518 174.59 -84.6858 187.898 -80.5779 201.205C-90.8896 198.234 -101.243 195.263 -111.555 192.292C-119.058 190.116 -127.442 187.981 -134.065 194.384C-139.262 199.406 -140.31 207.356 -137.418 213.968C-131.424 227.61 -117.004 231.962 -103.591 234.934C-82.3384 239.704 -60.7509 242.884 -39.6245 248.241C-13.7615 254.811 12.4369 265.44 29.3296 286.07C36.8329 295.235 42.3659 306.826 39.5994 318.878C38.4257 323.984 35.5334 328.712 31.2997 331.809C20.6108 339.593 8.20325 333.943 0.364685 325.658C-5.71333 319.171 -9.86317 311.178 -15.2705 304.106C-28.0134 287.577 -48.0919 276.864 -68.9667 275.734C-73.0327 275.525 -77.1406 277.241 -79.1946 280.756C-85.9014 292.138 -63.3917 300.382 -64.6493 312.811C-65.5714 321.808 -77.8952 324.277 -86.6978 322.059C-96.2969 319.632 -106.651 314.61 -115.286 320.636C-123.92 326.662 -124.465 338.923 -117.507 347.041C-104.974 361.646 -86.1948 359.763 -69.0506 361.018C-21.3905 364.533 20.9881 379.807 32.4315 421.152C38.3419 438.979 15.6226 446.051 5.73012 439.23C-4.1624 432.409 -11.2884 422.366 -19.4623 413.578C-29.229 403.032 -41.9719 393.575 -57.1041 396.295C-66.2421 397.927 -73.7034 405.208 -73.913 414.457C-74.3322 433.12 -47.1697 438.393 -42.8103 455.592C-42.3492 457.475 -42.1815 459.526 -43.0618 461.241C-44.487 464.129 -48.1338 465.008 -51.3614 465.301C-58.9066 465.928 -66.5775 464.882 -73.9968 466.305C-81.4162 467.728 -89.0033 472.666 -90.135 480.114C-91.1411 486.81 -86.4882 493.338 -80.5779 496.686C-74.6675 500.033 -67.7092 500.828 -60.9186 501.54C-42.1396 503.59 -23.4025 505.641 -4.62349 507.691C6.69421 508.947 18.4311 510.328 27.9883 516.437C32.3896 519.241 36.2041 523.384 38.5934 528.071C42.6174 535.98 46.2643 557.154 25.3055 553.137C-2.86296 539.955 -28.6841 533.26 -53.583 538.323C-55.2597 538.03 -59.5353 539.955 -59.5353 539.955C-59.5353 539.955 -67.8769 543.429 -70.3919 547.027C-76.2185 555.397 -68.3799 563.85 -60.2479 565.817C-53.4573 567.407 -46.3733 566.068 -39.415 566.403C-36.5227 566.528 -33.5046 567.03 -31.283 568.83C-25.5822 573.516 -28.9775 583.099 -34.4687 587.995C-41.427 594.231 -51.3195 598.039 -51.9063 609.128C-52.2836 616.535 -47.8404 623.482 -41.1336 626.704C-22.648 635.617 -0.641342 616.409 12.9818 604.943" fill="#5B6049" fill-opacity="0.15"/>
</svg>
