<svg width="273" height="190" viewBox="0 0 273 190" fill="none" xmlns="http://www.w3.org/2000/svg">
<path d="M268.802 7.2206C260.082 11.03 252.57 16.6019 245.654 23.0409C248.154 34.2843 248.764 44.8169 242.516 52.72C234.038 61.8596 235.515 80.2101 231.766 86.3648C226.895 97.1106 235.614 101.489 218.289 125.61C223.259 113.713 222.89 106.293 221.655 102.469C219.425 95.7603 221.172 92.5053 219.979 84.4316C217.948 73.4299 213.645 59.2016 224.069 50.9574C233.669 43.2249 240.655 34.7675 243.453 25.1304C238.014 30.4038 232.902 36.1747 227.789 41.9457C227.761 41.9599 227.747 41.9883 227.733 42.0167C222.535 47.8587 217.352 53.715 211.799 59.0737C204.912 68.2986 203.52 74.695 203.747 78.2627C204.187 84.8865 201.645 87.573 200.736 95.2628C199.884 105.81 200.424 119.782 188.069 125.496C174.223 132.049 163.871 140.293 159.568 151.465C159.696 139.028 161.243 127.444 170.432 120.493C181.096 113.585 184.391 96.3431 189.645 91.3255C195.724 84.0479 192.131 78.9734 202.512 67.3321C191.193 76.5997 178.654 84.19 165.475 90.7711C157.352 98.93 154.555 105.54 153.887 109.704C152.51 118.489 148.69 121.132 145.381 130.841C141.319 144.316 137.94 162.737 121.538 165.935C103.119 169.716 88.3924 176.909 80.028 190C83.7771 173.81 88.9604 159.226 101.926 153.327C116.667 147.997 125.571 126.619 133.296 121.886C142.328 114.736 139.999 107.174 154.015 96.2009C147.88 98.9585 141.646 101.56 135.369 104.033C120.884 112.277 106.811 118.233 94.7118 113.258C81.6327 106.449 59.4791 115.035 51.1006 112.817C36.8286 110.941 33.4203 123.051 0.00537109 111.168C15.6975 112.732 24.7009 109.548 29.1032 106.634C36.8286 101.46 41.2025 102.356 50.8165 97.9208C63.8531 91.3966 80.3404 80.935 92.7663 90.4158C100.861 96.4568 109.097 100.849 117.533 102.882C143.975 92.9885 170.403 82.0579 192.784 65.4842C182.062 64.4324 175.501 66.2944 171.951 68.2844C164.212 72.6766 159.767 71.3262 150.124 74.7803C137.045 79.9684 120.543 88.7812 107.834 77.9216C93.4195 65.8396 78.6363 58.761 63.1856 60.3529C78.1819 53.2317 92.8089 48.2141 105.49 54.7099C118.839 62.9399 141.092 56.6146 149.599 59.7275C163.075 62.8973 166.824 52.8195 194.786 63.9918C199.26 60.5946 203.562 56.9416 207.667 53.0185C210.592 50.2325 213.404 47.3044 216.173 44.3052C191.279 47.9867 188.921 38.6196 175.913 39.1739C166.967 40.638 146.276 30.2617 131.634 35.8478C117.973 39.842 104.525 32.1806 91.1332 22.3728C106.016 26.8361 121.864 22.6571 138.266 13.489C152.794 5.18798 167.364 16.9431 179.222 24.4907C188.069 29.6931 192.684 29.1956 199.458 34.9523C202.497 37.5251 208.391 40.4958 218.687 41.5477C232.902 25.8411 246.151 8.89787 265.323 0.539968C273.176 -1.70586 276.144 3.58179 268.802 7.2206Z" fill="#E3E1A4" fill-opacity="0.15"/>
</svg>
