<svg width="49" height="147" viewBox="0 0 49 147" fill="none" xmlns="http://www.w3.org/2000/svg">
<path d="M4.73321 6.98953C11.6612 7.1293 18.6173 7.18521 25.5453 7.52065C30.8185 7.77222 37.9428 8.13564 40.1867 13.6703C42.2904 18.8695 40.1867 23.8451 35.166 26.3329C30.1453 28.8207 24.1148 28.4014 18.8136 28.5691C13.2039 28.7648 8.35149 29.8549 4.48077 34.2715C1.47957 37.7097 0.722254 42.4337 1.08689 46.9061C1.92835 57.1928 10.1747 62.1404 19.8514 62.2802C28.0978 62.392 42.8513 60.2116 41.9538 73.014C41.5331 78.8562 37.4099 82.2944 31.7721 82.7416C26.7234 83.133 21.7307 82.8255 16.6539 83.5523C12.3624 84.1672 8.29539 84.9499 5.37833 88.416C2.76981 91.5468 1.59176 95.6558 1.39542 99.653C0.918596 109.129 7.48198 115.614 16.6258 116.844C21.927 117.543 27.5087 116.229 32.7258 117.431C38.5319 118.773 43.3282 123.553 41.8416 129.786C40.1867 136.774 34.1282 138.871 27.677 139.346C19.599 139.933 11.4929 140.129 3.38688 139.961C-1.12896 139.877 -1.12896 146.865 3.38688 146.949C11.0161 147.089 18.6734 146.949 26.3026 146.418C32.4172 145.999 38.2794 145.384 42.9635 141.107C51.3501 133.476 51.0696 120.394 41.6733 113.853C37.3538 110.834 32.3331 110.051 27.2002 110.051C22.0673 110.051 16.0088 111.03 11.7173 107.927C8.26734 105.411 7.84661 100.911 8.82832 97.0535C10.0905 91.9381 13.232 91.0436 18.0563 90.3728C28.6587 88.8913 41.6172 92.0499 47.1989 80.2259C51.6025 70.8617 47.4513 59.3731 37.3258 56.1865C32.2209 54.5652 26.6673 55.292 21.3941 55.3199C16.4856 55.3479 10.8198 54.8167 8.74417 49.5896C6.89296 44.8935 8.09905 38.9676 12.7551 36.5636C15.4478 35.194 18.8136 35.5853 21.7588 35.4734C24.9844 35.3616 28.2099 35.1659 31.4075 34.6628C44.1416 32.6222 52.3037 20.6026 45.516 8.61084C42.3745 3.07619 35.7831 1.56668 29.8648 0.867859C21.5905 -0.110489 13.0637 0.197006 4.73321 0.00132751C0.217378 -0.110474 0.217378 6.87772 4.73321 6.98953Z" fill="#5B6049" fill-opacity="0.15"/>
</svg>
