<svg width="49" height="147" viewBox="0 0 49 147" fill="none" xmlns="http://www.w3.org/2000/svg">
<path d="M44.2668 6.98953C37.3388 7.1293 30.3827 7.18521 23.4547 7.52065C18.1815 7.77222 11.0572 8.13564 8.81327 13.6703C6.70963 18.8695 8.81328 23.8451 13.834 26.3329C18.8547 28.8207 24.8852 28.4014 30.1864 28.5691C35.7961 28.7648 40.6485 29.8549 44.5192 34.2715C47.5204 37.7097 48.2777 42.4337 47.9131 46.9061C47.0717 57.1928 38.8253 62.1404 29.1486 62.2802C20.9022 62.392 6.14865 60.2116 7.04621 73.014C7.46694 78.8562 11.5901 82.2944 17.2279 82.7416C22.2766 83.133 27.2693 82.8255 32.3461 83.5523C36.6376 84.1672 40.7046 84.9499 43.6217 88.416C46.2302 91.5468 47.4082 95.6558 47.6046 99.653C48.0814 109.129 41.518 115.614 32.3742 116.844C27.073 117.543 21.4913 116.229 16.2742 117.431C10.4681 118.773 5.67183 123.553 7.1584 129.786C8.81327 136.774 14.8718 138.871 21.323 139.346C29.401 139.933 37.5071 140.129 45.6131 139.961C50.129 139.877 50.129 146.865 45.6131 146.949C37.9839 147.089 30.3266 146.949 22.6974 146.418C16.5828 145.999 10.7206 145.384 6.03646 141.107C-2.35009 133.476 -2.0696 120.394 7.3267 113.853C11.6462 110.834 16.6669 110.051 21.7998 110.051C26.9327 110.051 32.9912 111.03 37.2827 107.927C40.7327 105.411 41.1534 100.911 40.1717 97.0535C38.9095 91.9381 35.768 91.0436 30.9437 90.3728C20.3413 88.8913 7.38279 92.0499 1.80111 80.2259C-2.60253 70.8617 1.54867 59.3731 11.6742 56.1865C16.7791 54.5652 22.3327 55.292 27.6059 55.3199C32.5144 55.3479 38.1802 54.8167 40.2558 49.5896C42.107 44.8935 40.9009 38.9676 36.2449 36.5636C33.5522 35.194 30.1864 35.5853 27.2412 35.4734C24.0156 35.3616 20.7901 35.1659 17.5925 34.6628C4.85842 32.6222 -3.30375 20.6026 3.48403 8.61084C6.62548 3.07619 13.2169 1.56668 19.1352 0.867859C27.4095 -0.110489 35.9363 0.197006 44.2668 0.00132751C48.7826 -0.110474 48.7826 6.87772 44.2668 6.98953Z" fill="#5B6049" fill-opacity="0.15"/>
</svg>
