<svg width="273" height="190" viewBox="0 0 273 190" fill="none" xmlns="http://www.w3.org/2000/svg">
<path d="M4.20886 7.2206C12.9283 11.03 20.4406 16.6019 27.3565 23.0409C24.8571 34.2843 24.2465 44.8169 30.4949 52.72C38.9729 61.8596 37.496 80.2101 41.2451 86.3648C46.116 97.1106 37.3966 101.489 54.7218 125.61C49.7515 113.713 50.1207 106.293 51.3562 102.469C53.5857 95.7603 51.839 92.5053 53.0319 84.4316C55.0626 73.4299 59.3655 59.2016 48.942 50.9574C39.3421 43.2249 32.3552 34.7675 29.5577 25.1304C34.9966 30.4038 40.109 36.1747 45.2214 41.9457C45.2498 41.9599 45.2639 41.9883 45.2781 42.0167C50.4757 47.8587 55.6591 53.715 61.2117 59.0737C68.0992 68.2986 69.4908 74.695 69.2636 78.2627C68.8234 84.8865 71.3654 87.573 72.2742 95.2628C73.1263 105.81 72.5867 119.782 84.9415 125.496C98.7875 132.049 109.14 140.293 113.443 151.465C113.315 139.028 111.767 127.444 102.579 120.493C91.9142 113.585 88.6196 96.3431 83.3652 91.3255C77.2872 84.0479 80.88 78.9734 70.4991 67.3321C81.8173 76.5997 94.3568 84.19 107.535 90.7711C115.658 98.93 118.456 105.54 119.123 109.704C120.501 118.489 124.321 121.132 127.63 130.841C131.691 144.316 135.071 162.737 151.473 165.935C169.892 169.716 184.618 176.909 192.983 190C189.234 173.81 184.05 159.226 171.085 153.327C156.344 147.997 147.44 126.619 139.715 121.886C130.683 114.736 133.012 107.174 118.996 96.2009C125.13 98.9585 131.365 101.56 137.641 104.033C152.126 112.277 166.2 118.233 178.299 113.258C191.378 106.449 213.532 115.035 221.91 112.817C236.182 110.941 239.59 123.051 273.005 111.168C257.313 112.732 248.31 109.548 243.907 106.634C236.182 101.46 231.808 102.356 222.194 97.9208C209.158 91.3966 192.67 80.935 180.244 90.4158C172.15 96.4568 163.913 100.849 155.478 102.882C129.036 92.9885 102.608 82.0579 80.2268 65.4842C90.9486 64.4324 97.5094 66.2944 101.06 68.2844C108.799 72.6766 113.244 71.3262 122.887 74.7803C135.966 79.9684 152.467 88.7812 165.177 77.9216C179.591 65.8396 194.374 58.761 209.825 60.3529C194.829 53.2317 180.202 48.2141 167.52 54.7099C154.171 62.9399 131.918 56.6146 123.412 59.7275C109.935 62.8973 106.186 52.8195 78.2245 63.9918C73.7511 60.5946 69.4483 56.9416 65.3442 53.0185C62.4188 50.2325 59.607 47.3044 56.8378 44.3052C81.7321 47.9867 84.0895 38.6196 97.0976 39.1739C106.044 40.638 126.735 30.2617 141.376 35.8478C155.038 39.842 168.486 32.1806 181.878 22.3728C166.995 26.8361 151.147 22.6571 134.744 13.489C120.217 5.18798 105.647 16.9431 93.7888 24.4907C84.9415 29.6931 80.3262 29.1956 73.5523 34.9523C70.5133 37.5251 64.6199 40.4958 54.3242 41.5477C40.109 25.8411 26.8595 8.89787 7.6881 0.539968C-0.165047 -1.70586 -3.13305 3.58179 4.20886 7.2206Z" fill="#E3E1A4" fill-opacity="0.15"/>
</svg>
