<svg width="74" height="63" viewBox="0 0 74 63" fill="none" xmlns="http://www.w3.org/2000/svg">
<path d="M73.0128 27.4738C69.8528 57.8138 57.6428 65.3438 40.8228 61.1738C41.1328 52.2738 46.9128 47.6938 60.8028 42.5038C66.9828 40.1138 70.4328 34.0938 72.3028 27.3338C72.4128 26.9038 73.0528 27.0238 73.0028 27.4738H73.0128Z" fill="black"/>
<path d="M34.8928 60.3538C34.9828 52.0538 30.4928 45.8538 21.0228 41.9538C13.8528 38.7238 10.1828 32.8738 8.89283 25.2538C7.85283 21.3738 10.5628 21.6938 12.0728 24.1038C14.0528 27.1638 16.6928 29.1138 20.1628 29.7338C28.8928 31.7638 36.8428 36.0238 36.5528 51.6938C36.8028 39.6338 41.0228 32.6238 51.9328 30.1638C56.4028 29.2338 59.6028 26.5738 62.1728 23.0838C63.3928 21.8038 64.6328 23.2838 64.3428 24.6838C63.0528 32.0338 59.6728 38.1938 52.0728 41.9538C42.5828 46.1738 38.3028 52.3738 37.9128 60.3538" fill="black"/>
<path d="M32.1928 61.1638C15.3528 65.3338 3.15282 57.7838 0.00281954 27.3838C-0.0471805 26.9338 0.58282 26.8238 0.70282 27.2538C2.55282 34.0338 6.00282 40.1038 12.2228 42.4938C26.0928 47.6838 31.9028 52.2738 32.1928 61.1638Z" fill="black"/>
<path d="M36.5428 36.6938C31.0728 26.2538 29.4728 14.7738 35.4528 1.23378C36.1828 -0.396224 36.9028 -0.426224 37.5928 1.23378C42.8828 13.3138 42.9228 25.1538 36.5328 36.6938H36.5428Z" fill="black"/>
<path d="M41.2628 32.2438C42.9728 25.3638 46.8428 19.5638 54.9428 15.8738C55.9228 15.4338 56.2628 15.7038 55.9028 16.7338C53.4528 24.2838 48.7428 29.6138 41.2628 32.2538V32.2438Z" fill="black"/>
<path d="M32.2028 32.2438C30.4928 25.3638 26.6228 19.5638 18.5228 15.8738C17.5428 15.4338 17.2028 15.7038 17.5628 16.7338C20.0128 24.2838 24.7228 29.6138 32.2028 32.2538V32.2438Z" fill="black"/>
</svg>
