<svg width="1920" height="410" viewBox="0 0 1920 410" fill="none" xmlns="http://www.w3.org/2000/svg">
<path d="M1025.76 163.874C1025.7 163.894 1025.63 163.904 1025.57 163.924C1025.58 163.904 1025.59 163.884 1025.61 163.874H1025.76Z" fill="#E3E1A4" fill-opacity="0.15"/>
<path d="M773.08 78.6943C786.42 77.1943 799.28 72.3443 798.13 55.7443C797.85 47.1743 798.47 42.5643 803.13 38.8943C794.52 41.5643 787 47.7643 784.4 57.2843C781.94 66.1143 778.91 73.2343 773.08 78.6943Z" fill="#E3E1A4" fill-opacity="0.15"/>
<path d="M840.4 17.3743C839.31 29.8643 839.37 42.6443 849.28 55.2143C850.04 56.1743 851.07 57.2743 852.1 57.9243C853.35 58.7043 856.48 60.5143 857.76 60.9943C867.14 64.4843 872.77 67.1043 881.36 72.2943C882.39 72.9243 884.74 73.6943 885.88 74.0843C887.3 74.5643 889.58 75.1843 891.08 75.2343C895.8 75.3843 900.11 74.2143 904.65 72.8843C909.18 71.5543 913.47 68.4643 914.99 63.9943C907.84 68.6943 898.03 68.9443 890.65 64.6343C885.65 61.7143 881.68 56.8843 876.12 55.2643C873.56 54.5243 871.16 53.8243 868.5 53.6643C863.12 53.3443 857.89 54.2743 853.17 51.6643C851 50.4643 850.16 49.6543 848.69 48.3443C846.91 46.7643 844.59 42.7143 844 41.0643C841.56 34.2743 841.33 27.0743 840.83 19.2143" fill="#E3E1A4" fill-opacity="0.15"/>
<path d="M837.14 156.974C839.51 146.694 829.59 139.614 823.95 131.914C821.68 128.804 820.59 126.444 819.37 122.794C818.15 119.144 818.61 112.484 820.91 109.384C823.58 105.794 826 104.234 830.47 103.944C834.11 103.704 839.5 106.104 842.7 107.854C847.99 110.744 850.09 117.494 851.84 123.264C854.23 131.134 853.71 138.524 856.11 146.404C856.88 148.954 859.17 151.784 860.98 153.734C864.26 157.274 869.72 160.824 874.55 160.844C877.47 160.854 880.51 160.564 883.34 159.834C884.77 159.464 886.52 158.404 887.37 157.754C888.85 156.614 889.31 156.254 890.36 155.114C898.68 146.124 900.87 131.354 896.92 117.484C893.45 105.284 886.15 93.8943 875.08 87.6943C860.81 79.7043 842.18 79.7443 830.41 68.3943C824.51 62.7043 821.6 54.6443 820.1 46.5843C818.38 37.3343 824.36 26.1943 827.56 20.2543C822.06 24.3843 817.43 36.1843 816.54 45.3543C816.54 45.3543 815.51 56.0343 816.16 60.8543C816.64 64.4443 817.99 67.8543 819.58 71.1043C822.08 76.2143 825.31 81.1443 830.01 84.3443C835.56 88.1243 842.5 89.0743 849.14 90.0743C856.96 91.2543 864.85 92.6543 872.07 95.8643C879.3 99.0743 885.9 104.284 889.35 111.404C892.37 117.654 892.75 124.814 892.73 131.754C892.72 135.374 892.58 139.144 890.89 142.344C888.78 146.364 884.22 148.954 879.69 148.714C872.39 148.324 867.1 141.494 864.43 134.684C861.76 127.874 860.58 120.354 856.37 114.374C853.13 109.764 849.08 106.334 843.76 104.454C839.07 102.804 835.26 101.664 830.06 102.714C827.93 103.144 824.72 103.744 822.79 104.514C811.76 108.934 808.16 123.094 812.02 130.844C813.55 133.904 813.68 133.974 815.25 135.494C817.06 137.244 818.74 138.784 820.94 140.394C828.19 145.684 835.1 148.464 837.14 156.984" fill="#E3E1A4" fill-opacity="0.15"/>
<path d="M1127.61 408.374C1126.11 395.034 1121.26 382.174 1104.66 383.324C1096.09 383.604 1091.48 382.984 1087.81 378.324C1090.48 386.934 1096.68 394.454 1106.2 397.054C1115.03 399.514 1122.15 402.544 1127.61 408.374Z" fill="#E3E1A4" fill-opacity="0.15"/>
<path d="M1066.29 341.054C1078.78 342.144 1091.56 342.084 1104.13 332.174C1105.09 331.414 1106.19 330.384 1106.84 329.354C1107.62 328.104 1109.43 324.974 1109.91 323.694C1113.4 314.314 1116.02 308.684 1121.21 300.094C1121.84 299.064 1122.61 296.714 1123 295.574C1123.48 294.154 1124.1 291.874 1124.15 290.374C1124.3 285.654 1123.13 281.344 1121.8 276.804C1120.47 272.264 1117.38 267.984 1112.91 266.464C1117.61 273.614 1117.86 283.424 1113.55 290.804C1110.63 295.804 1105.8 299.774 1104.18 305.334C1103.44 307.894 1102.74 310.294 1102.58 312.954C1102.26 318.334 1103.19 323.564 1100.58 328.284C1099.38 330.454 1098.57 331.294 1097.26 332.764C1095.68 334.544 1091.63 336.864 1089.98 337.454C1083.19 339.894 1075.99 340.124 1068.13 340.624" fill="#E3E1A4" fill-opacity="0.15"/>
<path d="M1205.89 344.314C1195.61 341.944 1188.53 351.864 1180.83 357.504C1177.72 359.774 1175.36 360.864 1171.71 362.084C1168.06 363.304 1161.4 362.844 1158.3 360.544C1154.71 357.874 1153.15 355.454 1152.86 350.984C1152.62 347.344 1155.02 341.954 1156.77 338.754C1159.66 333.464 1166.41 331.364 1172.18 329.614C1180.05 327.224 1187.44 327.744 1195.32 325.344C1197.87 324.574 1200.7 322.284 1202.65 320.474C1206.19 317.194 1209.74 311.734 1209.76 306.904C1209.77 303.984 1209.48 300.944 1208.75 298.114C1208.38 296.684 1207.32 294.934 1206.67 294.084C1205.53 292.604 1205.17 292.144 1204.03 291.094C1195.04 282.774 1180.27 280.584 1166.4 284.534C1154.2 288.004 1142.81 295.304 1136.61 306.374C1128.62 320.644 1128.66 339.274 1117.31 351.044C1111.62 356.944 1103.56 359.854 1095.5 361.354C1086.25 363.074 1075.11 357.094 1069.17 353.894C1073.3 359.394 1085.1 364.024 1094.27 364.914C1094.27 364.914 1104.95 365.944 1109.77 365.294C1113.36 364.814 1116.77 363.464 1120.02 361.874C1125.13 359.374 1130.06 356.144 1133.26 351.444C1137.04 345.894 1137.99 338.954 1138.99 332.314C1140.17 324.494 1141.57 316.604 1144.78 309.384C1147.99 302.164 1153.2 295.554 1160.32 292.104C1166.57 289.084 1173.73 288.704 1180.67 288.724C1184.29 288.734 1188.06 288.874 1191.26 290.564C1195.28 292.674 1197.87 297.234 1197.63 301.764C1197.24 309.064 1190.41 314.354 1183.6 317.024C1176.79 319.694 1169.27 320.874 1163.29 325.084C1158.68 328.324 1155.25 332.374 1153.37 337.694C1151.72 342.384 1150.58 346.194 1151.63 351.394C1152.06 353.524 1152.66 356.734 1153.43 358.664C1157.85 369.694 1172.01 373.294 1179.76 369.434C1182.82 367.904 1182.89 367.774 1184.41 366.204C1186.16 364.394 1187.7 362.714 1189.31 360.514C1194.6 353.264 1197.38 346.354 1205.9 344.314" fill="#E3E1A4" fill-opacity="0.15"/>
<path d="M1517.93 369.264C1519.78 367.474 1522.77 366.704 1524.99 368.384C1526.04 369.174 1526.67 370.464 1526.54 371.774C1526.31 373.984 1524.24 375.064 1522.63 376.344C1521.2 377.474 1519.95 379.474 1520.9 381.034C1523.36 384.474 1542.11 380.814 1550.94 375.214C1554.68 372.844 1557.21 368.894 1557.57 364.474C1557.63 363.784 1557.04 362.244 1556.64 361.674C1556.07 360.874 1554.91 360.174 1553.93 360.094C1549.54 359.724 1545.51 360.734 1541.57 362.724C1539.67 363.684 1538.02 365.154 1535.82 365.484C1534.88 365.624 1533.88 365.484 1533.08 364.974C1530.64 363.384 1531.67 359.884 1533.61 358.054C1537.42 354.454 1543.24 354.444 1548.45 353.784C1553.96 353.084 1559.33 351.394 1564.25 348.824C1566.28 347.764 1568.35 346.434 1569.08 344.164C1569.56 342.684 1569.22 340.994 1567.98 340.064C1565.56 338.234 1562.15 340.954 1559.68 339.144C1559.07 338.694 1558.67 337.944 1558.81 337.194C1559.02 336.044 1560.13 335.674 1561.1 335.334C1565.08 333.954 1568.95 331.354 1569.95 327.054C1570.43 324.984 1570.02 322.754 1568.65 321.124C1565.97 317.934 1561.74 318.834 1558.94 321.014C1556.79 322.684 1555.26 324.994 1553.58 327.134C1548.26 333.874 1538.48 343.334 1532.96 342.024C1528.4 340.084 1528.27 333.374 1530.59 329.564C1531.65 327.814 1533.51 326.714 1535.34 325.784C1543.79 321.474 1553.11 319.164 1561.76 315.294C1565.29 313.714 1568.81 311.794 1570.77 308.244C1571.46 306.984 1571.87 305.564 1571.83 304.134C1571.67 297.764 1564.43 295.504 1558.8 296.554C1557.61 292.134 1566.17 290.244 1564.68 284.894C1564.02 282.534 1561.66 281.104 1559.22 281.234C1554.41 281.484 1551.6 285.534 1549.19 289.264C1542.88 299.024 1536.58 308.794 1530.27 318.554C1529.54 319.684 1528.41 320.974 1527.13 320.574C1526.61 320.414 1526.21 319.994 1525.89 319.554C1524.61 317.814 1523.94 315.664 1524.06 313.504C1524.38 307.774 1527.9 303.594 1531.33 299.554C1540.19 289.114 1549.05 278.674 1557.9 268.234C1560.32 265.374 1562.87 262.244 1562.94 258.454C1562.99 256.054 1561.69 253.774 1559.56 252.674C1556.72 251.204 1555.16 253.024 1553.18 253.804C1552.02 254.264 1550.48 254.234 1549.79 253.204C1549.54 252.824 1549.44 252.354 1549.38 251.904C1548.92 248.534 1550 245.084 1548.78 241.744C1548.5 240.974 1548.07 240.254 1547.5 239.664C1544.58 236.674 1540.91 238.724 1539.47 241.544C1538.42 243.604 1538.28 245.974 1538.09 248.274C1537.16 259.464 1534.68 270.534 1530.73 281.044C1530.25 282.324 1529.56 283.784 1527.89 283.644C1526.73 283.544 1525.76 282.644 1525.47 281.514C1522.03 268.394 1526.75 254.884 1529.95 241.944C1530.37 240.254 1529.84 238.394 1528.46 237.324C1525.94 235.364 1523.16 237.644 1521.87 240.034C1520.75 242.104 1520.01 244.564 1518.06 245.884C1517.04 242.244 1516 238.544 1514.08 235.284C1511.94 231.664 1508.55 228.564 1504.3 227.984C1502.98 227.804 1501.59 228.034 1500.54 228.854C1498.05 230.814 1499.05 234.344 1500.37 236.974C1505.73 247.704 1514.61 257.054 1516.46 268.894C1516.74 270.654 1516.85 272.504 1513.98 273.964C1512.93 274.494 1511.72 274.694 1510.58 274.424C1507.45 273.684 1505.47 270.854 1504.26 267.974C1502.83 264.584 1502.13 260.864 1499.53 258.054C1498.44 256.874 1496.76 256.324 1495.22 256.784C1491.85 257.804 1492.25 262.384 1493.24 265.614C1494.19 268.724 1495.15 271.834 1496.1 274.944C1493.69 274.244 1491.28 273.554 1488.87 272.854C1487.12 272.344 1485.16 271.844 1483.62 273.344C1482.41 274.514 1482.16 276.374 1482.83 277.924C1484.23 281.114 1487.6 282.124 1490.73 282.824C1495.69 283.934 1500.73 284.684 1505.66 285.934C1511.69 287.464 1517.81 289.954 1521.75 294.774C1523.5 296.914 1524.79 299.624 1524.15 302.444C1523.87 303.634 1523.2 304.744 1522.21 305.464C1519.71 307.284 1516.82 305.964 1515 304.024C1513.58 302.514 1512.61 300.634 1511.35 298.994C1508.38 295.134 1503.69 292.624 1498.82 292.364C1497.87 292.314 1496.92 292.714 1496.44 293.534C1494.88 296.194 1500.13 298.114 1499.83 301.024C1499.61 303.134 1496.74 303.704 1494.68 303.184C1492.45 302.614 1490.02 301.444 1488.01 302.854C1485.97 304.284 1485.87 307.134 1487.5 309.024C1490.42 312.434 1494.8 311.994 1498.81 312.284C1509.93 313.104 1519.82 316.674 1522.49 326.334C1523.87 330.494 1518.57 332.154 1516.26 330.554C1513.95 328.954 1512.29 326.614 1510.38 324.554C1508.1 322.094 1505.13 319.884 1501.59 320.524C1499.46 320.914 1497.71 322.604 1497.66 324.774C1497.56 329.134 1503.9 330.374 1504.91 334.394C1505.02 334.834 1505.05 335.314 1504.85 335.714C1504.51 336.384 1503.66 336.594 1502.92 336.664C1501.16 336.814 1499.37 336.564 1497.64 336.894C1495.91 337.224 1494.14 338.384 1493.88 340.124C1493.64 341.694 1494.73 343.214 1496.11 343.994C1497.49 344.774 1499.12 344.954 1500.69 345.134C1505.07 345.614 1509.44 346.094 1513.82 346.574C1516.46 346.864 1519.2 347.184 1521.43 348.614C1522.46 349.274 1523.34 350.234 1523.9 351.334C1524.84 353.184 1525.69 358.134 1520.8 357.194C1514.23 354.114 1508.2 352.554 1502.39 353.734C1502 353.664 1501 354.114 1501 354.114C1501 354.114 1499.05 354.934 1498.47 355.764C1497.11 357.714 1498.94 359.694 1500.84 360.154C1502.42 360.534 1504.08 360.214 1505.7 360.284C1506.37 360.314 1507.08 360.424 1507.6 360.854C1508.93 361.944 1508.14 364.184 1506.86 365.334C1505.24 366.794 1502.93 367.684 1502.79 370.274C1502.7 372.004 1503.74 373.634 1505.3 374.384C1509.61 376.464 1514.74 371.984 1517.92 369.294" fill="#E3E1A4" fill-opacity="0.15"/>
<path d="M1768.99 35.464C1770.78 37.314 1771.55 40.304 1769.87 42.524C1769.08 43.574 1767.79 44.204 1766.48 44.074C1764.27 43.844 1763.19 41.774 1761.91 40.164C1760.78 38.734 1758.78 37.484 1757.22 38.434C1753.78 40.894 1757.44 59.644 1763.04 68.474C1765.41 72.214 1769.36 74.744 1773.78 75.104C1774.47 75.164 1776.01 74.574 1776.58 74.174C1777.38 73.604 1778.08 72.444 1778.16 71.464C1778.53 67.074 1777.52 63.044 1775.53 59.104C1774.57 57.204 1773.1 55.554 1772.77 53.354C1772.63 52.414 1772.77 51.414 1773.28 50.614C1774.87 48.174 1778.37 49.204 1780.2 51.144C1783.8 54.954 1783.81 60.774 1784.47 65.984C1785.17 71.494 1786.86 76.864 1789.43 81.784C1790.49 83.814 1791.82 85.884 1794.09 86.614C1795.57 87.094 1797.26 86.754 1798.19 85.514C1800.02 83.094 1797.3 79.684 1799.11 77.214C1799.56 76.604 1800.31 76.204 1801.06 76.344C1802.21 76.554 1802.58 77.664 1802.92 78.634C1804.3 82.614 1806.9 86.484 1811.2 87.484C1813.27 87.9641 1815.5 87.554 1817.13 86.184C1820.32 83.504 1819.42 79.274 1817.24 76.474C1815.57 74.324 1813.26 72.794 1811.12 71.114C1804.38 65.794 1794.92 56.014 1796.23 50.494C1798.17 45.934 1804.88 45.804 1808.69 48.124C1810.44 49.184 1811.54 51.044 1812.47 52.874C1816.78 61.324 1819.09 70.644 1822.96 79.294C1824.54 82.824 1826.46 86.344 1830.01 88.304C1831.27 88.994 1832.69 89.404 1834.12 89.364C1840.49 89.204 1842.75 81.964 1841.7 76.334C1846.12 75.144 1848.01 83.704 1853.36 82.214C1855.72 81.554 1857.15 79.194 1857.02 76.754C1856.77 71.944 1852.72 69.134 1848.99 66.724C1839.23 60.414 1829.46 54.114 1819.7 47.804C1818.57 47.074 1817.28 45.944 1817.68 44.664C1817.84 44.144 1818.26 43.744 1818.7 43.424C1820.44 42.144 1822.59 41.474 1824.75 41.594C1830.48 41.914 1834.66 45.434 1838.7 48.864C1849.14 57.724 1859.58 66.584 1870.02 75.434C1872.88 77.854 1876.01 80.404 1879.8 80.474C1882.2 80.524 1884.48 79.224 1885.58 77.094C1887.05 74.254 1885.23 72.694 1884.45 70.714C1883.99 69.554 1884.02 68.014 1885.05 67.324C1885.43 67.074 1885.9 66.974 1886.35 66.914C1889.72 66.454 1893.17 67.534 1896.51 66.314C1897.28 66.034 1898 65.604 1898.59 65.034C1901.58 62.114 1899.53 58.444 1896.71 57.004C1894.65 55.954 1892.28 55.814 1889.98 55.624C1878.79 54.694 1867.72 52.214 1857.21 48.264C1855.93 47.784 1854.47 47.094 1854.61 45.424C1854.71 44.264 1855.61 43.294 1856.74 43.004C1869.86 39.564 1883.37 44.284 1896.31 47.484C1898 47.904 1899.86 47.374 1900.93 45.994C1902.89 43.474 1900.61 40.694 1898.22 39.404C1896.15 38.284 1893.69 37.544 1892.37 35.594C1896.01 34.574 1899.71 33.534 1902.97 31.614C1906.59 29.474 1909.69 26.084 1910.27 21.834C1910.45 20.514 1910.22 19.124 1909.4 18.074C1907.44 15.584 1903.91 16.584 1901.28 17.904C1890.55 23.264 1881.2 32.144 1869.36 33.994C1867.6 34.274 1865.75 34.384 1864.29 31.514C1863.76 30.464 1863.56 29.254 1863.83 28.114C1864.57 24.984 1867.4 23.004 1870.28 21.794C1873.67 20.364 1877.39 19.664 1880.2 17.064C1881.38 15.974 1881.93 14.294 1881.47 12.754C1880.45 9.38404 1875.87 9.78404 1872.64 10.774C1869.53 11.724 1866.42 12.684 1863.31 13.634C1864.01 11.224 1864.7 8.81404 1865.4 6.40404C1865.91 4.65404 1866.41 2.69404 1864.91 1.15404C1863.74 -0.0559576 1861.88 -0.305958 1860.33 0.364042C1857.14 1.76404 1856.13 5.13404 1855.43 8.26404C1854.32 13.224 1853.57 18.264 1852.32 23.194C1850.79 29.224 1848.3 35.344 1843.48 39.284C1841.34 41.034 1838.63 42.324 1835.81 41.684C1834.62 41.404 1833.51 40.734 1832.79 39.744C1830.97 37.244 1832.29 34.354 1834.23 32.534C1835.74 31.114 1837.62 30.144 1839.26 28.884C1843.12 25.914 1845.63 21.224 1845.89 16.354C1845.94 15.404 1845.54 14.454 1844.72 13.974C1842.06 12.414 1840.14 17.664 1837.23 17.364C1835.12 17.144 1834.55 14.274 1835.07 12.214C1835.64 9.98404 1836.81 7.55404 1835.4 5.54404C1833.97 3.50404 1831.12 3.40404 1829.23 5.03404C1825.82 7.95404 1826.26 12.334 1825.97 16.344C1825.15 27.464 1821.58 37.354 1811.92 40.024C1807.76 41.404 1806.1 36.104 1807.7 33.794C1809.3 31.484 1811.64 29.824 1813.7 27.914C1816.16 25.634 1818.37 22.664 1817.73 19.124C1817.34 16.994 1815.65 15.244 1813.48 15.194C1809.12 15.094 1807.88 21.434 1803.86 22.444C1803.42 22.554 1802.94 22.584 1802.54 22.384C1801.87 22.044 1801.66 21.194 1801.59 20.454C1801.44 18.694 1801.69 16.904 1801.36 15.174C1801.03 13.444 1799.87 11.674 1798.13 11.414C1796.56 11.174 1795.04 12.264 1794.26 13.644C1793.48 15.024 1793.3 16.654 1793.12 18.224C1792.64 22.604 1792.16 26.974 1791.68 31.354C1791.39 33.994 1791.07 36.734 1789.64 38.964C1788.98 39.994 1788.02 40.874 1786.92 41.434C1785.07 42.374 1780.12 43.224 1781.06 38.334C1784.14 31.764 1785.7 25.734 1784.52 19.924C1784.59 19.534 1784.14 18.534 1784.14 18.534C1784.14 18.534 1783.32 16.584 1782.49 16.004C1780.54 14.644 1778.56 16.474 1778.1 18.374C1777.72 19.954 1778.04 21.614 1777.97 23.234C1777.94 23.904 1777.83 24.614 1777.4 25.134C1776.31 26.464 1774.07 25.674 1772.92 24.394C1771.46 22.774 1770.57 20.464 1767.98 20.324C1766.25 20.234 1764.62 21.274 1763.87 22.834C1761.79 27.144 1766.27 32.274 1768.96 35.454" fill="#E3E1A4" fill-opacity="0.15"/>
<path d="M383.59 24.7441V103.604C383.59 105.214 386.09 105.214 386.09 103.604V24.7441C386.09 23.1341 383.59 23.1341 383.59 24.7441Z" fill="#E3E1A4" fill-opacity="0.15"/>
<path d="M263.53 195.654C265.18 224.704 266.39 253.784 267.15 282.874C267.36 291.024 267.54 299.164 267.68 307.314C267.71 308.924 270.21 308.924 270.18 307.314C269.67 278.214 268.71 249.134 267.31 220.064C266.92 211.924 266.49 203.784 266.03 195.654C265.94 194.054 263.44 194.044 263.53 195.654Z" fill="#E3E1A4" fill-opacity="0.15"/>
<path d="M255.68 96.4441C262.45 106.584 268.88 116.944 275.79 126.994C276.7 128.314 278.86 127.064 277.95 125.734C271.05 115.684 264.61 105.324 257.84 95.1841C256.95 93.8541 254.78 95.1041 255.68 96.4441Z" fill="#E3E1A4" fill-opacity="0.15"/>
<path d="M273.46 94.6842C268.75 104.024 264.04 113.354 259.32 122.694C258.66 123.994 258 125.304 257.35 126.604C256.63 128.034 258.78 129.304 259.51 127.864C264.22 118.524 268.93 109.194 273.65 99.8542C274.31 98.5542 274.97 97.2442 275.62 95.9442C276.34 94.5142 274.19 93.2442 273.46 94.6842Z" fill="#E3E1A4" fill-opacity="0.15"/>
<path d="M248.4 113.364C257.71 113.234 267.02 113.124 276.33 112.794C278.86 112.704 281.39 112.614 283.92 112.524C285.52 112.464 285.53 109.964 283.92 110.024C274.36 110.364 264.83 110.634 255.26 110.764C252.97 110.794 250.69 110.824 248.4 110.854C246.79 110.874 246.79 113.374 248.4 113.354V113.364Z" fill="#E3E1A4" fill-opacity="0.15"/>
<path d="M318.36 92.7841C318.96 104.384 319.18 116.004 319.94 127.604C320.04 129.204 322.55 129.214 322.44 127.604C321.68 116.004 321.46 104.384 320.86 92.7841C320.78 91.1841 318.28 91.1741 318.36 92.7841Z" fill="#E3E1A4" fill-opacity="0.15"/>
<path d="M333.79 99.9542C325.39 105.304 316.99 110.644 308.59 115.994C307.41 116.744 306.23 117.504 305.04 118.254C303.69 119.114 304.94 121.284 306.3 120.414C314.7 115.064 323.1 109.724 331.5 104.374C332.68 103.624 333.86 102.864 335.05 102.114C336.4 101.254 335.15 99.0842 333.79 99.9542Z" fill="#E3E1A4" fill-opacity="0.15"/>
<path d="M304.2 103.134C311.86 107.554 319.51 111.974 327.26 116.224C329.4 117.404 331.55 118.574 333.69 119.754C335.1 120.524 336.36 118.374 334.95 117.594C326.99 113.234 319.07 108.824 311.2 104.284C309.28 103.184 307.37 102.074 305.45 100.974C304.05 100.174 302.79 102.324 304.19 103.134H304.2Z" fill="#E3E1A4" fill-opacity="0.15"/>
<path d="M165.43 246.064C165.75 252.264 165.87 258.474 166.28 264.664C166.33 265.464 167.58 265.464 167.53 264.664C167.12 258.464 167.01 252.264 166.68 246.064C166.64 245.264 165.39 245.254 165.43 246.064Z" fill="#E3E1A4" fill-opacity="0.15"/>
<path d="M173.65 249.934C169.16 252.794 164.67 255.644 160.18 258.504L158.29 259.704C157.61 260.134 158.24 261.214 158.92 260.784C163.41 257.924 167.9 255.074 172.39 252.214L174.28 251.014C174.96 250.584 174.33 249.504 173.65 249.934Z" fill="#E3E1A4" fill-opacity="0.15"/>
<path d="M157.85 251.554C161.95 253.924 166.05 256.284 170.2 258.564C171.34 259.184 172.47 259.804 173.61 260.434C174.32 260.824 174.95 259.744 174.24 259.354C169.98 257.024 165.75 254.664 161.54 252.234C160.52 251.644 159.5 251.064 158.48 250.474C157.78 250.074 157.15 251.154 157.85 251.554Z" fill="#E3E1A4" fill-opacity="0.15"/>
<path d="M529.03 266.024C526.81 271.824 524.39 277.544 522.25 283.364C521.97 284.124 523.18 284.444 523.46 283.694C525.61 277.864 528.02 272.144 530.24 266.354C530.53 265.604 529.32 265.274 529.03 266.024Z" fill="#E3E1A4" fill-opacity="0.15"/>
<path d="M534.91 272.824C529.65 273.614 524.4 274.394 519.14 275.184L516.9 275.514C516.11 275.634 516.44 276.834 517.23 276.724C522.49 275.934 527.74 275.154 533 274.364L535.24 274.034C536.03 273.914 535.7 272.714 534.91 272.824Z" fill="#E3E1A4" fill-opacity="0.15"/>
<path d="M519.87 267.824C522.66 271.644 525.43 275.474 528.3 279.234C529.09 280.264 529.88 281.304 530.67 282.334C531.15 282.964 532.24 282.334 531.75 281.704C528.81 277.854 525.91 273.984 523.06 270.074C522.36 269.114 521.66 268.154 520.96 267.194C520.49 266.554 519.41 267.174 519.88 267.824H519.87Z" fill="#E3E1A4" fill-opacity="0.15"/>
<path d="M97.28 400.724C97.44 393.344 97.48 385.934 97.85 378.564C98.01 375.324 98.47 372.174 99.35 369.044C100.1 366.374 101.11 364.084 103.58 362.634C106.05 361.184 109.02 360.194 111.79 360.364C114.38 360.524 117.17 362.024 119 363.814C123.24 367.974 124.05 373.854 124.38 379.524C124.58 382.824 124.57 386.144 124.76 389.444C124.93 392.324 126.06 394.894 127.84 397.154C129.38 399.104 131.29 400.674 133.68 401.414C136.07 402.154 138.58 402.294 141 402.134C145.74 401.814 150.22 399.624 152.67 395.414C155.32 390.854 155.11 385.434 154.96 380.354C154.81 375.274 154.29 369.744 157.03 365.264C159.71 360.884 165.09 358.904 170.04 359.694C175.42 360.554 179.63 364.134 180.79 369.524C181.42 372.454 181.28 375.494 181.27 378.464C181.27 381.194 181.45 383.874 181.8 386.574C182.36 390.924 182.81 395.524 186.49 398.414C189.83 401.034 194.43 402.024 198.61 401.774C203.12 401.504 207.21 399.394 209.62 395.474C212.28 391.154 212.38 385.934 212.29 381.024C212.19 375.644 211.96 370.404 214.9 365.644C217.84 360.884 222.55 358.544 227.87 359.584C233.19 360.624 237.91 364.654 239.39 369.974C240.33 373.364 240.37 377.014 240.58 380.514C240.79 384.014 240.93 387.714 241 391.314C241.07 394.914 241.06 398.524 241 402.124C240.97 403.734 243.47 403.734 243.5 402.124C243.65 394.594 243.5 387.054 243.03 379.534C242.81 375.994 242.74 372.284 241.68 368.864C240.87 366.244 239.4 363.854 237.45 361.934C233.69 358.244 228.22 356.174 222.96 357.044C217.7 357.914 213.54 362.094 211.46 366.884C209.28 371.924 209.77 377.304 209.83 382.664C209.88 387.604 209.36 393.234 205.37 396.684C202.04 399.574 197.22 399.794 193.11 398.774C191.1 398.274 189.09 397.444 187.55 396.024C186.01 394.604 185.4 392.774 184.99 390.714C184.5 388.254 184.17 385.754 183.95 383.254C183.68 380.144 183.87 377.034 183.78 373.924C183.6 368.184 181.89 362.754 176.81 359.554C172.57 356.894 166.88 356.164 162.19 358.004C157.25 359.944 153.94 364.084 152.88 369.244C151.82 374.404 152.67 380.214 152.53 385.654C152.4 390.734 150.89 395.794 146.1 398.284C143.89 399.434 141.42 399.714 138.96 399.654C136.5 399.594 133.99 399.274 132.04 397.814C129.85 396.174 128.06 393.594 127.45 390.914C127.1 389.384 127.18 387.724 127.13 386.164C127.07 384.384 127.03 382.604 126.95 380.824C126.69 375.004 126.14 368.724 122.46 363.944C120.72 361.684 118.57 360.034 115.94 358.914C113.31 357.794 111.08 357.634 108.41 358.154C105.74 358.674 102.76 359.824 100.58 361.634C98.4 363.444 97.52 366.134 96.82 368.694C94.97 375.534 95.18 382.694 95.01 389.724C94.92 393.384 94.84 397.034 94.76 400.694C94.73 402.304 97.23 402.304 97.26 400.694L97.28 400.724Z" fill="#E3E1A4" fill-opacity="0.15"/>
<path d="M474.65 65.894C482.03 66.054 489.44 66.094 496.81 66.464C500.05 66.624 503.2 67.084 506.33 67.964C509 68.714 511.29 69.7241 512.74 72.1941C514.19 74.6641 515.18 77.634 515.01 80.404C514.85 82.994 513.35 85.784 511.56 87.614C507.4 91.854 501.52 92.664 495.85 92.994C492.55 93.194 489.23 93.184 485.93 93.3741C483.05 93.5441 480.48 94.674 478.22 96.454C476.27 97.994 474.7 99.904 473.96 102.294C473.22 104.684 473.08 107.194 473.24 109.614C473.56 114.354 475.75 118.834 479.96 121.284C484.52 123.934 489.94 123.724 495.02 123.574C500.1 123.424 505.63 122.904 510.11 125.644C514.59 128.384 516.47 133.704 515.68 138.654C514.82 144.034 511.24 148.244 505.85 149.404C502.92 150.034 499.88 149.894 496.91 149.884C494.18 149.884 491.5 150.064 488.8 150.414C484.45 150.974 479.85 151.424 476.96 155.104C474.34 158.444 473.35 163.044 473.6 167.224C473.87 171.734 475.98 175.824 479.9 178.234C484.22 180.894 489.44 180.994 494.35 180.904C499.73 180.804 504.97 180.574 509.73 183.514C514.49 186.454 516.83 191.164 515.79 196.484C514.75 201.804 510.72 206.524 505.4 208.004C502.01 208.944 498.36 208.984 494.86 209.194C491.36 209.404 487.66 209.544 484.06 209.614C480.46 209.684 476.85 209.674 473.25 209.614C471.64 209.584 471.64 212.084 473.25 212.114C480.78 212.264 488.32 212.114 495.84 211.644C499.38 211.424 503.09 211.354 506.51 210.294C509.13 209.484 511.52 208.014 513.44 206.064C517.13 202.304 519.2 196.834 518.33 191.574C517.46 186.314 513.28 182.154 508.49 180.074C503.45 177.894 498.07 178.384 492.71 178.444C487.77 178.494 482.14 177.974 478.69 173.984C475.8 170.654 475.58 165.834 476.6 161.724C477.1 159.714 477.93 157.704 479.35 156.164C480.77 154.624 482.6 154.014 484.66 153.604C487.12 153.114 489.62 152.784 492.12 152.564C495.23 152.294 498.34 152.484 501.45 152.394C507.19 152.214 512.62 150.504 515.82 145.424C518.48 141.184 519.21 135.494 517.37 130.804C515.43 125.864 511.29 122.554 506.13 121.494C500.97 120.434 495.16 121.284 489.72 121.144C484.64 121.014 479.58 119.504 477.09 114.714C475.94 112.504 475.66 110.034 475.72 107.574C475.78 105.114 476.1 102.604 477.56 100.654C479.2 98.4641 481.78 96.674 484.46 96.064C485.99 95.714 487.65 95.794 489.21 95.744C490.99 95.684 492.77 95.644 494.55 95.564C500.37 95.304 506.65 94.754 511.43 91.074C513.69 89.334 515.34 87.1841 516.46 84.5541C517.58 81.924 517.74 79.694 517.22 77.024C516.7 74.354 515.55 71.3741 513.74 69.1941C511.93 67.0141 509.24 66.134 506.68 65.434C499.84 63.584 492.68 63.794 485.65 63.624C481.99 63.534 478.34 63.454 474.68 63.374C473.07 63.344 473.07 65.8441 474.68 65.8741L474.65 65.894Z" fill="#E3E1A4" fill-opacity="0.15"/>
<path d="M38.82 216.384C30.6 216.544 21.87 216.834 14.66 221.274C8.21 225.244 3.34 231.714 1.36 239.024C0.13 243.584 0 248.354 0 253.044C0 257.734 0 262.294 1.13 266.764C2.26 271.234 4.4 274.894 6.79 278.554C9 281.954 11.21 285.534 14.16 288.354C17.11 291.174 20.98 292.774 25.03 293.724C29.57 294.784 34.2 295.724 38.85 296.104C47.48 296.814 55.56 294.424 62.57 289.394C65.85 287.044 68.83 284.304 71.51 281.294C74.19 278.284 76.79 274.724 78.29 270.784C79.93 266.484 80.06 261.804 80.08 257.264C80.1 252.724 79.95 247.824 78.66 243.304C76.57 235.994 71.56 229.734 65.27 225.564C62.15 223.494 58.75 221.814 55.3 220.364C51.68 218.834 47.93 217.544 44.05 216.864C42.32 216.564 40.57 216.374 38.81 216.394C37.2 216.414 37.2 218.914 38.81 218.894C45.8 218.824 52.89 221.694 59 224.844C65.11 227.994 70.84 232.544 74.21 238.954C76.08 242.504 77.02 246.394 77.36 250.374C77.72 254.644 77.74 259.064 77.36 263.334C76.98 267.604 75.63 271.514 73.23 275.094C71.1 278.284 68.42 281.154 65.59 283.744C60.08 288.784 53.28 292.794 45.73 293.604C41.23 294.084 36.69 293.524 32.26 292.704C28.25 291.954 23.92 291.324 20.2 289.574C16.69 287.914 14.17 285.004 11.98 281.874C9.79 278.744 7.46 275.334 5.68 271.814C3.73 267.964 2.85 263.874 2.61 259.584C2.37 255.294 2.35 250.754 2.67 246.394C3.24 238.734 6.17 231.694 11.9 226.464C17.63 221.234 25.2 219.514 32.89 219.094C34.86 218.984 36.83 218.944 38.8 218.904C40.41 218.874 40.41 216.374 38.8 216.404L38.82 216.384Z" fill="#E3E1A4" fill-opacity="0.15"/>
<path d="M563.29 326.834C555.07 326.994 546.34 327.284 539.13 331.724C532.68 335.694 527.81 342.164 525.83 349.474C524.6 354.024 524.47 358.794 524.47 363.484C524.47 368.174 524.47 372.734 525.6 377.204C526.73 381.674 528.87 385.334 531.26 388.994C533.47 392.394 535.68 395.974 538.63 398.794C541.58 401.614 545.45 403.214 549.5 404.164C554.04 405.224 558.67 406.164 563.32 406.544C571.95 407.254 580.03 404.864 587.04 399.834C590.32 397.484 593.3 394.744 595.98 391.734C598.66 388.724 601.26 385.164 602.76 381.224C604.4 376.924 604.53 372.244 604.55 367.704C604.57 363.164 604.42 358.264 603.13 353.744C601.04 346.434 596.03 340.174 589.74 336.004C586.62 333.934 583.22 332.254 579.77 330.804C576.15 329.274 572.4 327.984 568.52 327.304C566.79 327.004 565.04 326.814 563.28 326.834C561.67 326.854 561.67 329.354 563.28 329.334C570.27 329.264 577.36 332.134 583.47 335.284C589.58 338.434 595.31 342.984 598.68 349.394C600.55 352.944 601.49 356.834 601.83 360.814C602.19 365.084 602.21 369.504 601.83 373.774C601.45 378.044 600.1 381.954 597.7 385.534C595.57 388.724 592.89 391.594 590.06 394.184C584.55 399.224 577.75 403.234 570.2 404.044C565.7 404.524 561.16 403.964 556.73 403.144C552.72 402.394 548.39 401.764 544.67 400.014C541.16 398.354 538.64 395.444 536.45 392.314C534.26 389.184 531.93 385.774 530.15 382.254C528.2 378.404 527.32 374.314 527.08 370.024C526.84 365.734 526.82 361.194 527.14 356.834C527.71 349.174 530.64 342.134 536.37 336.904C542.1 331.674 549.67 329.954 557.36 329.534C559.33 329.424 561.3 329.384 563.27 329.344C564.88 329.314 564.88 326.814 563.27 326.844L563.29 326.834Z" fill="#E3E1A4" fill-opacity="0.15"/>
<path d="M1535.72 5.25413V84.1141C1535.72 85.7241 1538.22 85.7241 1538.22 84.1141V5.25413C1538.22 3.64413 1535.72 3.64413 1535.72 5.25413Z" fill="#E3E1A4" fill-opacity="0.15"/>
<path d="M1655.79 176.164C1654.14 205.214 1652.93 234.294 1652.17 263.384C1651.96 271.534 1651.78 279.674 1651.64 287.824C1651.61 289.434 1654.11 289.434 1654.14 287.824C1654.65 258.724 1655.61 229.644 1657.01 200.574C1657.4 192.434 1657.83 184.294 1658.29 176.164C1658.38 174.554 1655.88 174.564 1655.79 176.164Z" fill="#E3E1A4" fill-opacity="0.15"/>
<path d="M1663.98 75.6941C1657.21 85.8341 1650.78 96.1941 1643.87 106.244C1642.96 107.574 1645.12 108.824 1646.03 107.504C1652.93 97.4541 1659.37 87.0941 1666.14 76.9541C1667.04 75.6141 1664.87 74.3541 1663.98 75.6941Z" fill="#E3E1A4" fill-opacity="0.15"/>
<path d="M1646.2 76.4542C1650.91 85.7942 1655.62 95.1242 1660.34 104.464C1661 105.764 1661.66 107.074 1662.31 108.374C1663.04 109.814 1665.19 108.544 1664.47 107.114C1659.76 97.7742 1655.05 88.4442 1650.33 79.1042C1649.67 77.8042 1649.01 76.4942 1648.36 75.1942C1647.63 73.7542 1645.48 75.0242 1646.2 76.4542Z" fill="#E3E1A4" fill-opacity="0.15"/>
<path d="M1673.41 91.3741C1664.1 91.2441 1654.79 91.1341 1645.48 90.8041C1642.95 90.7141 1640.42 90.6241 1637.89 90.5341C1636.28 90.4741 1636.28 92.9741 1637.89 93.0341C1647.45 93.3741 1656.98 93.6441 1666.55 93.7741C1668.84 93.8041 1671.12 93.8341 1673.41 93.8641C1675.02 93.8841 1675.02 91.3841 1673.41 91.3641V91.3741Z" fill="#E3E1A4" fill-opacity="0.15"/>
<path d="M1600.95 73.2941C1600.35 84.8941 1600.13 96.5141 1599.37 108.114C1599.26 109.724 1601.77 109.714 1601.87 108.114C1602.63 96.5141 1602.85 84.8941 1603.45 73.2941C1603.53 71.6841 1601.03 71.6941 1600.95 73.2941Z" fill="#E3E1A4" fill-opacity="0.15"/>
<path d="M1586.76 82.6242C1595.16 87.9742 1603.56 93.3142 1611.96 98.6642C1613.14 99.4142 1614.32 100.174 1615.51 100.924C1616.87 101.794 1618.13 99.6242 1616.77 98.7642C1608.37 93.4142 1599.97 88.0742 1591.57 82.7242C1590.39 81.9742 1589.21 81.2142 1588.02 80.4642C1586.66 79.5942 1585.4 81.7642 1586.76 82.6242Z" fill="#E3E1A4" fill-opacity="0.15"/>
<path d="M1616.35 81.4841C1608.69 85.9041 1601.04 90.3241 1593.29 94.5741C1591.15 95.7541 1589 96.9241 1586.86 98.1041C1585.45 98.8741 1586.71 101.034 1588.12 100.264C1596.08 95.9041 1604 91.4941 1611.87 86.9541C1613.79 85.8541 1615.7 84.7441 1617.62 83.6441C1619.01 82.8441 1617.76 80.6841 1616.36 81.4841H1616.35Z" fill="#E3E1A4" fill-opacity="0.15"/>
<path d="M1755.13 226.574C1754.81 232.774 1754.69 238.984 1754.28 245.174C1754.23 245.974 1755.48 245.974 1755.53 245.174C1755.94 238.974 1756.05 232.774 1756.38 226.574C1756.42 225.774 1755.17 225.774 1755.13 226.574Z" fill="#E3E1A4" fill-opacity="0.15"/>
<path d="M1747.53 231.524C1752.02 234.384 1756.51 237.234 1761 240.094C1761.63 240.494 1762.26 240.894 1762.89 241.294C1763.57 241.724 1764.2 240.644 1763.52 240.214C1759.03 237.354 1754.54 234.504 1750.05 231.644C1749.42 231.244 1748.79 230.844 1748.16 230.444C1747.48 230.014 1746.85 231.094 1747.53 231.524Z" fill="#E3E1A4" fill-opacity="0.15"/>
<path d="M1763.34 230.994C1759.24 233.364 1755.14 235.724 1750.99 238.004C1749.85 238.624 1748.72 239.244 1747.58 239.874C1746.87 240.264 1747.5 241.344 1748.21 240.954C1752.47 238.624 1756.7 236.264 1760.91 233.834C1761.93 233.244 1762.95 232.664 1763.97 232.074C1764.67 231.674 1764.04 230.594 1763.34 230.994Z" fill="#E3E1A4" fill-opacity="0.15"/>
<path d="M1391.58 246.864C1393.8 252.664 1396.22 258.384 1398.36 264.204C1398.64 264.954 1399.84 264.624 1399.57 263.874C1397.42 258.044 1395.01 252.324 1392.79 246.534C1392.5 245.794 1391.3 246.114 1391.58 246.864Z" fill="#E3E1A4" fill-opacity="0.15"/>
<path d="M1386.58 254.544C1391.84 255.334 1397.09 256.114 1402.35 256.904C1403.1 257.014 1403.84 257.124 1404.59 257.234C1405.38 257.354 1405.72 256.144 1404.92 256.024C1399.66 255.234 1394.41 254.454 1389.15 253.664C1388.4 253.554 1387.66 253.444 1386.91 253.334C1386.12 253.214 1385.78 254.424 1386.58 254.544Z" fill="#E3E1A4" fill-opacity="0.15"/>
<path d="M1400.87 247.704C1398.08 251.524 1395.31 255.354 1392.44 259.114C1391.65 260.144 1390.86 261.184 1390.07 262.214C1389.58 262.854 1390.67 263.474 1391.15 262.844C1394.09 258.994 1396.99 255.124 1399.84 251.214C1400.54 250.254 1401.24 249.294 1401.94 248.334C1402.41 247.684 1401.33 247.054 1400.86 247.704H1400.87Z" fill="#E3E1A4" fill-opacity="0.15"/>
<path d="M1827.04 381.244C1826.88 373.714 1826.87 366.144 1826.45 358.624C1826.27 355.324 1825.78 352.084 1824.88 348.904C1824.16 346.334 1823.14 343.684 1820.97 341.994C1818.8 340.304 1816.07 339.224 1813.39 338.704C1810.58 338.154 1808.13 338.454 1805.51 339.614C1800.32 341.914 1797.11 346.734 1795.91 352.174C1795.21 355.334 1794.98 358.594 1794.85 361.814C1794.78 363.444 1794.75 365.074 1794.69 366.714C1794.63 368.354 1794.72 370.054 1794.33 371.634C1793.66 374.344 1791.79 376.994 1789.49 378.574C1787.5 379.934 1784.86 380.194 1782.51 380.214C1777.49 380.254 1772.74 378.234 1770.64 373.414C1768.49 368.464 1769.34 362.624 1769.43 357.394C1769.52 352.164 1769.1 346.844 1765.62 342.734C1762.14 338.624 1756.96 337.054 1751.93 337.694C1746.9 338.334 1741.88 341.274 1739.68 346.114C1737.13 351.734 1738.39 358.104 1737.84 364.054C1737.61 366.524 1737.29 368.994 1736.79 371.424C1736.37 373.484 1735.76 375.234 1734.16 376.674C1731.06 379.464 1726.07 380.284 1722.05 379.714C1717.03 379.014 1713.75 375.204 1712.61 370.424C1711.37 365.234 1712.3 359.834 1712.01 354.564C1711.72 349.294 1709.54 344.134 1705.5 340.764C1701.46 337.394 1695.89 336.554 1690.87 338.394C1685.85 340.234 1681.48 344.514 1679.99 349.864C1679.03 353.314 1678.96 357.024 1678.74 360.574C1678.51 364.334 1678.36 368.094 1678.29 371.864C1678.22 375.634 1678.23 379.074 1678.29 382.674C1678.32 384.284 1680.82 384.284 1680.79 382.674C1680.65 375.304 1680.79 367.934 1681.23 360.574C1681.44 357.094 1681.48 353.434 1682.52 350.074C1683.31 347.504 1684.87 345.284 1686.89 343.524C1690.85 340.094 1696.96 338.614 1701.73 341.194C1706.15 343.594 1708.97 348.664 1709.42 353.584C1709.9 358.834 1709.02 364.124 1709.84 369.354C1710.62 374.294 1713.13 378.904 1717.83 381.074C1724.65 384.224 1736.38 381.904 1738.74 373.924C1740.14 369.204 1740.51 363.894 1740.5 358.994C1740.49 353.254 1740.25 346.784 1745.29 342.914C1749.11 339.984 1754.8 339.104 1759.24 341.094C1764.14 343.294 1766.5 347.874 1766.84 353.074C1767.45 362.444 1764.05 375.434 1774.28 380.904C1778.4 383.104 1783.98 383.324 1788.38 381.844C1793.22 380.214 1796.72 374.954 1797.02 369.964C1797.4 363.594 1796.87 356.884 1798.85 350.734C1799.67 348.174 1801.1 345.904 1803.06 344.064C1804.85 342.394 1807.65 340.954 1810.13 340.874C1812.94 340.784 1815.97 341.804 1818.36 343.244C1820.75 344.684 1821.8 347.204 1822.53 349.914C1824.32 356.544 1824.09 363.474 1824.25 370.284C1824.34 373.944 1824.42 377.594 1824.5 381.254C1824.53 382.864 1827.04 382.864 1827 381.254L1827.04 381.244Z" fill="#E3E1A4" fill-opacity="0.15"/>
<path d="M1447.16 43.9141C1439.63 44.0741 1432.06 44.0841 1424.54 44.5041C1421.24 44.6841 1418 45.1741 1414.82 46.0741C1412.25 46.7941 1409.6 47.8141 1407.91 49.9841C1406.22 52.1541 1405.14 54.8841 1404.62 57.5641C1404.07 60.3741 1404.37 62.8241 1405.53 65.4441C1407.83 70.6341 1412.65 73.8441 1418.09 75.0441C1421.25 75.7441 1424.51 75.9741 1427.73 76.1041C1429.36 76.1741 1430.99 76.2041 1432.63 76.2641C1434.27 76.3241 1435.97 76.2341 1437.55 76.6241C1440.26 77.2941 1442.91 79.1641 1444.49 81.4641C1445.85 83.4541 1446.11 86.0941 1446.13 88.4441C1446.17 93.4641 1444.15 98.2141 1439.33 100.314C1434.51 102.414 1428.54 101.614 1423.31 101.524C1418.08 101.434 1412.76 101.854 1408.65 105.334C1404.54 108.814 1402.97 113.994 1403.61 119.024C1404.25 124.054 1407.19 129.074 1412.03 131.274C1417.65 133.824 1424.02 132.564 1429.97 133.114C1432.44 133.344 1434.91 133.664 1437.34 134.164C1439.4 134.584 1441.15 135.194 1442.59 136.794C1445.38 139.894 1446.2 144.884 1445.63 148.904C1444.93 153.924 1441.12 157.204 1436.34 158.344C1431.15 159.584 1425.75 158.654 1420.48 158.944C1415.21 159.234 1410.05 161.414 1406.68 165.454C1403.31 169.494 1402.47 175.064 1404.31 180.084C1406.15 185.104 1410.43 189.474 1415.78 190.964C1419.23 191.924 1422.94 191.994 1426.49 192.214C1430.25 192.444 1434.01 192.594 1437.78 192.664C1441.55 192.734 1444.99 192.724 1448.59 192.664C1450.2 192.634 1450.2 190.134 1448.59 190.164C1441.22 190.304 1433.85 190.164 1426.49 189.724C1423.01 189.514 1419.35 189.474 1415.99 188.434C1413.42 187.644 1411.2 186.084 1409.44 184.064C1406.01 180.104 1404.53 173.994 1407.11 169.224C1409.51 164.804 1414.58 161.984 1419.5 161.534C1424.75 161.054 1430.04 161.934 1435.27 161.114C1440.21 160.334 1444.82 157.824 1446.99 153.124C1450.14 146.304 1447.82 134.574 1439.84 132.214C1435.12 130.814 1429.81 130.444 1424.91 130.454C1419.17 130.464 1412.7 130.704 1408.83 125.664C1405.9 121.844 1405.02 116.154 1407.01 111.714C1409.21 106.814 1413.79 104.454 1418.99 104.114C1428.36 103.504 1441.35 106.904 1446.82 96.6741C1449.02 92.5541 1449.24 86.9741 1447.76 82.5741C1446.13 77.7341 1440.87 74.2341 1435.88 73.9341C1429.51 73.5541 1422.8 74.0841 1416.65 72.1041C1414.09 71.2841 1411.82 69.8541 1409.98 67.8941C1408.31 66.1041 1406.87 63.3041 1406.79 60.8241C1406.7 58.0141 1407.72 54.9841 1409.16 52.5941C1410.6 50.2041 1413.12 49.1541 1415.83 48.4241C1422.46 46.6341 1429.39 46.8641 1436.2 46.7041C1439.86 46.6141 1443.51 46.5341 1447.17 46.4541C1448.78 46.4241 1448.78 43.9141 1447.17 43.9541L1447.16 43.9141Z" fill="#E3E1A4" fill-opacity="0.15"/>
<path d="M1883 199.394C1890.64 199.544 1898.81 199.714 1905.57 203.744C1911.71 207.404 1916.3 213.524 1918.11 220.434C1919.23 224.714 1919.32 229.154 1919.32 233.554C1919.32 237.954 1919.34 242.194 1918.34 246.384C1917.36 250.474 1915.27 254.114 1913 257.624C1910.94 260.804 1908.89 264.144 1906.19 266.824C1903.27 269.714 1899.64 271.034 1895.71 271.924C1891.45 272.894 1887.11 273.804 1882.75 274.134C1878.39 274.464 1874.36 274.144 1870.33 272.844C1866.81 271.704 1863.53 269.904 1860.53 267.744C1857.53 265.584 1854.73 262.974 1852.23 260.194C1849.59 257.254 1847.15 253.984 1845.8 250.234C1844.34 246.164 1844.26 241.814 1844.25 237.534C1844.24 233.254 1844.38 228.584 1845.64 224.294C1847.65 217.454 1852.48 211.594 1858.47 207.814C1864.46 204.034 1871.18 201.134 1878.07 199.844C1879.7 199.544 1881.35 199.374 1883.02 199.394C1884.69 199.414 1884.63 196.914 1883.02 196.894C1875.46 196.814 1867.82 199.914 1861.23 203.364C1854.5 206.874 1848.64 211.824 1845.19 218.704C1843.27 222.524 1842.32 226.634 1841.97 230.874C1841.58 235.514 1841.54 240.364 1842.09 244.994C1843.12 253.674 1848.43 260.574 1854.77 266.284C1860.69 271.614 1867.84 275.674 1875.86 276.574C1880.58 277.104 1885.35 276.504 1890 275.654C1894.33 274.854 1898.88 274.124 1902.89 272.234C1906.59 270.484 1909.31 267.424 1911.65 264.144C1914.14 260.664 1916.61 257.034 1918.5 253.194C1920.5 249.124 1921.43 244.834 1921.7 240.334C1921.97 235.834 1922 230.864 1921.59 226.204C1920.89 218.164 1917.71 210.714 1911.68 205.224C1908.79 202.584 1905.42 200.534 1901.71 199.264C1897.74 197.904 1893.52 197.394 1889.35 197.144C1887.24 197.024 1885.13 196.974 1883.01 196.934C1881.4 196.904 1881.4 199.404 1883.01 199.434L1883 199.394Z" fill="#E3E1A4" fill-opacity="0.15"/>
<path d="M1358.53 309.844C1366.17 309.994 1374.34 310.164 1381.1 314.194C1387.24 317.854 1391.83 323.974 1393.64 330.884C1394.76 335.164 1394.85 339.604 1394.85 344.004C1394.85 348.404 1394.87 352.644 1393.87 356.834C1392.89 360.924 1390.8 364.564 1388.53 368.074C1386.47 371.254 1384.42 374.594 1381.72 377.274C1378.8 380.164 1375.17 381.484 1371.24 382.374C1366.98 383.344 1362.64 384.254 1358.28 384.584C1353.92 384.914 1349.89 384.594 1345.86 383.294C1342.34 382.154 1339.06 380.354 1336.06 378.194C1333.06 376.034 1330.26 373.424 1327.76 370.644C1325.12 367.704 1322.68 364.434 1321.33 360.684C1319.87 356.614 1319.79 352.264 1319.78 347.984C1319.77 343.704 1319.91 339.034 1321.17 334.744C1323.18 327.904 1328.01 322.044 1334 318.264C1339.99 314.484 1346.71 311.584 1353.6 310.294C1355.23 309.994 1356.88 309.824 1358.55 309.844C1360.22 309.864 1360.16 307.364 1358.55 307.344C1350.99 307.264 1343.35 310.364 1336.76 313.814C1330.17 317.264 1324.17 322.274 1320.72 329.154C1318.8 332.974 1317.85 337.084 1317.5 341.324C1317.11 345.964 1317.07 350.814 1317.62 355.444C1318.65 364.124 1323.96 371.024 1330.3 376.734C1336.22 382.064 1343.37 386.124 1351.39 387.024C1356.11 387.554 1360.88 386.954 1365.53 386.104C1369.86 385.304 1374.41 384.574 1378.42 382.684C1382.12 380.934 1384.84 377.874 1387.18 374.594C1389.67 371.114 1392.14 367.484 1394.03 363.644C1396.03 359.574 1396.96 355.284 1397.23 350.784C1397.51 346.114 1397.53 341.314 1397.12 336.654C1396.42 328.614 1393.24 321.164 1387.21 315.674C1384.32 313.034 1380.95 310.984 1377.24 309.714C1373.27 308.354 1369.05 307.844 1364.88 307.594C1362.77 307.474 1360.66 307.424 1358.54 307.384C1356.93 307.354 1356.93 309.854 1358.54 309.884L1358.53 309.844Z" fill="#E3E1A4" fill-opacity="0.15"/>
<path d="M867.81 407.984V329.124C867.81 327.514 865.31 327.514 865.31 329.124V407.984C865.31 409.594 867.81 409.594 867.81 407.984Z" fill="#E3E1A4" fill-opacity="0.15"/>
<path d="M987.88 237.074C986.23 208.024 985.02 178.944 984.26 149.854C984.05 141.704 983.87 133.564 983.73 125.414C983.7 123.804 981.2 123.804 981.23 125.414C981.74 154.514 982.7 183.594 984.1 212.664C984.49 220.804 984.92 228.944 985.38 237.074C985.47 238.674 987.97 238.684 987.88 237.074Z" fill="#E3E1A4" fill-opacity="0.15"/>
<path d="M995.73 336.284C988.96 326.144 982.53 315.784 975.62 305.734C974.71 304.414 972.55 305.664 973.46 306.994C980.36 317.044 986.8 327.404 993.57 337.544C994.46 338.874 996.63 337.624 995.73 336.284Z" fill="#E3E1A4" fill-opacity="0.15"/>
<path d="M977.95 338.044C982.66 328.704 987.37 319.374 992.09 310.034C992.75 308.734 993.41 307.424 994.06 306.124C994.78 304.694 992.63 303.424 991.9 304.864C987.19 314.204 982.48 323.534 977.76 332.874C977.1 334.174 976.44 335.484 975.79 336.784C975.07 338.214 977.22 339.484 977.95 338.044Z" fill="#E3E1A4" fill-opacity="0.15"/>
<path d="M1003.01 319.364C993.7 319.494 984.39 319.604 975.08 319.934C972.55 320.024 970.02 320.114 967.49 320.204C965.89 320.264 965.88 322.764 967.49 322.704C977.05 322.364 986.58 322.094 996.15 321.964C998.44 321.934 1000.72 321.904 1003.01 321.874C1004.62 321.854 1004.62 319.354 1003.01 319.374V319.364Z" fill="#E3E1A4" fill-opacity="0.15"/>
<path d="M933.04 339.944C932.44 328.344 932.22 316.724 931.46 305.124C931.36 303.524 928.85 303.514 928.96 305.124C929.72 316.724 929.94 328.344 930.54 339.944C930.62 341.544 933.12 341.554 933.04 339.944Z" fill="#E3E1A4" fill-opacity="0.15"/>
<path d="M917.61 332.774C926.01 327.424 934.41 322.084 942.81 316.734C943.99 315.984 945.17 315.224 946.36 314.474C947.71 313.614 946.46 311.444 945.1 312.314C936.7 317.664 928.3 323.004 919.9 328.354C918.72 329.104 917.54 329.864 916.35 330.614C915 331.474 916.25 333.644 917.61 332.774Z" fill="#E3E1A4" fill-opacity="0.15"/>
<path d="M947.2 329.594C939.54 325.174 931.89 320.754 924.14 316.504C922 315.324 919.85 314.154 917.71 312.974C916.3 312.204 915.04 314.354 916.45 315.134C924.41 319.494 932.33 323.904 940.2 328.444C942.12 329.544 944.03 330.654 945.95 331.754C947.35 332.554 948.61 330.404 947.21 329.594H947.2Z" fill="#E3E1A4" fill-opacity="0.15"/>
<path d="M1085.97 186.664C1085.65 180.464 1085.53 174.254 1085.12 168.064C1085.07 167.264 1083.82 167.264 1083.87 168.064C1084.28 174.264 1084.39 180.464 1084.72 186.664C1084.76 187.464 1086.01 187.474 1085.97 186.664Z" fill="#E3E1A4" fill-opacity="0.15"/>
<path d="M1077.75 182.794C1082.24 179.934 1086.73 177.084 1091.22 174.224C1091.85 173.824 1092.48 173.424 1093.11 173.024C1093.79 172.594 1093.16 171.514 1092.48 171.944C1087.99 174.804 1083.5 177.654 1079.01 180.514C1078.38 180.914 1077.75 181.314 1077.12 181.714C1076.44 182.144 1077.07 183.224 1077.75 182.794Z" fill="#E3E1A4" fill-opacity="0.15"/>
<path d="M1093.56 181.174C1089.46 178.804 1085.36 176.444 1081.21 174.164C1080.07 173.544 1078.94 172.924 1077.8 172.294C1077.09 171.904 1076.46 172.984 1077.17 173.374C1081.43 175.704 1085.66 178.064 1089.87 180.494C1090.89 181.084 1091.91 181.664 1092.93 182.254C1093.63 182.654 1094.26 181.574 1093.56 181.174Z" fill="#E3E1A4" fill-opacity="0.15"/>
<path d="M722.37 166.714C724.59 160.914 727.01 155.194 729.15 149.374C729.43 148.614 728.22 148.294 727.94 149.044C725.79 154.874 723.38 160.594 721.16 166.384C720.87 167.134 722.08 167.464 722.37 166.714Z" fill="#E3E1A4" fill-opacity="0.15"/>
<path d="M716.5 159.904C721.76 159.114 727.01 158.334 732.27 157.544L734.51 157.214C735.3 157.094 734.97 155.894 734.18 156.004C728.92 156.794 723.67 157.574 718.41 158.364L716.17 158.694C715.38 158.814 715.71 160.014 716.5 159.904Z" fill="#E3E1A4" fill-opacity="0.15"/>
<path d="M731.54 164.904C728.75 161.084 725.98 157.254 723.11 153.494C722.32 152.464 721.53 151.424 720.74 150.394C720.26 149.764 719.17 150.394 719.66 151.024C722.6 154.874 725.5 158.744 728.35 162.654C729.05 163.614 729.75 164.574 730.45 165.534C730.92 166.174 732 165.554 731.53 164.904H731.54Z" fill="#E3E1A4" fill-opacity="0.15"/>
<path d="M1154.13 32.0042C1153.97 39.3842 1153.93 46.7942 1153.56 54.1642C1153.4 57.4042 1152.94 60.5542 1152.06 63.6842C1151.31 66.3542 1150.3 68.6442 1147.83 70.0942C1145.36 71.5442 1142.39 72.5342 1139.62 72.3642C1137.03 72.2042 1134.24 70.7042 1132.41 68.9142C1128.17 64.7542 1127.36 58.8742 1127.03 53.2042C1126.83 49.9042 1126.84 46.5842 1126.65 43.2842C1126.48 40.4042 1125.35 37.8342 1123.57 35.5742C1122.03 33.6242 1120.12 32.0542 1117.73 31.3142C1115.34 30.5742 1112.83 30.4342 1110.41 30.5942C1105.67 30.9142 1101.19 33.1042 1098.74 37.3142C1096.09 41.8742 1096.3 47.2942 1096.45 52.3742C1096.59 57.3942 1097.12 62.9842 1094.38 67.4642C1091.64 71.9442 1086.32 73.8242 1081.37 73.0342C1075.99 72.1742 1071.78 68.5942 1070.62 63.2042C1069.99 60.2742 1070.13 57.2342 1070.14 54.2642C1070.14 51.5342 1069.96 48.8542 1069.61 46.1542C1069.05 41.8042 1068.6 37.2042 1064.92 34.3142C1061.58 31.6942 1056.98 30.7042 1052.8 30.9542C1048.29 31.2242 1044.2 33.3342 1041.79 37.2542C1039.13 41.5742 1039.03 46.7942 1039.12 51.7042C1039.22 57.0842 1039.45 62.3242 1036.51 67.0842C1033.57 71.8442 1028.86 74.1842 1023.54 73.1442C1018.22 72.1042 1013.5 68.0742 1012.02 62.7542C1011.08 59.3642 1011.04 55.7142 1010.83 52.2142C1010.62 48.7142 1010.48 45.0142 1010.41 41.4142C1010.34 37.8142 1010.35 34.2042 1010.41 30.6042C1010.44 28.9942 1007.94 28.9942 1007.91 30.6042C1007.76 38.1342 1007.91 45.6742 1008.38 53.1942C1008.6 56.7342 1008.67 60.4442 1009.73 63.8642C1010.54 66.4842 1012.01 68.8742 1013.96 70.7942C1017.72 74.4842 1023.19 76.5542 1028.45 75.6842C1033.71 74.8142 1037.87 70.6342 1039.95 65.8442C1042.13 60.8042 1041.64 55.4242 1041.58 50.0642C1041.53 45.1242 1042.05 39.4942 1046.04 36.0442C1049.37 33.1542 1054.19 32.9342 1058.3 33.9542C1060.31 34.4542 1062.32 35.2842 1063.86 36.7042C1065.4 38.1242 1066.01 39.9542 1066.42 42.0142C1066.91 44.4742 1067.24 46.9742 1067.46 49.4742C1067.73 52.5842 1067.54 55.6942 1067.63 58.8042C1067.81 64.5442 1069.52 69.9742 1074.6 73.1742C1078.84 75.8342 1084.53 76.5642 1089.22 74.7242C1094.16 72.7842 1097.47 68.6442 1098.53 63.4842C1099.59 58.3242 1098.74 52.5142 1098.88 47.0742C1099.01 41.9942 1100.52 36.9342 1105.31 34.4442C1107.52 33.2942 1109.99 33.0142 1112.45 33.0742C1114.91 33.1342 1117.42 33.4542 1119.37 34.9142C1121.56 36.5542 1123.35 39.1342 1123.96 41.8142C1124.31 43.3442 1124.23 45.0042 1124.28 46.5642C1124.34 48.3442 1124.38 50.1242 1124.46 51.9042C1124.72 57.7242 1125.27 64.0042 1128.95 68.7842C1130.69 71.0442 1132.84 72.6942 1135.47 73.8142C1138.1 74.9342 1140.33 75.0942 1143 74.5742C1145.67 74.0542 1148.65 72.9042 1150.83 71.0942C1153.01 69.2842 1153.89 66.5942 1154.59 64.0342C1156.44 57.1942 1156.23 50.0342 1156.4 43.0042C1156.49 39.3442 1156.57 35.6942 1156.65 32.0342C1156.68 30.4242 1154.18 30.4242 1154.15 32.0342L1154.13 32.0042Z" fill="#E3E1A4" fill-opacity="0.15"/>
<path d="M776.76 366.834C769.38 366.674 761.97 366.634 754.6 366.264C751.36 366.104 748.21 365.644 745.08 364.764C742.41 364.014 740.12 363.004 738.67 360.534C737.22 358.064 736.23 355.094 736.4 352.324C736.56 349.734 738.06 346.944 739.85 345.114C744.01 340.874 749.89 340.064 755.56 339.734C758.86 339.534 762.18 339.544 765.48 339.354C768.36 339.184 770.93 338.054 773.19 336.274C775.14 334.734 776.71 332.824 777.45 330.434C778.19 328.044 778.33 325.534 778.17 323.114C777.85 318.374 775.66 313.894 771.45 311.444C766.89 308.794 761.47 309.004 756.39 309.154C751.31 309.304 745.78 309.824 741.3 307.084C736.82 304.344 734.94 299.024 735.73 294.074C736.59 288.694 740.17 284.484 745.56 283.324C748.49 282.694 751.53 282.834 754.5 282.844C757.23 282.844 759.91 282.664 762.61 282.314C766.96 281.754 771.56 281.304 774.45 277.624C777.07 274.284 778.06 269.684 777.81 265.504C777.54 260.994 775.43 256.904 771.51 254.494C767.19 251.834 761.97 251.734 757.06 251.824C751.68 251.924 746.44 252.154 741.68 249.214C736.92 246.274 734.58 241.564 735.62 236.244C736.66 230.924 740.69 226.204 746.01 224.724C749.4 223.784 753.05 223.744 756.55 223.534C760.05 223.324 763.75 223.184 767.35 223.114C770.95 223.044 774.56 223.054 778.16 223.114C779.77 223.144 779.77 220.644 778.16 220.614C770.63 220.464 763.09 220.614 755.57 221.084C752.03 221.304 748.32 221.374 744.9 222.434C742.28 223.244 739.89 224.714 737.97 226.664C734.28 230.424 732.21 235.894 733.08 241.154C733.95 246.414 738.13 250.574 742.92 252.654C747.96 254.834 753.34 254.344 758.7 254.284C763.64 254.234 769.27 254.754 772.72 258.744C775.61 262.074 775.83 266.894 774.81 271.004C774.31 273.014 773.48 275.024 772.06 276.564C770.64 278.104 768.81 278.714 766.75 279.124C764.29 279.614 761.79 279.944 759.29 280.164C756.18 280.434 753.07 280.244 749.96 280.334C744.22 280.514 738.79 282.224 735.59 287.304C732.93 291.544 732.2 297.234 734.04 301.924C735.98 306.864 740.12 310.174 745.28 311.234C750.44 312.294 756.25 311.444 761.69 311.584C766.77 311.714 771.83 313.224 774.32 318.014C775.47 320.224 775.75 322.694 775.69 325.154C775.63 327.614 775.31 330.124 773.85 332.074C772.21 334.264 769.63 336.054 766.95 336.664C765.42 337.014 763.76 336.934 762.2 336.984C760.42 337.044 758.64 337.084 756.86 337.164C751.04 337.424 744.76 337.974 739.98 341.654C737.72 343.394 736.07 345.544 734.95 348.174C733.83 350.804 733.67 353.034 734.19 355.704C734.71 358.374 735.86 361.354 737.67 363.534C739.48 365.714 742.17 366.594 744.73 367.294C751.57 369.144 758.73 368.934 765.76 369.104C769.42 369.194 773.07 369.274 776.73 369.354C778.34 369.384 778.34 366.884 776.73 366.854L776.76 366.834Z" fill="#E3E1A4" fill-opacity="0.15"/>
<path d="M1212.59 216.344C1220.81 216.184 1229.54 215.894 1236.75 211.454C1243.2 207.484 1248.07 201.014 1250.05 193.704C1251.28 189.154 1251.41 184.384 1251.41 179.694C1251.41 175.004 1251.41 170.444 1250.28 165.974C1249.15 161.504 1247.01 157.844 1244.62 154.184C1242.41 150.784 1240.2 147.204 1237.25 144.384C1234.3 141.564 1230.43 139.964 1226.38 139.014C1221.84 137.954 1217.21 137.014 1212.56 136.634C1203.93 135.924 1195.85 138.314 1188.84 143.344C1185.56 145.694 1182.58 148.434 1179.9 151.444C1177.22 154.454 1174.62 158.014 1173.12 161.954C1171.48 166.254 1171.35 170.934 1171.33 175.474C1171.31 180.014 1171.46 184.914 1172.75 189.434C1174.84 196.744 1179.85 203.004 1186.14 207.174C1189.26 209.244 1192.66 210.924 1196.11 212.374C1199.73 213.904 1203.48 215.194 1207.36 215.874C1209.09 216.174 1210.84 216.364 1212.6 216.344C1214.21 216.324 1214.21 213.824 1212.6 213.844C1205.61 213.914 1198.52 211.044 1192.41 207.894C1186.3 204.744 1180.57 200.194 1177.2 193.784C1175.33 190.234 1174.39 186.344 1174.05 182.364C1173.69 178.094 1173.67 173.674 1174.05 169.404C1174.43 165.134 1175.78 161.224 1178.18 157.644C1180.31 154.454 1182.99 151.584 1185.82 148.994C1191.33 143.954 1198.13 139.944 1205.68 139.134C1210.18 138.654 1214.72 139.214 1219.15 140.034C1223.16 140.784 1227.49 141.414 1231.21 143.164C1234.72 144.824 1237.24 147.734 1239.43 150.864C1241.62 153.994 1243.95 157.404 1245.73 160.924C1247.68 164.774 1248.56 168.864 1248.8 173.154C1249.04 177.444 1249.06 181.984 1248.74 186.344C1248.17 194.004 1245.24 201.044 1239.51 206.274C1233.67 211.604 1226.21 213.224 1218.52 213.644C1216.55 213.754 1214.58 213.794 1212.61 213.834C1211 213.864 1211 216.364 1212.61 216.334L1212.59 216.344Z" fill="#E3E1A4" fill-opacity="0.15"/>
<path d="M688.12 105.904C696.34 105.744 705.07 105.454 712.28 101.014C718.73 97.0442 723.6 90.5742 725.58 83.2642C726.81 78.7142 726.94 73.9442 726.94 69.2542C726.94 64.5642 726.94 60.0042 725.81 55.5342C724.68 51.0642 722.54 47.4042 720.15 43.7442C717.94 40.3442 715.73 36.7642 712.78 33.9442C709.83 31.1242 705.96 29.5242 701.91 28.5742C697.37 27.5142 692.74 26.5742 688.09 26.1942C679.46 25.4842 671.38 27.8742 664.37 32.9042C661.09 35.2542 658.11 37.9942 655.43 41.0042C652.75 44.0142 650.15 47.5742 648.65 51.5142C647.01 55.8142 646.88 60.4942 646.86 65.0342C646.84 69.5742 646.99 74.4742 648.28 78.9942C650.37 86.3042 655.38 92.5642 661.67 96.7342C664.79 98.8042 668.19 100.484 671.64 101.934C675.26 103.464 679.01 104.754 682.89 105.434C684.62 105.734 686.37 105.924 688.13 105.904C689.74 105.884 689.74 103.384 688.13 103.404C681.14 103.474 674.05 100.604 667.94 97.4542C661.83 94.3042 656.1 89.7542 652.73 83.3442C650.86 79.7942 649.92 75.9042 649.58 71.9242C649.22 67.6542 649.2 63.2342 649.58 58.9642C649.96 54.6742 651.31 50.7842 653.71 47.2042C655.84 44.0142 658.52 41.1442 661.35 38.5542C666.86 33.5142 673.66 29.5042 681.21 28.6942C685.71 28.2142 690.25 28.7742 694.68 29.5942C698.69 30.3442 703.02 30.9742 706.74 32.7242C710.25 34.3842 712.77 37.2942 714.96 40.4242C717.15 43.5542 719.48 46.9642 721.26 50.4842C723.21 54.3342 724.09 58.4242 724.33 62.7142C724.57 67.0042 724.59 71.5442 724.27 75.9042C723.7 83.5642 720.77 90.6042 715.04 95.8342C709.31 101.064 701.74 102.784 694.05 103.204C692.08 103.314 690.11 103.354 688.14 103.394C686.53 103.424 686.53 105.924 688.14 105.894L688.12 105.904Z" fill="#E3E1A4" fill-opacity="0.15"/>
<path d="M389.31 402.174C390.96 395.684 391.11 389.094 390.52 382.474C383.19 379.014 377.08 374.804 375.39 367.924C373.97 359.264 363.14 352.164 361.34 347.424C357.47 340.074 351.27 343.034 345.36 322.994C349.82 330.894 354.1 333.894 356.76 334.854C361.45 336.514 362.5 338.884 367.51 341.704C374.5 345.324 384.26 349.074 384.34 358.424C384.49 367.104 386.17 374.634 390.32 380.354C389.74 375.054 388.74 369.724 387.74 364.384C387.74 364.364 387.74 364.344 387.72 364.324C386.72 358.914 385.7 353.504 385.13 348.104C382.98 340.294 380.03 336.754 377.95 335.344C374.08 332.734 373.69 330.154 369.81 326.334C364.32 321.304 356.32 315.574 358.48 306.244C360.82 295.714 360.71 286.404 356.36 279.184C363.21 284.624 368.98 290.484 368.88 298.594C368.11 307.504 376.27 316.784 376.79 321.864C378.21 328.384 382.58 328.574 384.56 339.374C384.3 329.084 385.5 318.834 387.54 308.664C386.52 300.624 384.05 296.214 382.03 294.044C377.74 289.484 377.93 286.224 373.96 280.194C368.23 272.124 359.45 262.294 364.76 251.784C370.62 239.914 372.98 228.614 369.32 218.314C376.7 227.384 382.56 236.564 380.24 246.314C376.83 256.814 384.87 270.994 384.16 277.324C384.23 285.434 389.44 287.404 389.48 299.934C390.6 295.334 391.85 290.744 393.18 286.184C394.86 274.574 397.63 264.174 405.62 259.594C415.05 255.264 419.85 239.234 424.7 235.534C431.91 228.404 426.65 221.284 447.69 207.834C440.04 215.884 437.92 222.264 437.64 225.974C437.18 232.504 434.79 234.554 433.1 241.814C431.09 251.884 429.78 265.564 419.15 268.384C412.3 270.274 406.3 272.964 401.53 276.774C395.6 295.744 390.26 315.164 389.8 334.764C395.02 329.254 396.82 324.804 397.24 321.974C398.14 315.774 400.81 313.884 403.06 307.034C405.83 297.524 408.06 284.544 419.58 282.164C432.52 279.364 442.84 274.194 448.63 264.914C446.11 276.324 442.58 286.624 433.49 290.874C423.15 294.744 417.05 309.854 411.65 313.234C404.07 319.364 408.05 325.794 389.76 336.524C389.72 340.474 389.89 344.444 390.29 348.424C390.57 351.254 390.99 354.084 391.46 356.914C400.17 341.484 406.39 344.214 411.7 336.744C414.75 331.134 429.45 324.104 432.68 313.554C436.36 304.234 446.43 300.064 457.66 296.844C448.75 303.194 444.23 313.814 442.24 326.894C440.58 338.554 427.75 341.584 418.44 344.924C411.73 347.594 410.01 350.384 403.89 351.664C401.15 352.244 396.95 354.234 391.92 359.514C394.51 374.194 398.2 388.874 394.56 403.144C392.42 408.484 388.2 407.844 389.35 402.194L389.31 402.174Z" fill="#E3E1A4" fill-opacity="0.15"/>
<path d="M4.77997 122.874C11.44 122.194 17.68 120.064 23.69 117.234C24.42 109.164 26.27 101.974 32.15 98.0142C39.79 93.7042 42.73 81.0942 46.56 77.7742C52.13 71.6142 47.22 66.8142 64 54.3642C58.12 61.2742 56.78 66.3242 56.79 69.1542C56.85 74.1242 54.98 75.9342 54.05 81.6042C53.06 89.4142 52.9 99.8742 44.14 103.164C36.05 106.284 29.55 110.464 25.61 116.314C30.39 113.944 35.05 111.174 39.72 108.404C39.74 108.404 39.76 108.384 39.77 108.364C44.51 105.564 49.24 102.744 54.11 100.344C60.7 95.6342 63.01 91.6542 63.62 89.2142C64.74 84.6842 67.02 83.4242 69.28 78.4642C72.11 71.5742 74.74 62.1042 84.25 60.9142C94.94 59.4942 103.65 56.1842 108.93 49.6142C106.18 57.9242 102.66 65.3542 95.01 68.0442C86.38 70.3842 80.48 81.2342 75.88 83.4742C70.24 87.0442 71.57 91.2242 62.11 96.7942C71.69 93.0042 81.72 90.6142 91.97 89.0242C99.17 85.2942 102.46 81.4642 103.8 78.8142C106.6 73.2242 109.73 72.2742 114.03 66.4742C119.64 58.3142 125.85 46.6942 137.54 48.0642C150.7 49.4742 162.12 47.8142 170.54 40.8342C164.56 50.8842 157.96 59.5442 148 60.7142C136.97 61.1242 126.42 73.5442 120.23 75.0642C112.64 77.9242 112.58 83.4842 100.83 87.8342C105.54 87.3042 110.27 86.8942 115.01 86.5842C126.49 84.1642 137.21 83.1842 144.26 89.1142C151.58 96.4842 168.27 95.4742 173.42 98.7542C182.59 103.074 187.47 95.6842 207.34 110.804C197.15 106.394 190.43 106.594 186.85 107.604C180.56 109.414 177.82 107.874 170.42 108.794C160.28 110.374 146.98 113.854 140.67 104.834C136.53 99.0542 131.95 94.3442 126.73 91.1742C106.88 92.1342 86.81 93.8042 68.25 100.114C75.22 103.114 80.02 103.274 82.82 102.704C88.95 101.424 91.64 103.274 98.85 103.024C108.73 102.354 121.69 99.9842 127.89 109.984C134.97 121.174 143.37 129.084 154.08 131.324C142.5 132.884 131.61 133.114 124.49 126.044C117.3 117.664 101.02 117.134 95.98 113.234C87.62 108.224 82.95 114.174 66.58 100.694C62.85 102.014 59.18 103.534 55.59 105.284C53.03 106.524 50.52 107.884 48.02 109.304C65.51 112.174 65.08 118.954 73.93 121.374C80.24 122.314 91.9 133.694 102.92 133.094C112.94 133.344 120.32 141.364 127.2 150.804C118.17 144.624 106.65 144.024 93.68 146.654C82.16 149.104 74.9 138.104 68.56 130.504C63.74 125.124 60.54 124.464 57.23 119.154C55.74 116.774 52.43 113.524 45.74 110.614C32.84 118.094 20.33 126.614 5.67997 128.104C-0.0700278 127.924 -0.930027 123.744 4.77997 122.884V122.874Z" fill="#E3E1A4" fill-opacity="0.15"/>
</svg>
