<svg width="1920" height="451" viewBox="0 0 1920 451" fill="none" xmlns="http://www.w3.org/2000/svg">
<path d="M538.105 161.6C538.105 170.667 536.071 178.567 532.005 185.3C528.005 191.967 522.405 197.167 515.205 200.9C508.071 204.567 499.805 206.4 490.405 206.4C483.871 206.4 477.838 205.633 472.305 204.1C466.838 202.567 461.805 200.1 457.205 196.7L457.605 195.6C460.671 197.733 463.738 199.433 466.805 200.7C469.871 201.9 472.905 202.767 475.905 203.3C478.905 203.767 481.771 204 484.505 204C491.038 204 496.805 202.267 501.805 198.8C506.805 195.267 510.738 190.267 513.605 183.8C516.471 177.333 517.905 169.767 517.905 161.1C517.905 150.7 516.071 141.8 512.405 134.4C508.738 127 503.638 121.367 497.105 117.5C490.638 113.567 483.205 111.6 474.805 111.6H463.905V244.8C463.905 245.467 464.138 246.033 464.605 246.5C465.138 246.9 465.938 247.2 467.005 247.4L476.905 248.8C477.171 248.867 477.371 248.967 477.505 249.1C477.638 249.167 477.705 249.267 477.705 249.4C477.705 249.6 477.638 249.767 477.505 249.9C477.438 249.967 477.238 250 476.905 250H430.405C430.071 250 429.838 249.967 429.705 249.9C429.571 249.767 429.505 249.6 429.505 249.4C429.505 249.133 429.805 248.933 430.405 248.8L440.305 247.3C441.371 247.167 442.138 246.9 442.605 246.5C443.071 246.033 443.305 245.5 443.305 244.9V115.4C443.305 114.667 443.071 114.067 442.605 113.6C442.138 113.133 441.438 112.833 440.505 112.7L430.205 111.2C429.738 111.133 429.505 110.933 429.505 110.6C429.505 110.4 429.571 110.267 429.705 110.2C429.838 110.067 430.038 110 430.305 110H474.805C487.338 110 498.338 112.133 507.805 116.4C517.338 120.667 524.771 126.7 530.105 134.5C535.438 142.233 538.105 151.267 538.105 161.6ZM614.545 108C624.279 108 633.179 109.8 641.245 113.4C649.312 116.933 656.279 121.933 662.145 128.4C668.079 134.8 672.645 142.367 675.845 151.1C679.045 159.833 680.645 169.367 680.645 179.7C680.645 190.567 679.012 200.467 675.745 209.4C672.545 218.267 667.945 225.867 661.945 232.2C656.012 238.533 648.979 243.433 640.845 246.9C632.712 250.3 623.779 252 614.045 252C604.245 252 595.312 250.233 587.245 246.7C579.179 243.167 572.179 238.167 566.245 231.7C560.379 225.167 555.845 217.5 552.645 208.7C549.445 199.9 547.845 190.2 547.845 179.6C547.845 168.867 549.479 159.1 552.745 150.3C556.012 141.5 560.612 133.967 566.545 127.7C572.545 121.433 579.612 116.6 587.745 113.2C595.879 109.733 604.812 108 614.545 108ZM659.445 195.1C659.445 185.633 658.612 176.667 656.945 168.2C655.279 159.733 652.879 151.967 649.745 144.9C646.679 137.833 643.012 131.733 638.745 126.6C634.545 121.4 629.912 117.4 624.845 114.6C619.779 111.8 614.379 110.4 608.645 110.4C600.845 110.4 593.945 112.467 587.945 116.6C582.012 120.733 577.345 126.8 573.945 134.8C570.545 142.733 568.845 152.5 568.845 164.1C568.845 173.633 569.679 182.7 571.345 191.3C573.079 199.9 575.479 207.767 578.545 214.9C581.679 221.967 585.345 228.1 589.545 233.3C593.812 238.5 598.512 242.533 603.645 245.4C608.779 248.2 614.212 249.6 619.945 249.6C627.812 249.6 634.712 247.567 640.645 243.5C646.579 239.433 651.179 233.367 654.445 225.3C657.779 217.167 659.445 207.1 659.445 195.1ZM803.153 158.3C803.153 165.1 801.686 171.2 798.753 176.6C795.82 181.933 791.72 186.367 786.453 189.9C781.186 193.367 774.953 195.7 767.753 196.9C766.553 197.1 765.286 197.3 763.953 197.5C762.686 197.633 761.386 197.733 760.053 197.8C758.786 197.8 757.453 197.8 756.053 197.8C751.32 197.8 746.953 197.5 742.953 196.9C739.02 196.3 735.453 195.367 732.253 194.1C729.12 192.833 726.32 191.2 723.853 189.2L724.753 187.9C727.086 189.767 729.686 191.267 732.553 192.4C735.42 193.533 738.42 194.333 741.553 194.8C744.686 195.267 747.82 195.5 750.953 195.5C760.486 195.5 768.086 192.4 773.753 186.2C779.486 180 782.353 170.8 782.353 158.6C782.353 149.533 780.52 141.467 776.853 134.4C773.253 127.333 768.22 121.8 761.753 117.8C755.353 113.733 747.986 111.7 739.653 111.7H728.553V243.9C728.553 245.033 728.82 245.867 729.353 246.4C729.953 246.867 730.853 247.2 732.053 247.4L741.353 248.8C741.753 248.8 742.02 248.867 742.153 249C742.286 249.067 742.353 249.2 742.353 249.4C742.353 249.8 742.086 250 741.553 250H694.953C694.686 250 694.486 249.933 694.353 249.8C694.22 249.667 694.153 249.533 694.153 249.4C694.153 249.067 694.486 248.867 695.153 248.8L704.453 247.4C705.653 247.2 706.52 246.867 707.053 246.4C707.653 245.867 707.953 245.033 707.953 243.9V115.2C707.953 114.4 707.653 113.8 707.053 113.4C706.52 113 705.653 112.733 704.453 112.6L695.153 111.2C694.486 111.133 694.153 110.933 694.153 110.6C694.153 110.4 694.22 110.267 694.353 110.2C694.486 110.067 694.686 110 694.953 110H739.553C753.02 110 764.486 112 773.953 116C783.42 120 790.653 125.633 795.653 132.9C800.653 140.1 803.153 148.567 803.153 158.3ZM753.853 196.4L773.053 194.2L802.453 241.8C804.12 244.467 805.886 246.2 807.753 247C809.686 247.8 811.753 248.4 813.953 248.8C814.353 248.867 814.62 248.933 814.753 249C814.886 249.067 814.953 249.2 814.953 249.4C814.953 249.533 814.886 249.667 814.753 249.8C814.62 249.933 814.42 250 814.153 250H774.153C773.553 250 773.253 249.8 773.253 249.4C773.253 249.2 773.32 249.1 773.453 249.1C773.653 249.033 773.92 248.933 774.253 248.8L779.453 248C780.986 247.667 781.886 247 782.153 246C782.42 244.933 781.986 243.433 780.853 241.5L753.853 196.4ZM831.116 110H913.916C915.116 110 916.282 109.767 917.416 109.3C918.549 108.767 919.516 108.267 920.316 107.8C921.182 107.333 921.782 107.1 922.116 107.1C922.249 107.1 922.382 107.2 922.516 107.4C922.649 107.6 922.816 108.133 923.016 109L929.316 144.2C929.449 144.6 929.482 144.933 929.416 145.2C929.349 145.467 929.216 145.6 929.016 145.6C928.816 145.667 928.616 145.633 928.416 145.5C928.282 145.367 928.149 145.133 928.016 144.8C924.416 135.333 921.082 128.233 918.016 123.5C914.949 118.7 911.916 115.533 908.916 114C905.916 112.4 902.816 111.6 899.616 111.6H883.416V244.8C883.416 245.6 883.682 246.2 884.216 246.6C884.816 247 885.716 247.267 886.916 247.4L896.216 248.8C896.882 248.867 897.216 249.067 897.216 249.4C897.216 249.8 896.949 250 896.416 250H849.816C849.549 250 849.349 249.933 849.216 249.8C849.082 249.667 849.016 249.533 849.016 249.4C849.016 249.067 849.349 248.867 850.016 248.8L859.316 247.4C860.516 247.267 861.382 247 861.916 246.6C862.516 246.2 862.816 245.6 862.816 244.8V111.6H846.616C843.349 111.6 840.216 112.5 837.216 114.3C834.282 116.033 831.282 119.3 828.216 124.1C825.149 128.833 821.816 135.733 818.216 144.8C818.149 145.133 818.016 145.367 817.816 145.5C817.616 145.633 817.416 145.667 817.216 145.6C817.016 145.6 816.882 145.467 816.816 145.2C816.816 144.933 816.849 144.6 816.916 144.2L823.216 109C823.416 108.133 823.582 107.6 823.716 107.4C823.849 107.2 823.982 107.1 824.116 107.1C824.382 107.1 824.849 107.333 825.516 107.8C826.182 108.267 826.982 108.767 827.916 109.3C828.916 109.767 829.982 110 831.116 110ZM1016.86 110C1018.26 110 1019.52 109.767 1020.66 109.3C1021.86 108.767 1022.82 108.267 1023.56 107.8C1024.36 107.333 1024.86 107.1 1025.06 107.1C1025.19 107.1 1025.32 107.2 1025.46 107.4C1025.59 107.533 1025.76 108.033 1025.96 108.9L1034.26 141.6C1034.39 141.933 1034.42 142.2 1034.36 142.4C1034.29 142.533 1034.19 142.6 1034.06 142.6C1033.92 142.667 1033.79 142.667 1033.66 142.6C1033.52 142.533 1033.32 142.367 1033.06 142.1C1029.06 134.3 1025.32 128.2 1021.86 123.8C1018.46 119.333 1015.06 116.2 1011.66 114.4C1008.32 112.6 1004.76 111.7 1000.96 111.7H974.256V244.8C974.256 245.6 974.623 246.2 975.356 246.6C976.156 247 977.356 247.267 978.956 247.4L991.456 248.8C991.856 248.8 992.123 248.867 992.256 249C992.389 249.067 992.456 249.2 992.456 249.4C992.456 249.533 992.389 249.667 992.256 249.8C992.123 249.933 991.923 250 991.656 250H940.656C940.389 250 940.189 249.933 940.056 249.8C939.923 249.667 939.856 249.533 939.856 249.4C939.856 249.067 940.189 248.867 940.856 248.8L950.156 247.4C951.356 247.267 952.223 247 952.756 246.6C953.356 246.2 953.656 245.6 953.656 244.8V115.2C953.656 114.4 953.356 113.8 952.756 113.4C952.223 113 951.356 112.733 950.156 112.6L940.856 111.2C940.189 111.133 939.856 110.933 939.856 110.6C939.856 110.4 939.923 110.267 940.056 110.2C940.189 110.067 940.389 110 940.656 110H1016.86ZM968.456 179.8H997.756C1003.02 179.8 1006.96 178.667 1009.56 176.4C1012.16 174.067 1013.49 169.833 1013.56 163.7C1013.62 163.367 1013.69 163.167 1013.76 163.1C1013.89 162.967 1013.99 162.9 1014.06 162.9C1014.52 162.833 1014.86 163.2 1015.06 164L1023.16 196C1023.29 196.267 1023.32 196.5 1023.26 196.7C1023.19 196.9 1023.06 197.033 1022.86 197.1C1022.79 197.1 1022.66 197.1 1022.46 197.1C1022.32 197.033 1022.12 196.9 1021.86 196.7C1019.32 192.767 1017.02 189.7 1014.96 187.5C1012.89 185.3 1010.72 183.767 1008.46 182.9C1006.19 181.967 1003.42 181.5 1000.16 181.5H968.456V179.8ZM1109.86 108C1119.59 108 1128.49 109.8 1136.56 113.4C1144.62 116.933 1151.59 121.933 1157.46 128.4C1163.39 134.8 1167.96 142.367 1171.16 151.1C1174.36 159.833 1175.96 169.367 1175.96 179.7C1175.96 190.567 1174.32 200.467 1171.06 209.4C1167.86 218.267 1163.26 225.867 1157.26 232.2C1151.32 238.533 1144.29 243.433 1136.16 246.9C1128.02 250.3 1119.09 252 1109.36 252C1099.56 252 1090.62 250.233 1082.56 246.7C1074.49 243.167 1067.49 238.167 1061.56 231.7C1055.69 225.167 1051.16 217.5 1047.96 208.7C1044.76 199.9 1043.16 190.2 1043.16 179.6C1043.16 168.867 1044.79 159.1 1048.06 150.3C1051.32 141.5 1055.92 133.967 1061.86 127.7C1067.86 121.433 1074.92 116.6 1083.06 113.2C1091.19 109.733 1100.12 108 1109.86 108ZM1154.76 195.1C1154.76 185.633 1153.92 176.667 1152.26 168.2C1150.59 159.733 1148.19 151.967 1145.06 144.9C1141.99 137.833 1138.32 131.733 1134.06 126.6C1129.86 121.4 1125.22 117.4 1120.16 114.6C1115.09 111.8 1109.69 110.4 1103.96 110.4C1096.16 110.4 1089.26 112.467 1083.26 116.6C1077.32 120.733 1072.66 126.8 1069.26 134.8C1065.86 142.733 1064.16 152.5 1064.16 164.1C1064.16 173.633 1064.99 182.7 1066.66 191.3C1068.39 199.9 1070.79 207.767 1073.86 214.9C1076.99 221.967 1080.66 228.1 1084.86 233.3C1089.12 238.5 1093.82 242.533 1098.96 245.4C1104.09 248.2 1109.52 249.6 1115.26 249.6C1123.12 249.6 1130.02 247.567 1135.96 243.5C1141.89 239.433 1146.49 233.367 1149.76 225.3C1153.09 217.167 1154.76 207.1 1154.76 195.1ZM1236.67 111.2L1227.37 112.6C1226.17 112.733 1225.27 113 1224.67 113.4C1224.13 113.8 1223.87 114.4 1223.87 115.2V244.4C1223.87 245.8 1224.27 246.8 1225.07 247.4C1225.93 248 1227.17 248.3 1228.77 248.3H1253.87C1257.07 248.3 1260 247.733 1262.67 246.6C1265.33 245.467 1267.9 243.433 1270.37 240.5C1272.9 237.567 1275.47 233.333 1278.07 227.8L1286.37 210C1286.57 209.667 1286.73 209.433 1286.87 209.3C1287 209.167 1287.17 209.133 1287.37 209.2C1287.63 209.2 1287.77 209.333 1287.77 209.6C1287.83 209.8 1287.8 210.133 1287.67 210.6L1278.67 251C1278.47 251.8 1278.3 252.3 1278.17 252.5C1278.03 252.767 1277.9 252.9 1277.77 252.9C1277.3 252.9 1276.63 252.667 1275.77 252.2C1274.97 251.733 1273.87 251.233 1272.47 250.7C1271.13 250.233 1269.37 250 1267.17 250H1190.27C1190 250 1189.8 249.933 1189.67 249.8C1189.53 249.667 1189.47 249.533 1189.47 249.4C1189.47 249.067 1189.8 248.867 1190.47 248.8L1199.77 247.4C1200.97 247.267 1201.83 247 1202.37 246.6C1202.97 246.2 1203.27 245.6 1203.27 244.8V115.2C1203.27 114.4 1202.97 113.8 1202.37 113.4C1201.83 113 1200.97 112.733 1199.77 112.6L1190.47 111.2C1189.8 111.133 1189.47 110.933 1189.47 110.6C1189.47 110.4 1189.53 110.267 1189.67 110.2C1189.8 110.067 1190 110 1190.27 110H1236.87C1237.13 110 1237.33 110.067 1237.47 110.2C1237.6 110.267 1237.67 110.4 1237.67 110.6C1237.67 110.933 1237.33 111.133 1236.67 111.2ZM1331.09 244.8C1331.09 245.6 1331.36 246.2 1331.89 246.6C1332.49 247 1333.39 247.267 1334.59 247.4L1343.89 248.8C1344.56 248.867 1344.89 249.067 1344.89 249.4C1344.89 249.6 1344.83 249.767 1344.69 249.9C1344.56 249.967 1344.36 250 1344.09 250H1297.49C1297.23 250 1297.03 249.967 1296.89 249.9C1296.76 249.767 1296.69 249.6 1296.69 249.4C1296.69 249.067 1297.03 248.867 1297.69 248.8L1306.99 247.4C1308.19 247.267 1309.06 247 1309.59 246.6C1310.19 246.2 1310.49 245.6 1310.49 244.8V115.2C1310.49 114.4 1310.19 113.8 1309.59 113.4C1309.06 113 1308.19 112.733 1306.99 112.6L1297.69 111.2C1297.03 111.133 1296.69 110.933 1296.69 110.6C1296.69 110.4 1296.76 110.267 1296.89 110.2C1297.03 110.067 1297.23 110 1297.49 110H1344.09C1344.36 110 1344.56 110.067 1344.69 110.2C1344.83 110.267 1344.89 110.4 1344.89 110.6C1344.89 110.933 1344.56 111.133 1343.89 111.2L1334.59 112.6C1333.39 112.733 1332.49 113 1331.89 113.4C1331.36 113.8 1331.09 114.4 1331.09 115.2V244.8ZM1425.29 108C1435.02 108 1443.92 109.8 1451.99 113.4C1460.05 116.933 1467.02 121.933 1472.89 128.4C1478.82 134.8 1483.39 142.367 1486.59 151.1C1489.79 159.833 1491.39 169.367 1491.39 179.7C1491.39 190.567 1489.75 200.467 1486.49 209.4C1483.29 218.267 1478.69 225.867 1472.69 232.2C1466.75 238.533 1459.72 243.433 1451.59 246.9C1443.45 250.3 1434.52 252 1424.79 252C1414.99 252 1406.05 250.233 1397.99 246.7C1389.92 243.167 1382.92 238.167 1376.99 231.7C1371.12 225.167 1366.59 217.5 1363.39 208.7C1360.19 199.9 1358.59 190.2 1358.59 179.6C1358.59 168.867 1360.22 159.1 1363.49 150.3C1366.75 141.5 1371.35 133.967 1377.29 127.7C1383.29 121.433 1390.35 116.6 1398.49 113.2C1406.62 109.733 1415.55 108 1425.29 108ZM1470.19 195.1C1470.19 185.633 1469.35 176.667 1467.69 168.2C1466.02 159.733 1463.62 151.967 1460.49 144.9C1457.42 137.833 1453.75 131.733 1449.49 126.6C1445.29 121.4 1440.65 117.4 1435.59 114.6C1430.52 111.8 1425.12 110.4 1419.39 110.4C1411.59 110.4 1404.69 112.467 1398.69 116.6C1392.75 120.733 1388.09 126.8 1384.69 134.8C1381.29 142.733 1379.59 152.5 1379.59 164.1C1379.59 173.633 1380.42 182.7 1382.09 191.3C1383.82 199.9 1386.22 207.767 1389.29 214.9C1392.42 221.967 1396.09 228.1 1400.29 233.3C1404.55 238.5 1409.25 242.533 1414.39 245.4C1419.52 248.2 1424.95 249.6 1430.69 249.6C1438.55 249.6 1445.45 247.567 1451.39 243.5C1457.32 239.433 1461.92 233.367 1465.19 225.3C1468.52 217.167 1470.19 207.1 1470.19 195.1Z" fill="#E3E1A4"/>
<path d="M766.1 367.352H782.164V371H761.62V326.264H766.1V367.352ZM818.829 336.056V371H814.349V364.856C813.325 367.032 811.747 368.696 809.613 369.848C807.48 371 805.091 371.576 802.445 371.576C798.264 371.576 794.851 370.296 792.205 367.736C789.56 365.133 788.237 361.379 788.237 356.472V336.056H792.653V355.96C792.653 359.757 793.592 362.659 795.469 364.664C797.389 366.669 799.992 367.672 803.277 367.672C806.648 367.672 809.336 366.605 811.341 364.472C813.347 362.339 814.349 359.203 814.349 355.064V336.056H818.829ZM827.009 353.528C827.009 349.901 827.735 346.744 829.185 344.056C830.636 341.325 832.641 339.235 835.201 337.784C837.761 336.291 840.684 335.544 843.969 335.544C848.279 335.544 851.82 336.611 854.593 338.744C857.409 340.877 859.223 343.779 860.033 347.448H855.233C854.636 344.931 853.335 342.968 851.329 341.56C849.367 340.109 846.913 339.384 843.969 339.384C841.623 339.384 839.511 339.917 837.633 340.984C835.756 342.051 834.263 343.651 833.153 345.784C832.087 347.875 831.553 350.456 831.553 353.528C831.553 356.6 832.087 359.203 833.153 361.336C834.263 363.469 835.756 365.069 837.633 366.136C839.511 367.203 841.623 367.736 843.969 367.736C846.913 367.736 849.367 367.032 851.329 365.624C853.335 364.173 854.636 362.168 855.233 359.608H860.033C859.223 363.192 857.409 366.072 854.593 368.248C851.777 370.424 848.236 371.512 843.969 371.512C840.684 371.512 837.761 370.787 835.201 369.336C832.641 367.843 830.636 365.752 829.185 363.064C827.735 360.333 827.009 357.155 827.009 353.528ZM870.547 329.464C869.651 329.464 868.883 329.144 868.243 328.504C867.603 327.864 867.283 327.075 867.283 326.136C867.283 325.197 867.603 324.429 868.243 323.832C868.883 323.192 869.651 322.872 870.547 322.872C871.443 322.872 872.211 323.192 872.851 323.832C873.491 324.429 873.811 325.197 873.811 326.136C873.811 327.075 873.491 327.864 872.851 328.504C872.211 329.144 871.443 329.464 870.547 329.464ZM872.787 336.056V371H868.307V336.056H872.787ZM880.884 353.464C880.884 349.88 881.588 346.744 882.996 344.056C884.447 341.325 886.431 339.235 888.948 337.784C891.508 336.291 894.388 335.544 897.588 335.544C900.916 335.544 903.775 336.312 906.164 337.848C908.596 339.384 910.346 341.347 911.412 343.736V336.056H915.892V371H911.412V363.256C910.303 365.645 908.532 367.629 906.1 369.208C903.711 370.744 900.852 371.512 897.524 371.512C894.367 371.512 891.508 370.765 888.948 369.272C886.431 367.779 884.447 365.667 882.996 362.936C881.588 360.205 880.884 357.048 880.884 353.464ZM911.412 353.528C911.412 350.712 910.836 348.237 909.684 346.104C908.532 343.971 906.954 342.328 904.948 341.176C902.986 340.024 900.81 339.448 898.42 339.448C895.946 339.448 893.727 340.003 891.764 341.112C889.802 342.221 888.244 343.843 887.092 345.976C885.983 348.067 885.428 350.563 885.428 353.464C885.428 356.323 885.983 358.84 887.092 361.016C888.244 363.149 889.802 364.792 891.764 365.944C893.727 367.053 895.946 367.608 898.42 367.608C900.81 367.608 902.986 367.032 904.948 365.88C906.954 364.728 908.532 363.085 909.684 360.952C910.836 358.819 911.412 356.344 911.412 353.528ZM956.93 326.264C961.88 326.264 966.125 327.16 969.666 328.952C973.208 330.744 975.917 333.325 977.794 336.696C979.672 340.067 980.61 344.077 980.61 348.728C980.61 353.336 979.672 357.325 977.794 360.696C975.917 364.024 973.208 366.584 969.666 368.376C966.125 370.125 961.88 371 956.93 371H943.682V326.264H956.93ZM956.93 367.288C963.16 367.288 967.896 365.667 971.138 362.424C974.424 359.139 976.066 354.573 976.066 348.728C976.066 342.84 974.424 338.253 971.138 334.968C967.896 331.64 963.16 329.976 956.93 329.976H948.162V367.288H956.93ZM1020.49 351.736C1020.49 353.272 1020.44 354.445 1020.36 355.256H991.366C991.494 357.901 992.134 360.163 993.286 362.04C994.438 363.917 995.953 365.347 997.83 366.328C999.707 367.267 1001.76 367.736 1003.97 367.736C1006.88 367.736 1009.31 367.032 1011.27 365.624C1013.28 364.216 1014.6 362.317 1015.24 359.928H1019.97C1019.12 363.341 1017.29 366.136 1014.47 368.312C1011.7 370.445 1008.2 371.512 1003.97 371.512C1000.69 371.512 997.745 370.787 995.142 369.336C992.539 367.843 990.491 365.752 988.998 363.064C987.547 360.333 986.822 357.155 986.822 353.528C986.822 349.901 987.547 346.723 988.998 343.992C990.449 341.261 992.475 339.171 995.078 337.72C997.681 336.269 1000.65 335.544 1003.97 335.544C1007.3 335.544 1010.2 336.269 1012.68 337.72C1015.2 339.171 1017.12 341.133 1018.44 343.608C1019.8 346.04 1020.49 348.749 1020.49 351.736ZM1015.94 351.608C1015.98 349.005 1015.45 346.787 1014.34 344.952C1013.28 343.117 1011.8 341.731 1009.93 340.792C1008.05 339.853 1006 339.384 1003.78 339.384C1000.45 339.384 997.617 340.451 995.27 342.584C992.923 344.717 991.622 347.725 991.366 351.608H1015.94ZM1041.1 366.648L1052.87 336.056H1057.61L1043.59 371H1038.54L1024.52 336.056H1029.32L1041.1 366.648ZM1078.98 371.512C1075.69 371.512 1072.73 370.787 1070.08 369.336C1067.48 367.843 1065.41 365.752 1063.87 363.064C1062.38 360.333 1061.63 357.155 1061.63 353.528C1061.63 349.901 1062.4 346.744 1063.94 344.056C1065.47 341.325 1067.57 339.235 1070.21 337.784C1072.86 336.291 1075.82 335.544 1079.11 335.544C1082.39 335.544 1085.36 336.291 1088 337.784C1090.69 339.235 1092.78 341.325 1094.27 344.056C1095.81 346.744 1096.58 349.901 1096.58 353.528C1096.58 357.112 1095.81 360.269 1094.27 363C1092.74 365.731 1090.63 367.843 1087.94 369.336C1085.25 370.787 1082.26 371.512 1078.98 371.512ZM1078.98 367.608C1081.28 367.608 1083.42 367.096 1085.38 366.072C1087.34 365.005 1088.92 363.427 1090.11 361.336C1091.35 359.203 1091.97 356.6 1091.97 353.528C1091.97 350.456 1091.37 347.875 1090.18 345.784C1088.98 343.651 1087.41 342.072 1085.44 341.048C1083.48 339.981 1081.35 339.448 1079.04 339.448C1076.74 339.448 1074.61 339.981 1072.64 341.048C1070.68 342.072 1069.1 343.651 1067.91 345.784C1066.75 347.875 1066.18 350.456 1066.18 353.528C1066.18 356.6 1066.75 359.203 1067.91 361.336C1069.1 363.427 1070.66 365.005 1072.58 366.072C1074.54 367.096 1076.67 367.608 1078.98 367.608ZM1110.57 339.832V361.528C1110.57 363.661 1110.97 365.133 1111.78 365.944C1112.6 366.755 1114.02 367.16 1116.07 367.16H1120.17V371H1115.37C1112.21 371 1109.86 370.275 1108.33 368.824C1106.79 367.331 1106.02 364.899 1106.02 361.528V339.832H1101.16V336.056H1106.02V327.288H1110.57V336.056H1120.17V339.832H1110.57ZM1142.85 371.512C1139.57 371.512 1136.6 370.787 1133.96 369.336C1131.35 367.843 1129.29 365.752 1127.75 363.064C1126.26 360.333 1125.51 357.155 1125.51 353.528C1125.51 349.901 1126.28 346.744 1127.81 344.056C1129.35 341.325 1131.44 339.235 1134.09 337.784C1136.73 336.291 1139.7 335.544 1142.98 335.544C1146.27 335.544 1149.23 336.291 1151.88 337.784C1154.57 339.235 1156.66 341.325 1158.15 344.056C1159.69 346.744 1160.45 349.901 1160.45 353.528C1160.45 357.112 1159.69 360.269 1158.15 363C1156.61 365.731 1154.5 367.843 1151.81 369.336C1149.13 370.787 1146.14 371.512 1142.85 371.512ZM1142.85 367.608C1145.16 367.608 1147.29 367.096 1149.25 366.072C1151.22 365.005 1152.79 363.427 1153.99 361.336C1155.23 359.203 1155.85 356.6 1155.85 353.528C1155.85 350.456 1155.25 347.875 1154.05 345.784C1152.86 343.651 1151.28 342.072 1149.32 341.048C1147.35 339.981 1145.22 339.448 1142.92 339.448C1140.61 339.448 1138.48 339.981 1136.52 341.048C1134.55 342.072 1132.98 343.651 1131.78 345.784C1130.63 347.875 1130.05 350.456 1130.05 353.528C1130.05 356.6 1130.63 359.203 1131.78 361.336C1132.98 363.427 1134.53 365.005 1136.45 366.072C1138.42 367.096 1140.55 367.608 1142.85 367.608Z" fill="#E3E1A4"/>
</svg>
