<svg width="1920" height="411" viewBox="0 0 1920 411" fill="none" xmlns="http://www.w3.org/2000/svg">
<path d="M772.738 78.4797C786.039 76.9953 798.844 72.1638 797.709 55.6029C797.418 47.075 798.058 42.4764 802.686 38.8091C794.1 41.4868 786.621 47.6571 784.03 57.1455C781.586 65.9353 778.559 73.037 772.738 78.4797Z" fill="#E3E1A4" fill-opacity="0.05"/>
<path d="M839.822 17.3872C838.745 29.8443 838.804 42.5634 848.67 55.1078C849.427 56.0683 850.445 57.1743 851.493 57.8146C852.744 58.6004 855.859 60.405 857.139 60.8706C866.482 64.3342 872.099 66.9537 880.655 72.1344C881.674 72.7456 884.031 73.5315 885.166 73.9099C886.592 74.3755 888.862 75.0159 890.347 75.045C895.062 75.1905 899.34 74.0263 903.851 72.7165C908.362 71.4068 912.64 68.3216 914.154 63.8685C907.023 68.5545 897.244 68.8164 889.881 64.5088C884.904 61.5983 880.946 56.7959 875.416 55.166C872.855 54.4384 870.469 53.7398 867.82 53.5652C862.465 53.245 857.256 54.1764 852.541 51.586C850.387 50.3927 849.543 49.5778 848.088 48.268C846.312 46.6963 844.013 42.6507 843.402 41.0208C840.957 34.2683 840.754 27.0793 840.23 19.25" fill="#E3E1A4" fill-opacity="0.05"/>
<path d="M836.592 156.482C838.949 146.237 829.054 139.194 823.437 131.51C821.167 128.395 820.09 126.067 818.868 122.429C817.645 118.791 818.111 112.155 820.41 109.069C823.059 105.489 825.474 103.947 829.927 103.656C833.565 103.423 838.92 105.81 842.122 107.556C847.39 110.437 849.485 117.161 851.231 122.924C853.618 130.782 853.094 138.146 855.48 145.975C856.237 148.507 858.536 151.33 860.341 153.281C863.6 156.802 869.043 160.353 873.874 160.353C876.785 160.353 879.811 160.091 882.634 159.364C884.06 158.985 885.807 157.937 886.651 157.297C888.135 156.162 888.572 155.813 889.619 154.678C897.914 145.713 900.097 131.015 896.168 117.19C892.704 105.024 885.428 93.6727 874.398 87.5023C860.166 79.5566 841.598 79.5857 829.869 68.2637C823.99 62.5881 821.08 54.5551 819.595 46.522C817.878 37.2956 823.844 26.2064 827.017 20.2689C821.545 24.3728 816.918 36.1605 816.045 45.2704C816.045 45.2704 815.026 55.923 815.666 60.7254C816.161 64.3054 817.5 67.7107 819.071 70.9414C821.545 76.0348 824.776 80.9536 829.462 84.1261C834.991 87.8807 841.889 88.8412 848.525 89.8308C856.324 90.995 864.182 92.3921 871.371 95.5936C878.56 98.7952 885.166 103.976 888.601 111.078C891.598 117.306 891.977 124.437 891.977 131.364C891.977 134.973 891.831 138.728 890.143 141.929C888.048 145.946 883.508 148.507 878.967 148.274C871.691 147.896 866.424 141.085 863.775 134.304C861.127 127.522 859.933 120.013 855.742 114.076C852.512 109.477 848.466 106.072 843.169 104.18C838.513 102.521 834.7 101.386 829.52 102.433C827.395 102.87 824.194 103.452 822.273 104.238C811.272 108.633 807.692 122.749 811.533 130.462C813.047 133.518 813.192 133.576 814.764 135.09C816.569 136.836 818.227 138.379 820.439 139.979C827.657 145.247 834.555 148.012 836.592 156.511" fill="#E3E1A4" fill-opacity="0.05"/>
<path d="M1126.03 407.021C1124.55 393.72 1119.71 380.914 1103.15 382.049C1094.63 382.34 1090.03 381.7 1086.36 377.072C1089.04 385.658 1095.21 393.138 1104.7 395.729C1113.49 398.173 1120.59 401.2 1126.03 407.021Z" fill="#E3E1A4" fill-opacity="0.05"/>
<path d="M1064.94 339.934C1077.4 341.011 1090.12 340.952 1102.66 331.086C1103.62 330.329 1104.73 329.31 1105.37 328.263C1106.15 327.011 1107.96 323.897 1108.42 322.616C1111.89 313.273 1114.51 307.656 1119.69 299.099C1120.3 298.08 1121.08 295.723 1121.46 294.588C1121.93 293.161 1122.57 290.891 1122.6 289.407C1122.74 284.692 1121.58 280.413 1120.27 275.902C1118.96 271.391 1115.87 267.112 1111.42 265.599C1116.11 272.729 1116.37 282.509 1112.06 289.873C1109.15 294.85 1104.35 298.808 1102.72 304.338C1101.99 306.899 1101.29 309.286 1101.12 311.934C1100.8 317.29 1101.73 322.5 1099.14 327.215C1097.95 329.369 1097.13 330.213 1095.82 331.668C1094.25 333.443 1090.2 335.743 1088.57 336.354C1081.82 338.799 1074.63 339.002 1066.8 339.526" fill="#E3E1A4" fill-opacity="0.05"/>
<path d="M1204.03 343.193C1193.78 340.836 1186.74 350.732 1179.06 356.349C1175.94 358.619 1173.62 359.696 1169.98 360.919C1166.34 362.141 1159.7 361.675 1156.62 359.376C1153.04 356.727 1151.5 354.312 1151.21 349.859C1150.97 346.22 1153.36 340.865 1155.11 337.663C1157.99 332.395 1164.71 330.3 1170.47 328.553C1178.33 326.167 1185.69 326.691 1193.52 324.304C1196.05 323.547 1198.88 321.248 1200.83 319.443C1204.35 316.184 1207.9 310.741 1207.9 305.909C1207.9 302.999 1207.64 299.972 1206.91 297.149C1206.53 295.723 1205.48 293.976 1204.84 293.132C1203.71 291.648 1203.36 291.211 1202.22 290.163C1193.26 281.868 1178.56 279.685 1164.74 283.615C1152.57 287.078 1141.22 294.355 1135.05 305.385C1127.11 319.618 1127.14 338.187 1115.82 349.917C1110.14 355.796 1102.11 358.707 1094.07 360.191C1084.85 361.908 1073.76 355.942 1067.82 352.769C1071.93 358.241 1083.71 362.869 1092.82 363.742C1092.82 363.742 1103.48 364.76 1108.28 364.12C1111.86 363.625 1115.26 362.287 1118.49 360.715C1123.59 358.241 1128.5 355.01 1131.68 350.324C1135.43 344.794 1136.39 337.896 1137.38 331.26C1138.55 323.46 1139.94 315.601 1143.14 308.412C1146.35 301.223 1151.53 294.616 1158.63 291.182C1164.86 288.184 1171.99 287.806 1178.91 287.806C1182.52 287.806 1186.28 287.951 1189.48 289.639C1193.49 291.735 1196.05 296.276 1195.82 300.816C1195.44 308.092 1188.63 313.36 1181.85 316.009C1175.07 318.658 1167.56 319.851 1161.62 324.042C1157.03 327.273 1153.62 331.318 1151.73 336.616C1150.07 341.272 1148.94 345.085 1149.98 350.266C1150.42 352.391 1151 355.592 1151.79 357.513C1156.18 368.515 1170.3 372.095 1178.01 368.253C1181.07 366.74 1181.12 366.594 1182.64 365.022C1184.38 363.218 1185.93 361.559 1187.53 359.347C1192.79 352.129 1195.56 345.231 1204.06 343.193" fill="#E3E1A4" fill-opacity="0.05"/>
<path d="M1514.98 368.049C1516.81 366.274 1519.81 365.488 1522.02 367.176C1523.07 367.962 1523.71 369.243 1523.56 370.552C1523.33 372.764 1521.26 373.812 1519.66 375.093C1518.23 376.228 1516.98 378.207 1517.94 379.75C1520.39 383.184 1539.07 379.517 1547.89 373.958C1551.62 371.6 1554.15 367.642 1554.5 363.247C1554.56 362.578 1553.97 361.035 1553.57 360.453C1553.01 359.638 1551.85 358.968 1550.86 358.881C1546.49 358.503 1542.48 359.521 1538.55 361.501C1536.66 362.461 1535 363.916 1532.82 364.237C1531.88 364.382 1530.89 364.237 1530.08 363.713C1527.64 362.112 1528.68 358.648 1530.6 356.815C1534.42 353.235 1540.21 353.206 1545.39 352.565C1550.86 351.867 1556.24 350.179 1561.13 347.617C1563.17 346.57 1565.21 345.231 1565.94 342.96C1566.4 341.476 1566.08 339.817 1564.83 338.886C1562.41 337.052 1559.01 339.788 1556.56 337.954C1555.95 337.518 1555.58 336.761 1555.69 336.004C1555.9 334.869 1557 334.491 1557.96 334.142C1561.92 332.774 1565.79 330.183 1566.78 325.905C1567.25 323.838 1566.84 321.626 1565.47 319.996C1562.79 316.824 1558.57 317.726 1555.81 319.88C1553.65 321.539 1552.14 323.838 1550.45 325.963C1545.16 332.686 1535.41 342.116 1529.91 340.807C1525.37 338.886 1525.22 332.192 1527.55 328.379C1528.6 326.632 1530.46 325.555 1532.29 324.624C1540.7 320.317 1549.99 318.017 1558.63 314.175C1562.15 312.604 1565.65 310.683 1567.62 307.161C1568.32 305.909 1568.73 304.483 1568.67 303.057C1568.53 296.712 1561.31 294.471 1555.69 295.49C1554.5 291.095 1563.05 289.203 1561.54 283.877C1560.87 281.519 1558.54 280.093 1556.1 280.238C1551.3 280.5 1548.5 284.517 1546.09 288.242C1539.8 297.964 1533.51 307.714 1527.23 317.435C1526.5 318.57 1525.37 319.851 1524.08 319.443C1523.56 319.269 1523.18 318.861 1522.86 318.425C1521.58 316.678 1520.91 314.554 1521.03 312.4C1521.35 306.695 1524.84 302.533 1528.28 298.487C1537.09 288.097 1545.94 277.677 1554.76 267.286C1557.18 264.434 1559.71 261.32 1559.8 257.536C1559.85 255.15 1558.54 252.879 1556.42 251.773C1553.6 250.318 1552.02 252.123 1550.07 252.908C1548.91 253.374 1547.37 253.345 1546.7 252.297C1546.44 251.919 1546.35 251.453 1546.29 251.017C1545.83 247.669 1546.9 244.206 1545.71 240.888C1545.42 240.131 1545.01 239.404 1544.43 238.821C1541.52 235.853 1537.85 237.89 1536.42 240.684C1535.38 242.722 1535.23 245.108 1535.06 247.408C1534.13 258.555 1531.65 269.586 1527.72 280.064C1527.26 281.344 1526.56 282.8 1524.9 282.654C1523.74 282.567 1522.78 281.665 1522.48 280.529C1519.05 267.461 1523.76 253.985 1526.94 241.092C1527.34 239.404 1526.82 237.57 1525.45 236.493C1522.95 234.543 1520.16 236.813 1518.88 239.2C1517.77 241.266 1517.01 243.711 1515.09 245.021C1514.07 241.383 1513.05 237.715 1511.13 234.456C1509.01 230.847 1505.63 227.761 1501.38 227.179C1500.07 227.005 1498.68 227.237 1497.63 228.052C1495.16 230.003 1496.15 233.524 1497.45 236.144C1502.81 246.825 1511.63 256.139 1513.49 267.956C1513.75 269.702 1513.87 271.536 1511.02 273.02C1509.97 273.544 1508.78 273.748 1507.61 273.486C1504.5 272.758 1502.52 269.935 1501.3 267.054C1499.87 263.677 1499.17 259.981 1496.58 257.158C1495.5 255.994 1493.82 255.441 1492.27 255.906C1488.9 256.925 1489.31 261.495 1490.3 264.696C1491.26 267.781 1492.19 270.896 1493.15 273.981C1490.76 273.282 1488.35 272.584 1485.96 271.914C1484.21 271.419 1482.26 270.925 1480.72 272.409C1479.53 273.573 1479.26 275.436 1479.93 276.979C1481.33 280.151 1484.68 281.17 1487.79 281.868C1492.74 282.974 1497.75 283.731 1502.66 284.983C1508.69 286.525 1514.77 288.97 1518.7 293.801C1520.45 295.926 1521.73 298.633 1521.09 301.456C1520.83 302.65 1520.16 303.756 1519.17 304.454C1516.69 306.259 1513.78 304.949 1511.98 303.028C1510.55 301.514 1509.59 299.652 1508.34 298.022C1505.37 294.18 1500.71 291.677 1495.85 291.415C1494.92 291.357 1493.96 291.764 1493.47 292.579C1491.92 295.228 1497.13 297.149 1496.84 300.03C1496.64 302.126 1493.76 302.708 1491.72 302.184C1489.48 301.631 1487.09 300.467 1485.09 301.864C1483.08 303.261 1482.96 306.113 1484.56 308.005C1487.47 311.41 1491.84 310.974 1495.82 311.265C1506.91 312.08 1516.75 315.631 1519.43 325.264C1520.8 329.426 1515.53 331.056 1513.23 329.485C1510.93 327.913 1509.27 325.555 1507.38 323.518C1505.11 321.073 1502.14 318.861 1498.62 319.502C1496.49 319.88 1494.75 321.568 1494.72 323.722C1494.63 328.059 1500.95 329.31 1501.94 333.297C1502.05 333.734 1502.08 334.2 1501.88 334.607C1501.53 335.277 1500.69 335.48 1499.96 335.539C1498.21 335.684 1496.44 335.451 1494.69 335.771C1492.94 336.092 1491.2 337.256 1490.94 339.002C1490.7 340.574 1491.78 342.087 1493.15 342.873C1494.52 343.659 1496.14 343.834 1497.72 344.008C1502.08 344.474 1506.45 344.969 1510.81 345.434C1513.43 345.726 1516.17 346.046 1518.41 347.472C1519.43 348.141 1520.33 349.102 1520.88 350.179C1521.81 352.012 1522.66 356.96 1517.8 356.029C1511.25 352.973 1505.25 351.401 1499.46 352.594C1499.08 352.536 1498.09 352.973 1498.09 352.973C1498.09 352.973 1496.14 353.788 1495.56 354.632C1494.2 356.582 1496.03 358.561 1497.92 358.998C1499.49 359.376 1501.15 359.056 1502.75 359.143C1503.42 359.172 1504.12 359.289 1504.64 359.725C1505.98 360.802 1505.2 363.043 1503.92 364.207C1502.31 365.663 1499.99 366.536 1499.87 369.126C1499.78 370.843 1500.8 372.473 1502.37 373.23C1506.68 375.297 1511.77 370.843 1514.95 368.166" fill="#E3E1A4" fill-opacity="0.05"/>
<path d="M1765.15 35.4037C1766.93 37.2374 1767.71 40.2352 1766.03 42.4472C1765.24 43.495 1763.96 44.1353 1762.65 43.9898C1760.44 43.757 1759.39 41.6905 1758.11 40.0897C1756.98 38.6635 1755 37.412 1753.45 38.3725C1750.02 40.8173 1753.69 59.503 1759.25 68.3219C1761.6 72.0474 1765.56 74.5796 1769.96 74.9288C1770.62 74.987 1772.17 74.4049 1772.75 73.9975C1773.56 73.4445 1774.23 72.2803 1774.32 71.2907C1774.7 66.9249 1773.68 62.9083 1771.7 58.9791C1770.74 57.0872 1769.29 55.4282 1768.97 53.2453C1768.82 52.314 1768.97 51.3244 1769.49 50.5094C1771.09 48.0646 1774.55 49.1124 1776.39 51.0333C1779.97 54.8461 1780 60.6381 1780.64 65.8189C1781.33 71.2907 1783.02 76.6752 1785.58 81.5649C1786.63 83.6022 1787.97 85.6396 1790.24 86.3672C1791.73 86.8329 1793.38 86.5128 1794.32 85.2612C1796.15 82.8455 1793.41 79.4402 1795.25 76.9953C1795.68 76.3841 1796.44 76.0057 1797.2 76.1222C1798.33 76.3259 1798.71 77.4319 1799.06 78.3924C1800.43 82.3507 1803.02 86.2217 1807.3 87.2113C1809.36 87.677 1811.57 87.2695 1813.2 85.9016C1816.38 83.2239 1815.47 79.0036 1813.32 76.2386C1811.66 74.0848 1809.36 72.5713 1807.24 70.8832C1800.51 65.586 1791.08 55.8357 1792.39 50.3348C1794.32 45.7944 1801.01 45.6488 1804.82 47.9773C1806.57 49.0251 1807.64 50.8878 1808.58 52.7214C1812.88 61.1329 1815.18 70.4175 1819.02 79.0618C1820.6 82.5835 1822.52 86.0762 1826.04 88.0554C1827.29 88.7539 1828.72 89.1614 1830.14 89.1032C1836.49 88.9576 1838.73 81.7395 1837.71 76.1222C1842.1 74.9288 1844 83.4858 1849.32 81.9723C1851.68 81.3029 1853.11 78.9745 1852.96 76.5296C1852.7 71.7272 1848.68 68.9331 1844.96 66.5174C1835.24 60.2306 1825.49 53.9439 1815.76 47.6571C1814.63 46.9295 1813.35 45.7944 1813.76 44.5137C1813.93 43.9898 1814.34 43.6115 1814.78 43.2913C1816.52 42.0107 1818.65 41.3412 1820.8 41.4577C1826.5 41.7778 1830.67 45.2705 1834.71 48.7049C1845.1 57.5238 1855.52 66.3719 1865.91 75.1908C1868.76 77.6065 1871.88 80.1387 1875.66 80.226C1878.05 80.2842 1880.32 78.9745 1881.42 76.8498C1882.88 74.0266 1881.07 72.4549 1880.29 70.5048C1879.82 69.3406 1879.85 67.798 1880.9 67.1286C1881.28 66.8667 1881.74 66.7793 1882.18 66.7211C1885.53 66.2554 1888.99 67.3323 1892.31 66.139C1893.06 65.848 1893.79 65.4405 1894.37 64.8584C1897.34 61.9478 1895.31 58.2806 1892.51 56.8544C1890.47 55.8066 1888.09 55.6611 1885.79 55.4865C1874.64 54.5551 1863.61 52.0811 1853.13 48.1519C1851.85 47.6862 1850.4 46.9877 1850.54 45.3287C1850.63 44.1645 1851.53 43.204 1852.67 42.9129C1865.74 39.4785 1879.21 44.1936 1892.1 47.366C1893.79 47.7735 1895.63 47.2496 1896.7 45.8817C1898.65 43.3786 1896.38 40.5845 1894 39.3039C1891.93 38.1978 1889.49 37.4411 1888.18 35.5202C1891.81 34.5015 1895.48 33.4828 1898.74 31.5618C1902.35 29.4371 1905.43 26.0609 1906.02 21.8115C1906.19 20.5018 1905.96 19.1047 1905.14 18.0569C1903.19 15.583 1899.67 16.5726 1897.05 17.8823C1886.37 23.2377 1877.06 32.0566 1865.24 33.9194C1863.5 34.1813 1861.66 34.2977 1860.18 31.4454C1859.65 30.3976 1859.45 29.2043 1859.71 28.0401C1860.44 24.9258 1863.26 22.9466 1866.14 21.7242C1869.52 20.298 1873.22 19.5995 1876.04 17.0091C1877.2 15.9322 1877.76 14.2441 1877.29 12.7015C1876.27 9.32532 1871.7 9.73279 1868.5 10.7224C1865.42 11.6829 1862.3 12.6142 1859.22 13.5747C1859.92 11.1881 1860.61 8.77232 1861.28 6.38567C1861.78 4.63935 1862.27 2.68929 1860.79 1.14671C1859.62 -0.0466141 1857.76 -0.308562 1856.22 0.360861C1853.05 1.75792 1852.03 5.10504 1851.33 8.21931C1850.22 13.1672 1849.47 18.1734 1848.22 23.0922C1846.67 29.117 1844.23 35.2 1839.4 39.1292C1837.27 40.8755 1834.57 42.1562 1831.74 41.5159C1830.55 41.2539 1829.44 40.5845 1828.75 39.5949C1826.94 37.121 1828.25 34.2104 1830.17 32.4059C1831.68 30.9797 1833.55 30.0192 1835.18 28.7677C1839.02 25.799 1841.52 21.1421 1841.78 16.2815C1841.84 15.3501 1841.43 14.3897 1840.62 13.8949C1837.97 12.3523 1836.05 17.5621 1833.17 17.2711C1831.07 17.0673 1830.49 14.1859 1831.02 12.1485C1831.57 9.90743 1832.73 7.52078 1831.34 5.51251C1829.94 3.50424 1827.09 3.38782 1825.19 4.98862C1821.79 7.89915 1822.23 12.265 1821.93 16.2524C1821.12 27.3415 1817.57 37.1792 1807.94 39.8569C1803.77 41.2248 1802.14 35.9567 1803.72 33.6574C1805.29 31.3581 1807.64 29.6991 1809.68 27.8072C1812.13 25.537 1814.34 22.5683 1813.7 19.0465C1813.32 16.9218 1811.63 15.1755 1809.48 15.1464C1805.14 15.0591 1803.89 21.3749 1799.9 22.3645C1799.47 22.4809 1799 22.5101 1798.59 22.3063C1797.92 21.9571 1797.72 21.113 1797.66 20.3854C1797.52 18.639 1797.75 16.8636 1797.43 15.1173C1797.11 13.371 1795.95 11.6246 1794.2 11.3627C1792.63 11.1299 1791.11 12.2067 1790.33 13.5747C1789.54 14.9427 1789.37 16.5726 1789.19 18.1442C1788.73 22.5101 1788.23 26.8759 1787.77 31.2417C1787.48 33.8611 1787.16 36.5971 1785.73 38.8382C1785.06 39.8569 1784.1 40.7591 1783.02 41.3121C1781.19 42.2435 1776.24 43.0876 1777.17 38.227C1780.23 31.6782 1781.8 25.6825 1780.61 19.8906C1780.67 19.5122 1780.23 18.5226 1780.23 18.5226C1780.23 18.5226 1779.41 16.5726 1778.57 15.9904C1776.62 14.6225 1774.64 16.4561 1774.2 18.348C1773.83 19.9197 1774.15 21.5787 1774.06 23.1795C1774.03 23.8489 1773.91 24.5474 1773.48 25.0713C1772.4 26.4102 1770.16 25.6243 1768.99 24.3437C1767.54 22.7429 1766.67 20.4145 1764.08 20.298C1762.36 20.2107 1760.73 21.2294 1759.97 22.8011C1757.91 27.1087 1762.36 32.2021 1765.04 35.3746" fill="#E3E1A4" fill-opacity="0.05"/>
<path d="M382.251 24.7222V103.307C382.251 107.993 389.527 107.993 389.527 103.307V24.7222C389.527 20.0363 382.251 20.0363 382.251 24.7222Z" fill="#E3E1A4" fill-opacity="0.05"/>
<path d="M262.605 195.047C264.7 232.098 266.068 269.207 266.737 306.316C266.825 311.002 274.101 311.002 274.013 306.316C273.344 269.207 271.976 232.098 269.881 195.047C269.619 190.39 262.343 190.361 262.605 195.047Z" fill="#E3E1A4" fill-opacity="0.05"/>
<path d="M255.096 97.3982C261.848 107.498 268.251 117.83 275.119 127.842C276.225 129.472 278.321 130.2 280.096 129.152C281.697 128.221 282.512 125.805 281.406 124.175C274.537 114.163 268.105 103.831 261.382 93.731C260.305 92.1011 258.181 91.4025 256.405 92.4212C254.776 93.3817 254.019 95.7683 255.096 97.3982Z" fill="#E3E1A4" fill-opacity="0.05"/>
<path d="M272.819 93.2067C268.134 102.52 263.419 111.805 258.733 121.119C258.064 122.428 257.424 123.709 256.754 125.019C255.881 126.765 256.288 128.948 258.064 129.996C259.694 130.956 262.138 130.462 263.041 128.686C267.726 119.372 272.441 110.088 277.127 100.774C277.796 99.4643 278.437 98.1837 279.106 96.874C279.979 95.1276 279.572 92.9447 277.796 91.8969C276.166 90.9365 273.722 91.4313 272.819 93.2067Z" fill="#E3E1A4" fill-opacity="0.05"/>
<path d="M249.915 115.414C259.141 115.298 268.367 115.181 277.593 114.861C280.154 114.774 282.715 114.687 285.306 114.599C289.962 114.425 289.991 107.148 285.306 107.323C275.847 107.643 266.417 107.934 256.929 108.051C254.601 108.08 252.243 108.109 249.915 108.138C245.229 108.196 245.229 115.472 249.915 115.414Z" fill="#E3E1A4" fill-opacity="0.05"/>
<path d="M317.233 92.5375C317.844 104.092 318.048 115.676 318.805 127.231C318.921 129.181 320.376 130.869 322.443 130.869C324.305 130.869 326.197 129.21 326.081 127.231C325.324 115.676 325.091 104.092 324.509 92.5375C324.276 87.8806 317 87.8515 317.233 92.5375Z" fill="#E3E1A4" fill-opacity="0.05"/>
<path d="M333.794 97.6018C325.412 102.928 317.059 108.254 308.677 113.581C307.513 114.337 306.319 115.065 305.155 115.822C301.226 118.325 304.864 124.641 308.822 122.108C317.204 116.782 325.557 111.456 333.939 106.13C335.103 105.373 336.296 104.645 337.461 103.889C341.39 101.385 337.752 95.0696 333.794 97.6018Z" fill="#E3E1A4" fill-opacity="0.05"/>
<path d="M304.311 104.907C311.965 109.331 319.59 113.726 327.361 117.975L333.706 121.468C337.809 123.709 341.476 117.452 337.373 115.181C329.427 110.816 321.54 106.421 313.682 101.909C311.79 100.803 309.869 99.7264 307.978 98.6204C303.903 96.2919 300.236 102.55 304.311 104.907Z" fill="#E3E1A4" fill-opacity="0.05"/>
<path d="M166.037 245.283C166.357 251.453 166.474 257.653 166.881 263.823C166.939 264.813 167.667 265.628 168.686 265.628C169.617 265.628 170.577 264.784 170.49 263.823C170.083 257.653 169.966 251.453 169.646 245.283C169.53 242.954 165.892 242.925 166.008 245.283H166.037Z" fill="#E3E1A4" fill-opacity="0.05"/>
<path d="M174.827 248.106C170.345 250.958 165.892 253.811 161.41 256.663L159.518 257.856C157.539 259.108 159.372 262.251 161.351 261C165.833 258.147 170.286 255.295 174.768 252.443L176.66 251.249C178.639 249.998 176.806 246.854 174.827 248.106Z" fill="#E3E1A4" fill-opacity="0.05"/>
<path d="M159.082 251.773C163.185 254.131 167.26 256.488 171.393 258.758C172.528 259.37 173.663 260.01 174.798 260.621C176.864 261.756 178.698 258.613 176.631 257.478C172.382 255.149 168.162 252.792 163.971 250.376C162.953 249.794 161.934 249.212 160.915 248.63C158.878 247.465 157.045 250.609 159.082 251.773Z" fill="#E3E1A4" fill-opacity="0.05"/>
<path d="M528.411 264.841C526.199 270.604 523.783 276.309 521.659 282.13C521.309 283.061 522.037 284.109 522.939 284.371C523.958 284.662 524.831 284.022 525.18 283.09C527.305 277.298 529.72 271.594 531.932 265.802C532.282 264.87 531.554 263.793 530.652 263.561C529.633 263.27 528.76 263.91 528.411 264.841Z" fill="#E3E1A4" fill-opacity="0.05"/>
<path d="M535.104 270.779C529.866 271.565 524.627 272.351 519.388 273.136L517.147 273.457C516.187 273.602 515.634 274.825 515.867 275.698C516.158 276.746 517.118 277.124 518.108 276.978C523.346 276.193 528.585 275.407 533.824 274.621L536.065 274.301C537.025 274.155 537.578 272.933 537.345 272.06C537.054 271.012 536.094 270.633 535.104 270.779Z" fill="#E3E1A4" fill-opacity="0.05"/>
<path d="M519.388 267.548C522.153 271.361 524.918 275.174 527.799 278.929C528.585 279.947 529.371 280.995 530.157 282.014C530.739 282.8 531.728 283.207 532.66 282.654C533.417 282.218 533.911 280.966 533.3 280.151C530.361 276.309 527.479 272.467 524.627 268.567L522.532 265.686C521.95 264.9 520.96 264.492 520.029 265.045C519.243 265.511 518.806 266.734 519.388 267.548Z" fill="#E3E1A4" fill-opacity="0.05"/>
<path d="M101.718 399.395C101.863 392.206 101.922 384.988 102.271 377.799C102.533 372.327 102.911 364.935 108.674 362.606C114.087 360.423 119.267 362.606 121.858 367.816C124.448 373.026 124.011 379.284 124.186 384.785C124.39 390.606 125.525 395.641 130.123 399.657C133.703 402.772 138.622 403.558 143.278 403.179C153.988 402.306 159.14 393.749 159.285 383.708C159.402 375.151 157.132 359.841 170.461 360.773C176.544 361.209 180.124 365.488 180.589 371.338C180.997 376.577 180.677 381.758 181.433 387.026C182.074 391.479 182.889 395.699 186.497 398.726C189.757 401.433 194.035 402.655 198.197 402.859C208.063 403.354 214.816 396.543 216.096 387.055C216.824 381.554 215.456 375.762 216.707 370.348C218.104 364.323 223.081 359.346 229.571 360.889C236.847 362.606 239.03 368.893 239.525 375.587C240.136 383.97 240.34 392.381 240.165 400.792C240.078 405.478 247.354 405.478 247.441 400.792C247.587 392.876 247.441 384.93 246.888 377.013C246.452 370.668 245.811 364.585 241.358 359.725C233.413 351.022 219.792 351.313 212.982 361.064C209.839 365.546 209.024 370.756 209.024 376.082C209.024 381.408 210.043 387.695 206.812 392.148C204.193 395.728 199.507 396.165 195.491 395.146C190.165 393.836 189.233 390.577 188.535 385.57C186.992 374.569 190.281 361.122 177.97 355.33C168.22 350.76 156.259 355.068 152.941 365.575C151.253 370.872 152.009 376.635 152.038 382.107C152.068 387.2 151.515 393.08 146.072 395.233C141.183 397.154 135.013 395.903 132.51 391.071C131.084 388.277 131.491 384.785 131.375 381.729C131.258 378.381 131.055 375.034 130.531 371.716C128.406 358.502 115.891 350.033 103.406 357.076C97.6432 360.336 96.0716 367.176 95.344 373.317C94.3254 381.903 94.6455 390.751 94.4418 399.395C94.3254 404.081 101.601 404.081 101.718 399.395Z" fill="#E3E1A4" fill-opacity="0.05"/>
<path d="M475.383 68.1178C482.572 68.2633 489.79 68.3216 496.979 68.6708C502.45 68.9328 509.842 69.3111 512.171 75.074C514.354 80.4876 512.171 85.6684 506.961 88.2587C501.752 90.8491 495.494 90.4125 489.994 90.5872C484.173 90.7909 479.138 91.926 475.122 96.5247C472.007 100.105 471.222 105.023 471.6 109.68C472.473 120.391 481.03 125.543 491.07 125.688C499.627 125.805 514.936 123.534 514.004 136.865C513.568 142.948 509.29 146.528 503.44 146.993C498.201 147.401 493.02 147.081 487.753 147.837C483.3 148.478 479.08 149.293 476.053 152.902C473.346 156.162 472.124 160.44 471.92 164.602C471.425 174.469 478.236 181.221 487.724 182.502C493.224 183.23 499.016 181.862 504.429 183.113C510.454 184.51 515.43 189.487 513.888 195.978C512.171 203.254 505.884 205.437 499.19 205.932C490.809 206.543 482.398 206.747 473.986 206.572C469.301 206.485 469.301 213.761 473.986 213.848C481.903 213.994 489.848 213.848 497.764 213.295C504.109 212.859 510.192 212.219 515.052 207.765C523.754 199.82 523.463 186.198 513.713 179.388C509.231 176.244 504.022 175.429 498.696 175.429C493.37 175.429 487.083 176.448 482.63 173.217C479.051 170.598 478.614 165.912 479.633 161.895C480.942 156.569 484.202 155.638 489.208 154.939C500.209 153.397 513.655 156.685 519.447 144.374C524.016 134.624 519.709 122.661 509.202 119.343C503.905 117.655 498.143 118.412 492.671 118.441C487.578 118.47 481.699 117.917 479.545 112.474C477.624 107.585 478.876 101.414 483.707 98.9113C486.501 97.4851 489.994 97.8926 493.05 97.7762C496.396 97.6598 499.743 97.456 503.061 96.9321C516.274 94.8074 524.744 82.2921 517.701 69.8059C514.441 64.0431 507.602 62.4714 501.461 61.7437C492.875 60.7251 484.027 61.0452 475.383 60.8415C470.698 60.725 470.698 68.0014 475.383 68.1178Z" fill="#E3E1A4" fill-opacity="0.05"/>
<path d="M41.0656 213.296C32.1016 213.47 22.6137 213.907 14.9303 219.059C8.41103 223.395 3.49247 230.06 1.4552 237.628C0.174624 242.226 0 247.087 0 251.831C0 256.575 0 261.407 1.10595 266.035C2.09548 270.284 4.13276 274.184 6.46107 277.851C8.9349 281.752 11.5252 286.001 14.9012 289.203C21.3041 295.198 31.3158 296.508 39.6977 297.41C49.0692 298.429 58.0041 296.159 65.6875 290.716C72.4688 285.943 79.0753 279.336 82.3059 271.594C85.7401 263.357 85.4782 252.006 83.4991 243.42C81.5201 234.834 75.3792 226.975 67.6957 222.173C60.0123 217.37 50.3498 213.383 41.0947 213.325C36.409 213.325 36.409 220.572 41.0947 220.601C47.8468 220.63 54.5698 223.337 60.4488 226.422C66.3278 229.507 71.1591 233.466 74.2732 239.316C77.8239 246.039 77.8239 254.625 77.1545 262.047C76.4269 270.109 71.5665 276.192 65.7458 281.431C60.4197 286.205 53.8714 289.843 46.6536 290.338C42.7828 290.6 38.9119 290.105 35.1284 289.406C31.3449 288.708 27.2122 288.126 23.6906 286.496C17.5788 283.643 13.0968 275.581 10.1864 269.76C6.6648 262.688 6.98494 254.189 7.4215 246.476C7.88716 238.414 11.1177 230.875 17.7243 225.957C24.3309 221.038 33.0329 220.747 41.0947 220.572C45.7805 220.485 45.7805 213.208 41.0947 213.296H41.0656Z" fill="#E3E1A4" fill-opacity="0.05"/>
<path d="M563.714 323.372C554.75 323.547 545.262 323.983 537.578 329.135C531.059 333.472 526.141 340.137 524.103 347.704C522.852 352.303 522.677 357.163 522.677 361.908C522.677 366.652 522.677 371.483 523.783 376.111C524.773 380.36 526.81 384.261 529.138 387.928C531.612 391.828 534.202 396.077 537.578 399.279C543.981 405.275 553.993 406.584 562.375 407.487C571.746 408.505 580.681 406.235 588.365 400.792C595.146 396.019 601.753 389.412 604.983 381.67C608.417 373.433 608.155 362.082 606.176 353.496C604.197 344.91 598.056 337.052 590.373 332.249C582.69 327.447 573.027 323.459 563.772 323.401C559.086 323.401 559.086 330.648 563.772 330.678C570.524 330.707 577.247 333.413 583.126 336.499C589.005 339.584 593.836 343.542 596.95 349.392C600.501 356.116 600.501 364.702 599.832 372.124C599.104 380.186 594.244 386.269 588.423 391.508C583.097 396.281 576.549 399.919 569.331 400.414C565.46 400.676 561.589 400.181 557.806 399.483C554.022 398.784 549.889 398.202 546.368 396.572C540.256 393.72 535.774 385.658 532.864 379.837C529.342 372.764 529.662 364.265 530.099 356.552C530.564 348.49 533.795 340.952 540.402 336.033C547.008 331.114 555.71 330.823 563.772 330.648C568.458 330.561 568.458 323.285 563.772 323.372H563.714Z" fill="#E3E1A4" fill-opacity="0.05"/>
<path d="M166.068 123.564C146.51 111.194 151.545 105.489 144.88 99.1444C140.369 95.7973 136.091 82.1177 127.301 77.9848C119.647 73.619 117.26 64.3343 115.863 54.1475C120.287 62.7044 128.96 67.9725 140.107 71.3487C150.06 74.2593 151.079 85.785 152.825 94.342C154.31 100.512 156.521 102.346 156.871 107.847C157.074 110.961 158.995 116.433 166.038 123.564H166.068Z" fill="#E3E1A4" fill-opacity="0.05"/>
<path d="M143.22 124.058C135.508 102.259 128.814 105.897 124.128 98.0092C121.858 92.8866 109.46 85.6685 107.393 76.1801C104.832 67.7396 96.3048 63.3738 86.6714 59.7356C94.0347 65.935 97.2361 75.5689 98.051 87.182C98.6913 97.5144 109.722 101.094 117.638 104.674C123.342 107.498 124.623 110.059 129.92 111.601C132.918 112.504 137.807 115.56 143.22 124.029V124.058Z" fill="#E3E1A4" fill-opacity="0.05"/>
<path d="M122.004 116.986C100.118 109.477 98.837 116.986 89.7275 115.734C84.285 114.308 70.9554 119.547 62.2243 115.269C54.0169 112.038 45.2858 115.996 36.4673 121.264C45.897 119.373 55.443 122.836 65.0473 129.414C73.5457 135.351 83.1791 128.948 90.9498 124.961C96.6833 122.254 99.5064 122.836 104.017 119.664C106.579 117.888 112.021 115.938 122.033 116.986H122.004Z" fill="#E3E1A4" fill-opacity="0.05"/>
<path d="M36.875 51.9644C45.9554 71.9597 52.8239 68.2634 58.1209 75.4524C60.7402 80.1384 74.0989 86.3087 76.6892 95.0694C79.7451 102.841 88.9128 106.537 99.2156 109.506C91.212 104.034 87.3994 95.1858 86.0315 84.3877C84.8965 74.783 73.1676 71.9306 64.6401 68.9037C58.5283 66.517 57.044 64.1886 51.427 62.9662C48.2255 62.2677 42.9286 59.6191 36.875 51.9644Z" fill="#E3E1A4" fill-opacity="0.05"/>
<path d="M152.214 124.437C133.704 122.312 134.373 128.046 127.097 128.57C122.586 128.366 113.505 134.333 105.822 132.557C98.7789 131.451 92.9581 135.73 87.3701 141.027C94.2095 138.145 102.33 139.222 111.206 142.569C119.064 145.626 125.06 139.368 130.124 135.206C133.936 132.295 136.236 132.295 139 129.239C140.572 127.522 144.326 125.223 152.243 124.437H152.214Z" fill="#E3E1A4" fill-opacity="0.05"/>
<path d="M125.729 156.89C143.919 154.241 142.114 148.478 149.012 146.033C153.378 145.044 160.886 136.516 168.599 136.37C175.584 135.672 180.299 129.705 184.606 122.749C178.64 127.522 170.636 128.541 161.439 127.377C153.29 126.271 148.808 134.304 144.763 139.95C141.678 143.938 139.495 144.578 137.458 148.449C136.294 150.632 133.15 154.008 125.7 156.89H125.729Z" fill="#E3E1A4" fill-opacity="0.05"/>
<path d="M83.2083 102.753C101.369 111.543 119.937 120.537 140.019 123.884C149.653 125.485 159.228 125.252 168.948 124.873C179.426 124.466 189.932 124.32 199.857 128.25C202.04 129.123 202.971 125.601 200.817 124.728C182.162 117.364 161.614 123.505 142.26 120.566C122.906 117.626 103.29 108.458 85.0418 99.6099C82.9463 98.5912 81.0837 101.735 83.2083 102.753Z" fill="#E3E1A4" fill-opacity="0.05"/>
<path d="M360.394 357.397C374.044 335.829 380.33 341.389 387.315 334.025C391.011 329.048 406.116 324.333 410.656 314.641C415.488 306.171 425.732 303.581 436.966 302.038C427.537 306.928 421.716 316.503 417.99 328.786C414.789 339.759 402.042 340.894 392.641 342.815C385.831 344.445 383.793 346.889 377.74 347.268C374.305 347.501 368.281 349.596 360.394 357.397Z" fill="#E3E1A4" fill-opacity="0.05"/>
<path d="M359.841 332.191C383.91 323.663 379.893 316.3 388.596 311.119C394.271 308.616 402.216 294.936 412.664 292.637C421.978 289.814 426.809 280.384 430.796 269.76C423.957 277.881 413.334 281.432 400.499 282.334C389.09 283.032 385.161 295.198 381.174 303.959C378.06 310.246 375.237 311.672 373.52 317.522C372.53 320.84 369.154 326.254 359.812 332.191H359.841Z" fill="#E3E1A4" fill-opacity="0.05"/>
<path d="M367.67 308.761C375.964 284.633 367.67 283.178 369.037 273.136C370.609 267.141 364.847 252.413 369.561 242.779C373.141 233.728 368.776 224.094 362.926 214.373C365.021 224.792 361.179 235.299 353.933 245.894C347.384 255.266 354.456 265.918 358.851 274.475C361.849 280.82 361.209 283.934 364.701 288.911C366.68 291.735 368.805 297.759 367.67 308.79V308.761Z" fill="#E3E1A4" fill-opacity="0.05"/>
<path d="M439.382 214.809C417.321 224.851 421.366 232.418 413.479 238.268C408.299 241.15 401.488 255.906 391.826 258.758C383.269 262.135 379.166 272.263 375.906 283.614C381.931 274.766 391.709 270.575 403.613 269.062C414.236 267.81 417.379 254.858 420.697 245.457C423.316 238.705 425.907 237.075 427.245 230.876C428.031 227.354 430.941 221.504 439.411 214.838L439.382 214.809Z" fill="#E3E1A4" fill-opacity="0.05"/>
<path d="M359.433 342.116C361.762 321.684 355.446 322.441 354.864 314.379C355.068 309.402 348.519 299.389 350.469 290.92C351.692 283.149 346.948 276.716 341.127 270.546C344.299 278.084 343.135 287.049 339.439 296.828C336.063 305.501 342.961 312.108 347.559 317.697C350.76 321.917 350.79 324.449 354.136 327.476C356.028 329.222 358.56 333.355 359.433 342.087V342.116Z" fill="#E3E1A4" fill-opacity="0.05"/>
<path d="M323.606 312.894C326.516 332.977 332.89 330.968 335.597 338.565C336.674 343.367 346.103 351.692 346.278 360.19C347.035 367.903 353.641 373.113 361.296 377.857C356.028 371.25 354.893 362.431 356.173 352.303C357.396 343.309 348.519 338.361 342.32 333.908C337.896 330.503 337.227 328.087 332.948 325.846C330.533 324.565 326.836 321.102 323.635 312.894H323.606Z" fill="#E3E1A4" fill-opacity="0.05"/>
<path d="M383.532 266.064C373.782 286.205 363.77 306.84 360.191 329.135C358.444 339.904 358.794 350.586 359.201 361.413C359.608 372.24 359.696 384.086 355.447 394.739C354.573 396.922 358.095 397.853 358.968 395.699C367.088 375.238 360.336 352.623 363.508 331.376C366.855 308.878 376.867 288.126 386.704 267.868C387.723 265.773 384.58 263.91 383.561 266.035L383.532 266.064Z" fill="#E3E1A4" fill-opacity="0.05"/>
<path d="M1530.31 5.30879V83.8933C1530.31 88.5793 1537.59 88.5793 1537.59 83.8933V5.30879C1537.59 0.62282 1530.31 0.62282 1530.31 5.30879Z" fill="#E3E1A4" fill-opacity="0.05"/>
<path d="M1649.96 175.604C1647.86 212.656 1646.5 249.765 1645.83 286.874C1645.74 291.56 1653.02 291.56 1653.1 286.874C1653.77 249.765 1655.14 212.656 1657.24 175.604C1657.5 170.918 1650.22 170.948 1649.96 175.604Z" fill="#E3E1A4" fill-opacity="0.05"/>
<path d="M1658.46 74.2888C1651.71 84.3884 1645.3 94.7208 1638.43 104.733C1637.33 106.363 1638.14 108.779 1639.74 109.71C1641.55 110.758 1643.61 110.03 1644.72 108.4C1651.59 98.3881 1658.02 88.0557 1664.74 77.9561C1665.82 76.3262 1665.06 73.9395 1663.43 72.9791C1661.66 71.9313 1659.56 72.6589 1658.46 74.2888Z" fill="#E3E1A4" fill-opacity="0.05"/>
<path d="M1640.73 77.4612C1645.42 86.7749 1650.13 96.0595 1654.82 105.373L1656.8 109.273C1657.67 111.02 1660.15 111.514 1661.78 110.583C1663.55 109.535 1663.96 107.352 1663.09 105.606C1658.4 96.2924 1653.68 87.0078 1649 77.694L1647.02 73.7939C1646.15 72.0476 1643.67 71.5528 1642.04 72.4842C1640.27 73.532 1639.86 75.7149 1640.73 77.4612Z" fill="#E3E1A4" fill-opacity="0.05"/>
<path d="M1669.92 88.7248C1660.7 88.6084 1651.47 88.4919 1642.25 88.1718C1639.69 88.0845 1637.12 87.9971 1634.53 87.9098C1629.85 87.7352 1629.85 95.0115 1634.53 95.1862C1643.99 95.5063 1653.42 95.7974 1662.91 95.9138C1665.24 95.9429 1667.6 95.972 1669.92 96.0011C1674.61 96.0593 1674.61 88.783 1669.92 88.7248Z" fill="#E3E1A4" fill-opacity="0.05"/>
<path d="M1595.3 73.0949C1594.69 84.6497 1594.49 96.2336 1593.73 107.788C1593.61 109.739 1595.51 111.427 1597.37 111.427C1599.43 111.427 1600.89 109.768 1601.01 107.788C1601.76 96.2336 1602 84.6497 1602.58 73.0949C1602.81 68.4089 1595.53 68.438 1595.3 73.0949Z" fill="#E3E1A4" fill-opacity="0.05"/>
<path d="M1582.35 84.4754C1590.73 89.8017 1599.09 95.128 1607.47 100.454C1608.63 101.211 1609.83 101.939 1610.99 102.695C1614.95 105.228 1618.61 98.9117 1614.66 96.4086C1606.27 91.0823 1597.92 85.7561 1589.54 80.4298C1588.38 79.673 1587.18 78.9454 1586.02 78.1887C1582.06 75.6565 1578.39 81.9724 1582.35 84.4754Z" fill="#E3E1A4" fill-opacity="0.05"/>
<path d="M1611.83 79.2073C1604.18 83.6313 1596.55 88.0262 1588.78 92.2756L1582.44 95.7682C1578.33 98.0093 1582 104.296 1586.11 102.055C1594.05 97.6892 1601.94 93.2943 1609.8 88.7829C1611.69 87.6769 1613.61 86.6 1615.5 85.494C1619.55 83.1656 1615.91 76.8788 1611.83 79.2073Z" fill="#E3E1A4" fill-opacity="0.05"/>
<path d="M1750.14 225.84C1749.82 232.01 1749.7 238.21 1749.29 244.38C1749.23 245.37 1750.16 246.184 1751.1 246.184C1752.14 246.184 1752.84 245.34 1752.9 244.38C1753.31 238.21 1753.42 232.01 1753.74 225.84C1753.86 223.511 1750.22 223.511 1750.11 225.84H1750.14Z" fill="#E3E1A4" fill-opacity="0.05"/>
<path d="M1743.15 231.807C1747.63 234.659 1752.09 237.512 1756.57 240.364L1758.46 241.557C1760.44 242.809 1762.27 239.665 1760.29 238.414C1755.81 235.561 1751.36 232.709 1746.88 229.857L1744.98 228.663C1743 227.412 1741.17 230.555 1743.15 231.807Z" fill="#E3E1A4" fill-opacity="0.05"/>
<path d="M1758.92 229.216C1754.82 231.574 1750.75 233.931 1746.61 236.202C1745.48 236.813 1744.34 237.453 1743.21 238.064C1741.14 239.199 1742.98 242.343 1745.04 241.208C1749.29 238.879 1753.51 236.522 1757.7 234.106C1758.72 233.524 1759.74 232.942 1760.76 232.36C1762.8 231.195 1760.96 228.052 1758.92 229.216Z" fill="#E3E1A4" fill-opacity="0.05"/>
<path d="M1387.91 246.389C1390.12 252.152 1392.54 257.856 1394.66 263.677C1395.01 264.609 1395.88 265.22 1396.9 264.958C1397.77 264.725 1398.5 263.648 1398.18 262.717C1396.06 256.925 1393.64 251.22 1391.43 245.428C1391.08 244.526 1390.21 243.886 1389.19 244.148C1388.32 244.38 1387.56 245.457 1387.91 246.389Z" fill="#E3E1A4" fill-opacity="0.05"/>
<path d="M1383.77 254.887C1389.01 255.673 1394.25 256.459 1399.49 257.244L1401.73 257.565C1402.69 257.71 1403.68 257.332 1403.97 256.284C1404.21 255.44 1403.68 254.188 1402.69 254.043C1397.45 253.257 1392.22 252.471 1386.98 251.685L1384.74 251.365C1383.77 251.22 1382.79 251.598 1382.49 252.646C1382.26 253.49 1382.79 254.741 1383.77 254.887Z" fill="#E3E1A4" fill-opacity="0.05"/>
<path d="M1397.31 246.301C1394.54 250.114 1391.78 253.927 1388.9 257.681L1386.54 260.767C1385.96 261.552 1386.42 262.804 1387.18 263.27C1388.11 263.823 1389.07 263.415 1389.68 262.629C1392.62 258.787 1395.5 254.946 1398.36 251.045L1400.45 248.164C1401.03 247.378 1400.6 246.127 1399.81 245.661C1398.88 245.137 1397.89 245.515 1397.31 246.301Z" fill="#E3E1A4" fill-opacity="0.05"/>
<path d="M1825.4 379.982C1825.22 372.357 1825.25 364.702 1824.79 357.105C1824.44 351.604 1823.65 344.241 1819.61 340.05C1811.25 331.347 1796.96 334.578 1791.7 344.736C1789.02 349.916 1788.7 355.999 1788.49 361.733C1788.29 367.467 1788.49 375.354 1780.96 376.431C1776.04 377.13 1770.8 375.82 1768.82 370.814C1766.84 365.808 1768.03 359.521 1767.98 354.195C1767.92 348.869 1766.93 343.833 1763.44 339.875C1759.94 335.917 1754.59 333.792 1749.38 334.083C1744.17 334.374 1738.9 336.644 1735.64 340.923C1731.92 345.813 1731.92 351.837 1731.92 357.688C1731.92 361.995 1732.18 368.835 1729.76 372.619C1727.61 375.966 1721.93 376.635 1718.35 376.053C1706.89 374.103 1711.98 356.756 1710.15 349.043C1707.03 335.917 1692.71 329.543 1681.48 337.721C1675.89 341.767 1673.8 347.617 1673.18 354.282C1672.37 363.305 1672.22 372.415 1672.37 381.438C1672.46 386.123 1679.73 386.123 1679.65 381.438C1679.5 373.987 1679.65 366.536 1680.11 359.114C1680.49 353.002 1680.72 346.744 1686.43 343.135C1691.26 340.108 1697.08 340.748 1700.57 345.376C1703.83 349.684 1703.57 354.864 1703.48 359.987C1703.31 369.213 1705.05 379.924 1715.39 382.864C1722.92 385.017 1733.75 382.427 1736.89 374.569C1738.58 370.377 1738.96 365.168 1739.13 360.685C1739.34 355.359 1738 348.432 1742.34 344.357C1746 340.894 1752.14 340.37 1756.28 343.222C1760.41 346.074 1760.76 351.168 1760.73 355.796C1760.64 365.371 1759.56 376.81 1769.63 381.961C1778.6 386.56 1790.24 383.417 1794.34 373.987C1796.93 368.02 1795.39 360.656 1796.35 354.311C1797.2 348.898 1800.34 342.32 1806.71 342.233C1809.59 342.203 1813.52 343.63 1815.07 346.133C1816.7 348.81 1817.19 352.856 1817.45 355.883C1818.15 363.887 1817.98 372.007 1818.15 380.04C1818.27 384.726 1825.54 384.726 1825.43 380.04L1825.4 379.982Z" fill="#E3E1A4" fill-opacity="0.05"/>
<path d="M1444.46 41.4284C1436.83 41.6031 1429.18 41.574 1421.58 42.0397C1416.08 42.3889 1408.72 43.1748 1404.53 47.2204C1395.82 55.5737 1399.05 69.8644 1409.21 75.1325C1414.39 77.8102 1420.47 78.1303 1426.21 78.3341C1431.94 78.5378 1439.83 78.3341 1440.91 85.8724C1441.6 90.7912 1440.29 96.0301 1435.29 98.0093C1430.28 99.9885 1424 98.7951 1418.67 98.8533C1413.34 98.9116 1408.31 99.9011 1404.35 103.394C1400.39 106.886 1398.27 112.242 1398.56 117.452C1398.85 122.662 1401.12 127.93 1405.4 131.189C1410.29 134.915 1416.31 134.915 1422.16 134.915C1426.47 134.915 1433.31 134.653 1437.09 137.069C1440.44 139.223 1441.11 144.898 1440.53 148.478C1438.58 159.946 1421.23 154.852 1413.52 156.686C1400.39 159.8 1394.02 174.12 1402.2 185.355C1406.24 190.943 1412.09 193.038 1418.76 193.65C1427.78 194.465 1436.89 194.61 1445.91 194.465C1450.6 194.377 1450.6 187.101 1445.91 187.188C1438.46 187.334 1431.01 187.188 1423.59 186.722C1417.48 186.344 1411.22 186.111 1407.61 180.407C1404.58 175.575 1405.22 169.754 1409.85 166.261C1414.16 163.002 1419.34 163.264 1424.46 163.351C1433.69 163.526 1444.4 161.779 1447.34 151.447C1449.49 143.908 1446.9 133.081 1439.04 129.938C1434.85 128.25 1429.64 127.871 1425.16 127.697C1419.83 127.493 1412.91 128.832 1408.83 124.495C1405.37 120.828 1404.85 114.687 1407.7 110.554C1410.55 106.421 1415.64 106.071 1420.27 106.101C1429.85 106.188 1441.28 107.265 1446.44 97.1943C1451.03 88.2299 1447.89 76.5877 1438.46 72.4839C1432.49 69.8935 1425.13 71.4361 1418.79 70.4756C1413.37 69.6316 1406.8 66.4882 1406.71 60.1141C1406.68 57.2327 1408.11 53.3034 1410.61 51.7608C1413.29 50.1309 1417.33 49.6362 1420.36 49.3742C1428.36 48.6757 1436.48 48.8503 1444.51 48.6757C1449.2 48.5593 1449.2 41.2829 1444.51 41.3993L1444.46 41.4284Z" fill="#E3E1A4" fill-opacity="0.05"/>
<path d="M1878.75 201.159C1886.05 201.305 1893.85 201.421 1900.31 205.321C1905.93 208.726 1909.97 214.431 1911.52 220.776C1913.26 227.82 1913.29 236.959 1911.84 244.06C1910.38 251.162 1905.49 258.671 1900.6 263.794C1895.48 269.149 1885.79 270.255 1878.75 270.837C1871.21 271.449 1864.48 269.586 1858.28 265.336C1852.73 261.524 1846.96 255.877 1844.29 249.619C1842.71 245.923 1842.54 241.877 1842.51 237.919C1842.48 233.466 1842.51 228.926 1843.7 224.589C1845.74 217.312 1851.07 211.666 1857.53 207.999C1863.99 204.332 1871.32 201.188 1878.75 201.159C1883.43 201.159 1883.43 193.854 1878.75 193.883C1870.36 193.941 1862.04 197.259 1854.76 201.217C1847.49 205.176 1841.9 210.473 1838.55 217.691C1834.62 226.102 1834.42 236.697 1835.76 245.748C1837.1 254.8 1843.06 262.135 1849.79 267.898C1856.07 273.282 1863.47 277.211 1871.79 278.085C1876.77 278.579 1881.77 277.91 1886.66 277.008C1891.55 276.105 1896.24 275.32 1900.46 273.078C1907.65 269.237 1913.15 260.068 1916.49 252.879C1920.36 244.613 1920.36 234.688 1919.61 225.753C1918.79 216.265 1914.92 207.562 1907.38 201.508C1899.15 194.901 1888.9 194.116 1878.75 193.912C1874.06 193.824 1874.06 201.101 1878.75 201.188V201.159Z" fill="#E3E1A4" fill-opacity="0.05"/>
<path d="M1356.13 311.235C1363.43 311.381 1371.23 311.497 1377.69 315.397C1383.31 318.803 1387.35 324.507 1388.9 330.852C1390.64 337.896 1390.67 347.035 1389.22 354.136C1387.76 361.238 1382.87 368.747 1377.98 373.87C1372.86 379.225 1363.17 380.331 1356.13 380.913C1348.59 381.525 1341.87 379.662 1335.67 375.413C1330.11 371.6 1324.34 365.953 1321.67 359.696C1320.1 355.999 1319.92 351.954 1319.89 347.995C1319.86 343.542 1319.89 339.002 1321.09 334.665C1323.12 327.389 1328.45 321.742 1334.91 318.075C1341.37 314.408 1348.7 311.264 1356.13 311.235C1360.81 311.235 1360.81 303.93 1356.13 303.959C1347.74 304.017 1339.42 307.335 1332.14 311.293C1324.87 315.252 1319.28 320.549 1315.93 327.767C1312 336.178 1311.8 346.773 1313.14 355.825C1314.48 364.876 1320.44 372.211 1327.17 377.974C1333.45 383.358 1340.85 387.288 1349.17 388.161C1354.15 388.655 1359.15 387.986 1364.04 387.084C1368.93 386.182 1373.62 385.396 1377.84 383.155C1385.03 379.313 1390.53 370.144 1393.87 362.955C1397.74 354.689 1397.74 344.765 1396.99 335.829C1396.17 326.341 1392.3 317.638 1384.76 311.584C1376.53 304.978 1366.28 304.192 1356.13 303.988C1351.44 303.901 1351.44 311.177 1356.13 311.264V311.235Z" fill="#E3E1A4" fill-opacity="0.05"/>
<path d="M869.538 406.643V328.058C869.538 323.372 862.262 323.372 862.262 328.058V406.643C862.262 411.329 869.538 411.329 869.538 406.643Z" fill="#E3E1A4" fill-opacity="0.05"/>
<path d="M989.184 236.318C987.088 199.267 985.721 162.158 985.051 125.048C984.964 120.362 977.688 120.362 977.775 125.048C978.445 162.158 979.813 199.267 981.908 236.318C982.17 240.975 989.446 241.004 989.184 236.318Z" fill="#E3E1A4" fill-opacity="0.05"/>
<path d="M996.693 333.966C989.941 323.867 983.538 313.534 976.669 303.522C975.564 301.892 973.468 301.165 971.693 302.212C970.092 303.144 969.277 305.56 970.383 307.189C977.252 317.202 983.684 327.534 990.407 337.634C991.483 339.264 993.608 339.962 995.383 338.943C997.013 337.983 997.77 335.596 996.693 333.966Z" fill="#E3E1A4" fill-opacity="0.05"/>
<path d="M978.969 338.158C983.655 328.844 988.369 319.559 993.055 310.246L995.034 306.345C995.907 304.599 995.5 302.416 993.724 301.368C992.095 300.408 989.65 300.903 988.748 302.678C984.062 311.992 979.347 321.276 974.661 330.59L972.682 334.49C971.809 336.237 972.217 338.42 973.992 339.467C975.622 340.428 978.067 339.933 978.969 338.158Z" fill="#E3E1A4" fill-opacity="0.05"/>
<path d="M1001.87 315.921C992.647 316.037 983.421 316.154 974.195 316.474C971.634 316.561 969.073 316.649 966.483 316.736C961.826 316.911 961.797 324.187 966.483 324.012C975.942 323.692 985.371 323.401 994.859 323.285C997.188 323.256 999.545 323.226 1001.87 323.197C1006.56 323.139 1006.56 315.863 1001.87 315.921Z" fill="#E3E1A4" fill-opacity="0.05"/>
<path d="M934.556 338.827C933.945 327.273 933.741 315.689 932.984 304.134C932.868 302.184 931.413 300.496 929.346 300.496C927.484 300.496 925.592 302.155 925.708 304.134C926.465 315.689 926.698 327.273 927.28 338.827C927.513 343.484 934.789 343.513 934.556 338.827Z" fill="#E3E1A4" fill-opacity="0.05"/>
<path d="M917.996 333.763C926.378 328.437 934.73 323.11 943.112 317.784C944.276 317.027 945.47 316.3 946.634 315.543C950.563 313.04 946.925 306.724 942.967 309.256C934.585 314.583 926.232 319.909 917.85 325.235C916.686 325.992 915.493 326.72 914.329 327.476C910.4 329.979 914.038 336.295 917.996 333.763Z" fill="#E3E1A4" fill-opacity="0.05"/>
<path d="M947.478 326.457C939.824 322.033 932.198 317.639 924.428 313.389C922.303 312.225 920.179 311.061 918.083 309.896C913.979 307.655 910.312 313.913 914.416 316.183C922.361 320.549 930.248 324.944 938.106 329.455C939.998 330.561 941.919 331.638 943.811 332.744C947.885 335.073 951.552 328.815 947.478 326.457Z" fill="#E3E1A4" fill-opacity="0.05"/>
<path d="M1085.75 186.082C1085.43 179.912 1085.31 173.712 1084.91 167.542C1084.85 166.552 1084.12 165.737 1083.1 165.737C1082.17 165.737 1081.21 166.581 1081.3 167.542C1081.71 173.712 1081.82 179.912 1082.14 186.082C1082.26 188.41 1085.9 188.44 1085.78 186.082H1085.75Z" fill="#E3E1A4" fill-opacity="0.05"/>
<path d="M1076.96 183.259C1081.44 180.406 1085.9 177.554 1090.38 174.702L1092.27 173.509C1094.25 172.257 1092.42 169.114 1090.44 170.365C1085.95 173.217 1081.5 176.07 1077.02 178.922L1075.13 180.115C1073.15 181.367 1074.98 184.51 1076.96 183.259Z" fill="#E3E1A4" fill-opacity="0.05"/>
<path d="M1092.71 179.562C1088.6 177.205 1084.53 174.847 1080.4 172.577C1079.26 171.966 1078.13 171.326 1076.99 170.714C1074.92 169.579 1073.09 172.723 1075.16 173.858C1079.41 176.186 1083.63 178.544 1087.82 180.96L1090.87 182.706C1092.91 183.87 1094.74 180.727 1092.71 179.562Z" fill="#E3E1A4" fill-opacity="0.05"/>
<path d="M723.378 166.523C725.59 160.761 728.006 155.056 730.13 149.235C730.48 148.303 729.752 147.256 728.85 146.994C727.831 146.703 726.958 147.343 726.609 148.274C724.484 154.066 722.068 159.771 719.857 165.563C719.507 166.494 720.235 167.571 721.137 167.804C722.156 168.095 723.029 167.455 723.378 166.523Z" fill="#E3E1A4" fill-opacity="0.05"/>
<path d="M716.684 160.557C721.923 159.771 727.162 158.985 732.4 158.199L734.641 157.879C735.602 157.733 736.155 156.511 735.922 155.638C735.631 154.59 734.67 154.212 733.681 154.357C728.442 155.143 723.203 155.929 717.965 156.715L715.724 157.035C714.763 157.18 714.21 158.403 714.443 159.276C714.734 160.324 715.695 160.702 716.684 160.557Z" fill="#E3E1A4" fill-opacity="0.05"/>
<path d="M732.4 163.788C729.635 159.975 726.871 156.162 723.989 152.407C723.203 151.389 722.418 150.341 721.632 149.322C721.05 148.536 720.06 148.129 719.129 148.682C718.372 149.118 717.877 150.37 718.489 151.185C721.428 155.027 724.309 158.869 727.162 162.769L729.257 165.65C729.839 166.436 730.829 166.844 731.76 166.291C732.546 165.825 732.982 164.603 732.4 163.788Z" fill="#E3E1A4" fill-opacity="0.05"/>
<path d="M1150.07 31.969C1149.92 39.1581 1149.87 46.3762 1149.52 53.5652C1149.26 59.037 1148.88 66.4298 1143.11 68.7582C1137.7 70.9411 1132.52 68.7582 1129.93 63.5484C1127.34 58.3385 1127.78 52.0808 1127.6 46.5799C1127.4 40.7589 1126.26 35.7236 1121.66 31.7071C1118.09 28.5928 1113.17 27.807 1108.51 28.1853C1097.8 29.0585 1092.65 37.6155 1092.5 47.6568C1092.39 56.2138 1094.66 71.5232 1081.33 70.5919C1075.24 70.1553 1071.66 65.8768 1071.2 60.0266C1070.79 54.7876 1071.11 49.6069 1070.35 44.3388C1069.71 39.8857 1068.9 35.6654 1065.29 32.6385C1062.03 29.9317 1057.75 28.7092 1053.59 28.5055C1043.72 28.0107 1036.97 34.8214 1035.69 44.3097C1034.96 49.8106 1036.33 55.6026 1035.08 61.0162C1033.68 67.041 1028.71 72.018 1022.22 70.4754C1014.94 68.7582 1012.76 62.4715 1012.26 55.7772C1011.65 47.3949 1011.45 38.9834 1011.62 30.572C1011.71 25.886 1004.43 25.886 1004.35 30.572C1004.2 38.4886 1004.35 46.4344 1004.9 54.3511C1005.34 60.696 1005.98 66.7791 1010.43 71.6397C1018.38 80.3422 1032 80.0511 1038.81 70.3008C1041.95 65.8186 1042.76 60.6087 1042.76 55.2824C1042.76 49.9562 1041.75 43.6694 1044.98 39.2163C1047.6 35.6363 1052.28 35.1997 1056.3 36.2184C1061.62 37.5282 1062.55 40.788 1063.25 45.7941C1064.8 56.7959 1061.51 70.2426 1073.82 76.0346C1083.57 80.6041 1095.53 76.2965 1098.85 65.7895C1100.54 60.4923 1099.78 54.7294 1099.75 49.2576C1099.72 44.1642 1100.27 38.2849 1105.72 36.1311C1110.61 34.2101 1116.78 35.4617 1119.28 40.2932C1120.7 43.0873 1120.3 46.5799 1120.41 49.636C1120.53 52.9831 1120.73 56.3302 1121.26 59.6482C1123.38 72.8621 1135.9 81.3317 1148.38 74.2882C1154.14 71.0284 1155.72 64.1887 1156.44 58.0474C1157.46 49.4614 1157.14 40.6133 1157.35 31.969C1157.46 27.2831 1150.19 27.2831 1150.07 31.969Z" fill="#E3E1A4" fill-opacity="0.05"/>
<path d="M776.405 363.218C769.216 363.072 761.998 363.014 754.81 362.665C749.338 362.403 741.946 362.024 739.618 356.261C737.435 350.848 739.618 345.667 744.827 343.077C750.037 340.486 756.294 340.923 761.795 340.748C767.615 340.545 772.65 339.409 776.667 334.811C779.781 331.231 780.567 326.312 780.188 321.655C779.315 310.944 770.759 305.793 760.718 305.647C752.161 305.531 736.853 307.801 737.784 294.471C738.221 288.388 742.499 284.808 748.349 284.342C753.587 283.935 758.768 284.255 764.036 283.498C768.489 282.858 772.709 282.043 775.735 278.434C778.442 275.174 779.664 270.895 779.868 266.733C780.363 256.867 773.553 250.114 764.065 248.833C758.564 248.106 752.773 249.474 747.359 248.222C741.335 246.825 736.358 241.848 737.9 235.358C739.617 228.081 745.904 225.898 752.598 225.404C760.98 224.792 769.391 224.589 777.802 224.763C782.488 224.851 782.488 217.574 777.802 217.487C769.886 217.341 761.94 217.487 754.024 218.04C747.679 218.477 741.597 219.117 736.736 223.57C728.034 231.516 728.325 245.137 738.075 251.948C742.557 255.091 747.767 255.906 753.093 255.906C758.419 255.906 764.705 254.887 769.158 258.118C772.738 260.738 773.174 265.424 772.156 269.44C770.846 274.766 767.586 275.698 762.58 276.396C751.579 277.939 738.133 274.65 732.342 286.962C727.772 296.712 732.08 308.674 742.586 311.992C747.883 313.68 753.646 312.924 759.117 312.894C764.21 312.865 770.089 313.418 772.243 318.861C774.164 323.751 772.912 329.921 768.081 332.424C765.287 333.85 761.795 333.443 758.739 333.559C755.392 333.676 752.045 333.879 748.727 334.403C735.514 336.528 727.045 349.043 734.088 361.529C737.347 367.292 744.187 368.864 750.328 369.592C758.913 370.61 767.761 370.29 776.405 370.494C781.091 370.61 781.091 363.334 776.405 363.218Z" fill="#E3E1A4" fill-opacity="0.05"/>
<path d="M1210.72 218.04C1219.69 217.865 1229.18 217.429 1236.86 212.277C1243.38 207.941 1248.3 201.275 1250.33 193.708C1251.59 189.109 1251.76 184.249 1251.76 179.505C1251.76 174.76 1251.76 169.929 1250.65 165.301C1249.66 161.052 1247.63 157.152 1245.3 153.484C1242.82 149.584 1240.23 145.335 1236.86 142.133C1230.46 136.138 1220.44 134.828 1212.06 133.926C1202.69 132.907 1193.76 135.177 1186.07 140.62C1179.29 145.393 1172.68 152 1169.45 159.742C1166.02 167.979 1166.28 179.33 1168.26 187.916C1170.24 196.502 1176.38 204.361 1184.06 209.163C1191.75 213.965 1201.41 217.953 1210.66 218.011C1215.35 218.011 1215.35 210.764 1210.66 210.735C1203.91 210.706 1197.19 207.999 1191.31 204.914C1185.43 201.828 1180.6 197.87 1177.49 192.02C1173.94 185.297 1173.94 176.71 1174.61 169.289C1175.33 161.226 1180.19 155.143 1186.01 149.904C1191.34 145.131 1197.89 141.493 1205.11 140.998C1208.98 140.736 1212.85 141.231 1216.63 141.93C1220.41 142.628 1224.55 143.21 1228.07 144.84C1234.18 147.692 1238.66 155.755 1241.57 161.576C1245.09 168.648 1244.77 177.147 1244.34 184.86C1243.87 192.922 1240.64 200.46 1234.04 205.379C1227.43 210.298 1218.73 210.589 1210.66 210.764C1205.98 210.851 1205.98 218.127 1210.66 218.04H1210.72Z" fill="#E3E1A4" fill-opacity="0.05"/>
<path d="M688.075 107.993C697.039 107.818 706.527 107.381 714.21 102.23C720.729 97.893 725.648 91.2279 727.685 83.6605C728.937 79.0619 729.111 74.2013 729.111 69.4571C729.111 64.7129 729.111 59.8814 728.005 55.2537C727.016 51.0043 724.979 47.1042 722.65 43.4369C720.176 39.5368 717.586 35.2874 714.21 32.0858C707.807 26.0901 697.795 24.7803 689.414 23.8781C680.042 22.8594 671.107 25.1296 663.424 30.5723C656.642 35.3456 650.036 41.9525 646.805 49.6945C643.371 57.9314 643.633 69.2825 645.612 77.8685C647.591 86.4546 653.732 94.3131 661.416 99.1155C669.099 103.918 678.761 107.905 688.017 107.964C692.702 107.964 692.702 100.716 688.017 100.687C681.264 100.658 674.541 97.9513 668.662 94.8661C662.783 91.7809 657.952 87.8226 654.838 81.9724C651.287 75.2491 651.287 66.663 651.957 59.2411C652.684 51.1789 657.545 45.0959 663.365 39.8569C668.691 35.0836 675.24 31.4455 682.458 30.9507C686.329 30.6887 690.199 31.1835 693.983 31.882C697.766 32.5806 701.899 33.1627 705.421 34.7926C711.533 37.6449 716.015 45.7071 718.925 51.5282C722.446 58.6008 722.126 67.0996 721.69 74.8125C721.224 82.8747 717.994 90.413 711.387 95.3318C704.78 100.251 696.078 100.542 688.017 100.716C683.331 100.804 683.331 108.08 688.017 107.993H688.075Z" fill="#E3E1A4" fill-opacity="0.05"/>
</svg>
