<svg width="48" height="48" viewBox="0 0 48 48" fill="none" xmlns="http://www.w3.org/2000/svg">
<rect x="0.960938" width="46.9934" height="47" rx="10" fill="#E3E1A4"/>
<path d="M24.6077 30.04H14.8797L13.0877 35H10.0157L18.0797 12.824H21.4397L29.4717 35H26.3997L24.6077 30.04ZM23.7757 27.672L19.7437 16.408L15.7117 27.672H23.7757ZM34.4902 14.616C33.9356 14.616 33.4662 14.424 33.0822 14.04C32.6982 13.656 32.5062 13.1867 32.5062 12.632C32.5062 12.0773 32.6982 11.608 33.0822 11.224C33.4662 10.84 33.9356 10.648 34.4902 10.648C35.0236 10.648 35.4716 10.84 35.8342 11.224C36.2182 11.608 36.4102 12.0773 36.4102 12.632C36.4102 13.1867 36.2182 13.656 35.8342 14.04C35.4716 14.424 35.0236 14.616 34.4902 14.616ZM35.8982 17.464V35H32.9862V17.464H35.8982Z" fill="#5B6049"/>
</svg>
