<svg width="126" height="65" viewBox="0 0 126 65" fill="none" xmlns="http://www.w3.org/2000/svg">
<path d="M82.6831 0.22168H86.8519V29.565C92.583 29.4517 97.7312 30.0669 100.815 26.481V31.0626H82.6831V0.22168Z" fill="#5B6049"/>
<path d="M89.4098 33.5476H82.6831V64.259H89.4098C105.373 64.259 104.215 33.5476 89.4098 33.5476ZM90.1383 62.9476L86.3581 62.9072L86.3014 34.9561H90.0493C98.6783 34.948 101.843 62.3324 90.1383 62.9395V62.9476Z" fill="#5B6049"/>
<path d="M124.136 39.7158L125.601 35.3366C119.069 32.4792 111.014 32.1068 106.077 35.3366C103.041 37.2146 102.555 40.2501 105.259 43.148C108.1 45.3255 113.362 45.5845 118.114 47.2116C123.861 49.2433 122.889 51.5908 118.114 50.1823C100.435 43.0428 97.8282 60.8593 111.282 64.0405C116.001 64.7204 119.781 65.4732 123.318 63.7815L124.945 59.0946C119.449 61.4502 113.678 61.3773 107.696 59.4103C101.026 56.4072 104.927 50.9189 108.999 52.0684L118.599 54.8854C124.67 56.1886 126.071 47.8106 120.922 46.2888C116.219 44.9693 110.998 44.1437 109.387 43.407C105.648 41.6343 106.562 38.5259 111.605 37.6922C116.203 37.3765 120.356 38.105 124.136 39.7239V39.7158Z" fill="#5B6049"/>
<path d="M103.826 0.22168H110.432C107.89 5.51563 106.627 11.1091 105.372 16.6378C104.045 23.1378 104.62 25.5258 108.262 26.9585C110.318 27.3147 113.435 27.2904 116.689 27.2176C120.38 27.1285 121.384 22.4579 121.376 20.2885V0.22168H125.609V18.0463C126.143 31.9611 103.64 36.7532 103.826 25.202V0.22168Z" fill="#5B6049"/>
<path d="M76.2639 28.6908C72.9613 60.3817 60.2121 68.2497 42.6384 63.8948C42.9541 54.602 49.0009 49.818 63.5147 44.3865C69.9743 41.8933 73.5765 35.6037 75.5273 28.5451C75.6406 28.0918 76.3125 28.2294 76.2558 28.6989L76.2639 28.6908Z" fill="#5B6049"/>
<path d="M36.4457 63.0528C36.5429 54.3753 31.8479 47.8995 21.9562 43.8279C14.4686 40.4524 10.6317 34.349 9.27984 26.3838C8.18706 22.3283 11.0283 22.6683 12.6068 25.1857C14.6709 28.3751 17.4312 30.423 21.0577 31.0625C30.1804 33.1833 38.4775 37.6354 38.178 54.0029C38.437 41.4076 42.8487 34.0818 54.246 31.5158C58.9167 30.5363 62.2598 27.7599 64.9472 24.1172C66.2262 22.7816 67.5214 24.3277 67.2219 25.7847C65.87 33.4666 62.3407 39.9019 54.3998 43.8279C44.4838 48.2395 40.0155 54.7153 39.6027 63.0528" fill="#5B6049"/>
<path d="M33.6289 63.8947C16.0391 68.2496 3.28992 60.3654 0.00346273 28.6017C-0.0532003 28.1322 0.602472 28.0189 0.731988 28.4722C2.66663 35.5469 6.26878 41.8932 12.7688 44.3945C27.2584 49.8179 33.3294 54.61 33.6289 63.9028V63.8947Z" fill="#5B6049"/>
<path d="M38.1701 38.3316C32.4552 27.428 30.7796 15.4316 37.0287 1.29014C37.7977 -0.409751 38.5425 -0.450224 39.271 1.29014C44.7997 13.9098 44.8402 26.2785 38.1701 38.3316Z" fill="#5B6049"/>
<path d="M43.1079 33.6852C44.8969 26.5051 48.9361 20.4422 57.3951 16.581C58.4232 16.1196 58.7712 16.4029 58.3989 17.4795C55.8409 25.3638 50.9194 30.933 43.0999 33.6852H43.1079Z" fill="#5B6049"/>
<path d="M33.6371 33.6852C31.8482 26.5051 27.8089 20.4422 19.35 16.581C18.3219 16.1196 17.9739 16.4029 18.3462 17.4795C20.9042 25.3638 25.8257 30.933 33.6452 33.6852H33.6371Z" fill="#5B6049"/>
</svg>
