<svg width="48" height="48" viewBox="0 0 48 48" fill="none" xmlns="http://www.w3.org/2000/svg">
<rect x="0.960938" width="46.9934" height="47" rx="10" fill="#E3E1A4"/>
<path d="M16.3355 12.696V35H13.4235V12.696H16.3355ZM20.2105 26.168C20.2105 24.376 20.5731 22.808 21.2985 21.464C22.0238 20.0987 23.0158 19.0427 24.2745 18.296C25.5545 17.5493 26.9838 17.176 28.5625 17.176C29.9278 17.176 31.1971 17.496 32.3705 18.136C33.5438 18.7547 34.4398 19.576 35.0585 20.6V11.32H38.0025V35H35.0585V31.704C34.4825 32.7493 33.6291 33.6133 32.4985 34.296C31.3678 34.9573 30.0451 35.288 28.5305 35.288C26.9731 35.288 25.5545 34.904 24.2745 34.136C23.0158 33.368 22.0238 32.2907 21.2985 30.904C20.5731 29.5173 20.2105 27.9387 20.2105 26.168ZM35.0585 26.2C35.0585 24.8773 34.7918 23.7253 34.2585 22.744C33.7251 21.7627 32.9998 21.016 32.0825 20.504C31.1865 19.9707 30.1945 19.704 29.1065 19.704C28.0185 19.704 27.0265 19.96 26.1305 20.472C25.2345 20.984 24.5198 21.7307 23.9865 22.712C23.4531 23.6933 23.1865 24.8453 23.1865 26.168C23.1865 27.512 23.4531 28.6853 23.9865 29.688C24.5198 30.6693 25.2345 31.4267 26.1305 31.96C27.0265 32.472 28.0185 32.728 29.1065 32.728C30.1945 32.728 31.1865 32.472 32.0825 31.96C32.9998 31.4267 33.7251 30.6693 34.2585 29.688C34.7918 28.6853 35.0585 27.5227 35.0585 26.2Z" fill="#5B6049"/>
</svg>
