<svg width="129" height="66" viewBox="0 0 129 66" fill="none" xmlns="http://www.w3.org/2000/svg">
<path d="M76.2639 29.1908C72.9613 60.8817 60.2121 68.7497 42.6384 64.3948C42.9541 55.102 49.0009 50.318 63.5147 44.8865C69.9743 42.3933 73.5765 36.1037 75.5273 29.0451C75.6406 28.5918 76.3125 28.7294 76.2558 29.1989L76.2639 29.1908Z" fill="#E3E1A4"/>
<path d="M36.4457 63.5528C36.5429 54.8753 31.8479 48.3995 21.9562 44.3279C14.4686 40.9524 10.6317 34.849 9.27984 26.8838C8.18706 22.8283 11.0283 23.1683 12.6068 25.6857C14.6709 28.8751 17.4312 30.923 21.0577 31.5625C30.1804 33.6833 38.4775 38.1354 38.178 54.5029C38.437 41.9076 42.8487 34.5818 54.246 32.0158C58.9167 31.0363 62.2598 28.2599 64.9472 24.6172C66.2262 23.2816 67.5214 24.8277 67.2219 26.2847C65.87 33.9666 62.3407 40.4019 54.3998 44.3279C44.4838 48.7395 40.0155 55.2153 39.6027 63.5528" fill="#E3E1A4"/>
<path d="M33.6289 64.3947C16.0391 68.7496 3.28992 60.8654 0.00346273 29.1017C-0.0532003 28.6322 0.602472 28.5189 0.731988 28.9722C2.66663 36.0469 6.26878 42.3932 12.7688 44.8945C27.2584 50.3179 33.3294 55.11 33.6289 64.4028V64.3947Z" fill="#E3E1A4"/>
<path d="M38.1701 38.8316C32.4552 27.928 30.7796 15.9316 37.0287 1.79014C37.7977 0.0902494 38.5425 0.0497757 39.271 1.79014C44.7997 14.4098 44.8402 26.7785 38.1701 38.8316Z" fill="#E3E1A4"/>
<path d="M43.1079 34.1852C44.8969 27.0051 48.9361 20.9422 57.3951 17.081C58.4232 16.6196 58.7712 16.9029 58.3989 17.9795C55.8409 25.8638 50.9194 31.433 43.0999 34.1852H43.1079Z" fill="#E3E1A4"/>
<path d="M33.6371 34.1852C31.8482 27.0051 27.8089 20.9422 19.35 17.081C18.3219 16.6196 17.9739 16.9029 18.3462 17.9795C20.9042 25.8638 25.8257 31.433 33.6452 34.1852H33.6371Z" fill="#E3E1A4"/>
<path d="M81.2638 0.5H85.4326V29.8434C91.1637 29.73 96.3119 30.3452 99.396 26.7593V31.3409H81.2638V0.5Z" fill="#E3E1A4"/>
<path d="M87.9905 33.8259H81.2638V64.5373H87.9905C103.953 64.5373 102.796 33.8259 87.9905 33.8259ZM88.719 63.226L84.9388 63.1855L84.8821 35.2344H88.63C97.259 35.2263 100.424 62.6108 88.719 63.2179V63.226Z" fill="#E3E1A4"/>
<path d="M122.717 39.9942L124.182 35.6149C117.65 32.7575 109.595 32.3851 104.658 35.6149C101.622 37.4929 101.136 40.5284 103.84 43.4263C106.681 45.6038 111.943 45.8628 116.694 47.4899C122.442 49.5217 121.47 51.8691 116.694 50.4606C99.0155 43.3211 96.409 61.1376 109.862 64.3188C114.582 64.9988 118.362 65.7516 121.899 64.0598L123.526 59.3729C118.03 61.7285 112.258 61.6556 106.276 59.6886C99.6064 56.6855 103.508 51.1973 107.58 52.3467L117.18 55.1637C123.251 56.4669 124.652 48.0889 119.503 46.5671C114.8 45.2476 109.579 44.422 107.968 43.6854C104.229 41.9126 105.143 38.8042 110.186 37.9705C114.784 37.6548 118.937 38.3833 122.717 40.0023V39.9942Z" fill="#E3E1A4"/>
<path d="M102.407 0.5H109.012C106.471 5.79395 105.208 11.3874 103.953 16.9161C102.626 23.4162 103.2 25.8041 106.843 27.2369C108.899 27.593 112.016 27.5687 115.27 27.4959C118.961 27.4069 119.965 22.7362 119.956 20.5668V0.5H124.19V18.3246C124.724 32.2394 102.221 37.0315 102.407 25.4803V0.5Z" fill="#E3E1A4"/>
</svg>
