<svg width="78" height="40" viewBox="0 0 78 40" fill="none" xmlns="http://www.w3.org/2000/svg">
<path d="M50.8756 0.13739H53.4402V18.1923C56.9689 18.1216 60.1377 18.5008 62.0274 16.2897V19.1114H50.8756V0.13739Z" fill="#E3E1A4"/>
<path d="M55.0149 20.6412H50.8756V39.5381H55.0149C64.8362 39.5381 64.1227 20.6412 55.0149 20.6412ZM55.4649 38.7282L53.1381 38.7025L53.0995 21.5089H55.407C60.7161 21.5025 62.6637 38.3554 55.4649 38.7282Z" fill="#E3E1A4"/>
<path d="M76.38 24.4334L77.2799 21.7403C73.2627 19.9791 68.3006 19.7542 65.2668 21.7403C63.3964 22.8972 63.1008 24.7676 64.7655 26.5481C66.5138 27.885 69.7532 28.0457 72.6778 29.0484C76.2129 30.2953 75.6151 31.7415 72.6778 30.8738C61.796 26.4838 60.1955 37.4427 68.4742 39.3967C71.3794 39.8145 73.7062 40.2772 75.8851 39.236L76.8878 36.35C73.5069 37.8026 69.9525 37.7512 66.276 36.5429C62.1752 34.6982 64.5727 31.3173 67.0794 32.0243L72.9863 33.7533C76.7271 34.5568 77.582 29.4019 74.4196 28.4635C71.5208 27.6536 68.3135 27.1458 67.3172 26.6895C65.0162 25.5968 65.5753 23.6878 68.6798 23.1736C71.5079 22.9744 74.0661 23.4307 76.3864 24.4206L76.38 24.4334Z" fill="#E3E1A4"/>
<path d="M63.8849 0.13739H67.9471C66.3852 3.39614 65.6075 6.84129 64.8362 10.235C64.0199 14.2394 64.3734 15.7048 66.6166 16.5854C67.8828 16.8039 69.7982 16.7911 71.8036 16.7461C74.0725 16.6947 74.6896 13.8151 74.6831 12.4847V0.13739H77.2863V11.1027C77.6141 19.6642 63.7692 22.6144 63.8849 15.5056V0.13739Z" fill="#E3E1A4"/>
<path d="M46.9291 17.6588C44.898 37.1599 37.05 41.9998 26.2389 39.3195C26.4382 33.599 30.1533 30.6552 39.0811 27.3194C43.0533 25.7832 45.2708 21.9138 46.4728 17.5688C46.5435 17.2924 46.9548 17.3696 46.9227 17.6588H46.9291Z" fill="#E3E1A4"/>
<path d="M22.4274 38.7925C22.4853 33.4577 19.5993 29.4726 13.5125 26.9659C8.90392 24.8898 6.54502 21.1297 5.71587 16.2319C5.04741 13.738 6.78927 13.9437 7.75983 15.4928C9.03247 17.4596 10.7293 18.7129 12.9597 19.1114C18.5709 20.4162 23.6808 23.1544 23.4944 33.2263C23.6551 25.4747 26.3675 20.969 33.3799 19.3878C36.253 18.7901 38.3098 17.0804 39.9617 14.8372C40.7458 14.0144 41.5429 14.9657 41.3565 15.8656C40.5273 20.5898 38.3548 24.5491 33.4699 26.9659C27.3702 29.6783 24.6192 33.6634 24.3685 38.7925" fill="#E3E1A4"/>
<path d="M20.692 39.3131C9.86805 41.9934 2.02648 37.1406 0.00181226 17.601C-0.0303253 17.3117 0.374608 17.241 0.451739 17.5174C1.64083 21.8753 3.85832 25.7768 7.85624 27.3129C16.7712 30.6488 20.5056 33.5991 20.692 39.3131Z" fill="#E3E1A4"/>
<path d="M23.488 23.585C19.9721 16.8747 18.9437 9.49587 22.7874 0.793012C23.2566 -0.254674 23.7194 -0.273956 24.1629 0.793012C27.563 8.55745 27.5887 16.1676 23.4815 23.585H23.488Z" fill="#E3E1A4"/>
<path d="M26.5218 20.7247C27.6209 16.3026 30.1083 12.5746 35.3146 10.2029C35.9445 9.92008 36.163 10.0936 35.9316 10.7557C34.3569 15.6084 31.3295 19.0343 26.5218 20.7312V20.7247Z" fill="#E3E1A4"/>
<path d="M20.6984 20.7247C19.5993 16.3026 17.1119 12.5746 11.9056 10.2029C11.2757 9.92008 11.0571 10.0936 11.2885 10.7557C12.8633 15.6084 15.8906 19.0343 20.6984 20.7312V20.7247Z" fill="#E3E1A4"/>
</svg>
