<svg width="48" height="48" viewBox="0 0 48 48" fill="none" xmlns="http://www.w3.org/2000/svg">
<rect x="0.960938" width="46.9934" height="47" rx="10" fill="#E3E1A4"/>
<path d="M24.336 19.224C24.336 21.08 23.696 22.6267 22.416 23.864C21.1573 25.08 19.2266 25.688 16.624 25.688H12.336V35H9.42396V12.696H16.624C19.1413 12.696 21.0506 13.304 22.352 14.52C23.6746 15.736 24.336 17.304 24.336 19.224ZM16.624 23.288C18.2453 23.288 19.44 22.936 20.208 22.232C20.976 21.528 21.36 20.5253 21.36 19.224C21.36 16.472 19.7813 15.096 16.624 15.096H12.336V23.288H16.624ZM34.1632 35.288C32.8192 35.288 31.6139 35.064 30.5472 34.616C29.4805 34.1467 28.6379 33.5067 28.0192 32.696C27.4005 31.864 27.0592 30.9147 26.9952 29.848H30.0032C30.0885 30.7227 30.4939 31.4373 31.2192 31.992C31.9659 32.5467 32.9365 32.824 34.1312 32.824C35.2405 32.824 36.1152 32.5787 36.7552 32.088C37.3952 31.5973 37.7152 30.9787 37.7152 30.232C37.7152 29.464 37.3739 28.8987 36.6912 28.536C36.0085 28.152 34.9525 27.7787 33.5232 27.416C32.2219 27.0747 31.1552 26.7333 30.3232 26.392C29.5125 26.0293 28.8085 25.5067 28.2112 24.824C27.6352 24.12 27.3472 23.2027 27.3472 22.072C27.3472 21.176 27.6139 20.3547 28.1472 19.608C28.6805 18.8613 29.4379 18.2747 30.4192 17.848C31.4005 17.4 32.5205 17.176 33.7792 17.176C35.7205 17.176 37.2885 17.6667 38.4832 18.648C39.6779 19.6293 40.3179 20.9733 40.4032 22.68H37.4912C37.4272 21.7627 37.0539 21.0267 36.3712 20.472C35.7099 19.9173 34.8139 19.64 33.6832 19.64C32.6379 19.64 31.8059 19.864 31.1872 20.312C30.5685 20.76 30.2592 21.3467 30.2592 22.072C30.2592 22.648 30.4405 23.128 30.8032 23.512C31.1872 23.8747 31.6565 24.1733 32.2112 24.408C32.7872 24.6213 33.5765 24.8667 34.5792 25.144C35.8379 25.4853 36.8619 25.8267 37.6512 26.168C38.4405 26.488 39.1125 26.9787 39.6672 27.64C40.2432 28.3013 40.5419 29.1653 40.5632 30.232C40.5632 31.192 40.2965 32.056 39.7632 32.824C39.2299 33.592 38.4725 34.2 37.4912 34.648C36.5312 35.0747 35.4219 35.288 34.1632 35.288Z" fill="#5B6049"/>
</svg>
